<?xml version="1.0" standalone="no"?>
<!DOCTYPE svg PUBLIC "-//W3C//DTD SVG 1.1//EN" "http://www.w3.org/Graphics/SVG/1.1/DTD/svg11.dtd" >
<svg>
<metadata>
Created by FontForge 20090622 at Tue Apr 23 10:48:02 2013
 By ffonts
(c) Copyright 2005, Arphic Technology Co., Ltd.Copyright \(c\) 1997 enStep Incorporated. All Rights Reserved.
</metadata>
<defs>
<font id="ARDELANEY" horiz-adv-x="500" >
  <font-face 
    font-family="AR DELANEY"
    font-weight="5"
    font-stretch="normal"
    units-per-em="1000"
    panose-1="2 0 0 0 0 0 0 0 0 0"
    ascent="800"
    descent="-200"
    x-height="527"
    cap-height="671"
    bbox="-13 -189 1033 928"
    underline-thickness="0"
    underline-position="0"
    unicode-range="U+0020-U+2122"
  />
<missing-glyph 
 />
    <glyph glyph-name=".notdef" 
 />
    <glyph glyph-name="parenright" unicode=")" 
d="M141 -90q-43 0 -75.5 31.5t-32.5 74.5q0 39 43 85q76 82 82 90q44 64 44 142q0 80 -43 142q-8 11 -82 90q-44 47 -44 86q0 43 32 74t76 31q110 0 200 -160q80 -142 80 -263q0 -118 -80 -261q-91 -162 -200 -162zM141 723q-29 0 -52 -21t-23 -51q0 -25 43 -70
q62 -65 82 -97q44 -70 44 -151q0 -83 -43 -151q-19 -30 -82 -95q-44 -45 -44 -71q0 -29 23 -51t52 -22q93 0 175 153q72 135 72 237q0 107 -71 239q-81 151 -176 151zM141 -23q-16 0 -28.5 11.5t-12.5 27.5q65 65 114 140q54 83 54 177q0 96 -52 176l-116 142q0 17 12 28
t29 11q76 0 149 -143q65 -128 65 -214q0 -87 -64 -213q-73 -143 -150 -143z" />
    <glyph glyph-name="asterisk" unicode="*" horiz-adv-x="409" 
d="M340 440q0 -34 -25.5 -56t-60.5 -22q-30 0 -48 18q-11 -9 -24 -14.5t-26 -5.5q-32 0 -57.5 23.5t-25.5 55.5q0 16 8 34q-41 21 -41 64q0 38 24.5 64t61.5 22q18 59 79 59q29 0 50.5 -15.5t26.5 -43.5l12 1q34 0 54.5 -26t20.5 -61q0 -47 -37 -64q8 -16 8 -33zM334 539
q0 22 -13 36t-34 14q-13 0 -33 -6q0 31 -9 46q-12 20 -41 20q-28 0 -39 -18t-11 -48q-6 2 -16.5 4t-17.5 2q-15 0 -26 -9q-20 -16 -20 -42q0 -21 15 -34q9 -8 35 -17q-6 -9 -11.5 -21t-5.5 -22q0 -20 15 -34t35 -14q14 0 26 9t22 23q15 -16 21 -21q15 -12 28 -12
q21 0 36.5 14.5t15.5 34.5q0 9 -2.5 16t-15.5 27q23 11 26 13q20 13 20 39zM285 562q8 0 14 -6t6 -14q0 -14 -29 -26q-33 -10 -38 -12q13 -15 21 -26q17 -23 17 -32q0 -7 -6 -13t-13 -6q-11 0 -30 24l-22 30l-18 -30q-17 -25 -29 -25q-8 0 -14.5 5.5t-6.5 13.5q0 7 17 32.5
t18 26.5l-37 10q-31 11 -31 25q0 19 19 19q11 0 28.5 -5.5l33.5 -10.5q0 4 -1 16t-1 16q0 19 4.5 31.5t17.5 12.5t17.5 -11.5t4.5 -29.5q0 -8 -1 -20.5t-1 -14.5l35 13.5t25 6.5z" />
    <glyph glyph-name="comma" unicode="," horiz-adv-x="287" 
d="M36 104q0 46 30 76t77 30q45 0 76.5 -29.5t31.5 -74.5q0 -52 -35 -111q-40 -67 -89 -67q-35 0 -60 21.5t-25 55.5q0 21 11 40q-17 28 -17 59zM76 5q0 -20 15 -32t36 -12q32 0 63 58q28 52 28 87q0 31 -22 51t-53 20q-32 0 -53 -20t-21 -53q0 -16 5 -28.5t17 -29.5
q-6 -8 -10.5 -19.5t-4.5 -21.5zM103 104q0 17 11 29t29 12t30 -10t12 -29q0 -22 -22 -67.5t-38 -45.5q-18 0 -18 17q0 8 10 29l14 28q-28 10 -28 37z" />
    <glyph glyph-name="hyphen" unicode="-" horiz-adv-x="424" 
d="M266 367q56 0 87 -21q38 -26 38 -79q0 -51 -36 -77q-32 -23 -85 -23h-117q-52 0 -84 23q-36 26 -36 77q0 53 35.5 76.5t89.5 23.5h108zM266 201q40 0 62 12q29 16 29 54q0 39 -28 55q-21 12 -63 12h-108q-54 0 -75 -20q-16 -15 -16 -47q0 -38 28 -54q22 -12 63 -12h108z
M266 300q30 0 39 -3q19 -7 19 -30q0 -21 -14.5 -27t-39.5 -6h-116q-26 0 -36 4q-18 7 -18 29t15.5 27.5t42.5 5.5h108z" />
    <glyph glyph-name="period" unicode="." horiz-adv-x="287" 
d="M251 103q0 -44 -32 -76t-76 -32t-75.5 31.5t-31.5 76.5q0 44 31.5 75.5t75.5 31.5q45 0 76.5 -31.5t31.5 -75.5zM69 103q0 -31 21 -53t53 -22t53.5 21.5t21.5 53.5q0 31 -21.5 52.5t-53.5 21.5q-31 0 -52.5 -21.5t-21.5 -52.5zM184 103q0 -17 -12 -29t-29 -12t-28.5 11.5
t-11.5 29.5q0 17 11 29t29 12q17 0 29 -12t12 -29z" />
    <glyph glyph-name="slash" unicode="/" horiz-adv-x="573" 
d="M7 1q0 40 85 197q53 98 170 292.5t119 198.5q20 33 37 48q23 20 55 20q38 0 66 -27t28 -65q0 -39 -86 -197q-61 -112 -170 -293l-119 -197q-18 -32 -36 -48q-23 -20 -55 -20q-38 0 -66 26t-28 65zM101 -57q22 0 38 16q10 10 24 35l113 192l170 297q88 160 88 182
q0 24 -18 41t-43 17q-16 0 -31 -10t-32 -40l-115 -194l-168 -292q-87 -159 -87 -186q0 -23 18.5 -40.5t42.5 -17.5zM82 -16l-9 17q12 47 91 188l155 266l120 201q9 17 14 22.5t20 11.5l19 -7l8 -18q-5 -19 -15 -35l-351 -620q-7 -13 -10 -17q-7 -9 -23 -16z" />
    <glyph glyph-name="zero" unicode="0" horiz-adv-x="763" 
d="M730 333q0 -144 -102 -246t-247 -102q-144 0 -246 102t-102 246t102.5 246.5t245.5 102.5q144 0 246.5 -102.5t102.5 -246.5zM67 333q0 -130 92 -222t222 -92q129 0 222 92t93 222q0 131 -92 223t-223 92q-130 0 -222 -92t-92 -223zM663 333q0 -117 -82 -199t-200 -82
q-117 0 -199 82t-82 199t82.5 199.5t198.5 82.5q117 0 199.5 -82.5t82.5 -199.5zM187 333q0 -80 56.5 -137.5t137.5 -57.5t138.5 57.5t57.5 137.5q0 81 -57 138t-139 57q-80 0 -137 -57t-57 -138zM543 333q0 -66 -47 -114t-115 -48q-67 0 -114 47t-47 115q0 66 47 114
t114 48q66 0 114 -47t48 -115zM253 333q0 -53 37.5 -90.5t90.5 -37.5t91 37t38 91q0 53 -37.5 90.5t-91.5 37.5q-53 0 -90.5 -37.5t-37.5 -90.5z" />
    <glyph glyph-name="one" unicode="1" horiz-adv-x="370" 
d="M17 566q0 61 45 84q33 17 99 17q76 0 109 -32t33 -108v-400q0 -57 -25 -92q-29 -40 -85 -40q-58 0 -86 41q-24 35 -24 96v341q-30 11 -48 36t-18 57zM117 132q0 -46 14 -71q19 -33 62 -33q42 0 61 30q16 25 16 69v404q0 66 -33 87q-24 15 -96 15q-54 0 -75 -20
q-16 -15 -16 -47q0 -28 18.5 -45.5t48.5 -20.5v-368zM83 566q0 23 15 28.5t43 5.5h23q45 0 59 -12.5t14 -56.5v-403q0 -38 -11.5 -52t-32.5 -14q-28 0 -35.5 19t-7.5 51v401h-14q-27 0 -36 4q-17 7 -17 29z" />
    <glyph glyph-name="two" unicode="2" horiz-adv-x="561" 
d="M516 106q0 -56 -40 -83q-34 -23 -92 -23h-195q-66 0 -100 17q-49 24 -49 84q0 43 63 114q11 12 119 122q68 69 74 100l-8 19l-20 7q-18 -5 -52 -46q-30 -36 -78 -36q-45 0 -75.5 31.5t-30.5 77.5q0 82 78 140q71 53 157 53q106 0 177.5 -72.5t71.5 -178.5q0 -76 -55 -146
q-18 -23 -65 -73q80 -17 100 -39t20 -68zM483 432q0 91 -62 154t-154 63q-71 0 -133 -43q-69 -48 -69 -117q0 -32 20 -53t53 -21q36 0 68 41t62 41q25 0 43 -17t18 -43q0 -35 -66 -105l-122 -124q-67 -72 -67 -107q0 -44 39 -59q23 -9 76 -9h195q44 0 68 14q31 18 31 59
q0 36 -22 54q-27 22 -96 22q-13 0 -24.5 -0.5t-22.5 -0.5q104 107 107 111q58 72 58 140zM450 106q0 -25 -22 -34q-13 -5 -44 -5h-201q-35 0 -47 3q-29 7 -29 31t66 91q107 108 122 125q67 76 67 120q0 39 -27 66t-67 27q-45 0 -78 -41t-52 -41q-18 0 -29 12t-11 29
q0 53 59 92q53 35 110 35q79 0 131 -53t52 -131q0 -73 -120 -198l-87 -88q9 0 46.5 2.5t51.5 2.5q50 0 79.5 -9.5t29.5 -35.5z" />
    <glyph glyph-name="three" unicode="3" horiz-adv-x="527" 
d="M494 227q0 -103 -70 -174t-173 -71q-88 0 -160 54q-78 59 -78 144q0 44 32 76t77 32q47 0 78 -39q37 -47 51 -51l19 8l8 20q-7 22 -48 51q-36 25 -36 65q0 38 35 61q42 27 47 45l-7 17l-18 6q-20 -5 -52.5 -40.5t-74.5 -35.5q-45 0 -76 30t-31 75q0 78 76 134
q70 51 151 51q100 0 170.5 -67.5t70.5 -167.5q0 -54 -28 -105q18 -24 27.5 -55t9.5 -63zM452 450q0 86 -60.5 143.5t-147.5 57.5q-68 0 -127 -40q-67 -46 -67 -111q0 -30 21 -51t53 -21q28 0 51 24q51 52 76 52q24 0 41.5 -15.5t17.5 -40.5q0 -33 -41 -58t-41 -48
q0 -26 41.5 -53.5t41.5 -62.5q0 -25 -17.5 -43.5t-42.5 -18.5q-27 0 -76 62q-23 29 -53 29q-31 0 -53 -22t-22 -54q0 -70 68 -119q61 -44 136 -44q89 0 149 61t60 150q0 65 -43 115q35 53 35 108zM427 227q0 -75 -50.5 -126.5t-125.5 -51.5q-59 0 -111 34q-60 39 -60 95
q0 17 11 30t29 13q16 0 51 -45t80 -45q38 0 66 28t28 67q0 47 -39 77q-44 34 -45 37l3 8q49 32 55 38q24 23 24 62t-26.5 64.5t-65.5 25.5q-44 0 -78.5 -38.5t-49.5 -38.5q-18 0 -29 11t-11 28q0 50 57 86q50 32 104 32q73 0 124 -47t51 -120q0 -32 -12.5 -59t-36.5 -51
q57 -42 57 -114z" />
    <glyph glyph-name="four" unicode="4" horiz-adv-x="606" 
d="M385 -5q-58 0 -84 42q-22 35 -22 97q-15 0 -30 -0.5t-31 -0.5q-83 0 -124 18q-61 27 -61 97q0 35 23 79q6 12 26 43l139 215q37 59 60.5 70.5t95.5 11.5t101 -47q23 -37 23 -111q0 -27 -3 -65q-7 -88 -7 -104q42 0 69.5 -29.5t27.5 -73.5q0 -43 -27 -71t-70 -32
q0 -62 -21 -96q-26 -43 -85 -43zM555 237q0 40 -27.5 56.5t-70.5 16.5v233q0 63 -18 76.5t-85 13.5q-56 0 -75 -20q-3 -4 -30 -46l-139 -215q-25 -40 -29 -49q-15 -30 -15 -55q0 -49 50 -69q38 -15 105 -15q28 0 49.5 1l41.5 2v-29q0 -52 10 -74q16 -36 63 -36q46 0 62 36
q10 23 10 75v26q43 0 67 14q31 18 31 58zM100 248q0 26 46 104q33 57 93 144q47 68 68 95q9 5 22 7t27 2h22q23 0 39 -5q6 -10 8 -46.5t2 -92.5q0 -61 -1 -103.5t-2 -77.5q21 1 34 1q30 0 46.5 -7.5t16.5 -31.5q0 -23 -16.5 -30t-45.5 -7h-18.5t-16.5 1q0 -16 1 -31.5
t2 -28.5q0 -36 -7 -54q-10 -25 -35 -25q-24 0 -33.5 22t-9.5 57q0 19 1 33l2 27q-14 -2 -42.5 -4t-61.5 -2q-61 0 -96 10q-45 13 -45 43zM184 275h161v251zM312 309h-67l67 104v-104z" />
    <glyph glyph-name="five" unicode="5" horiz-adv-x="546" 
d="M285 456h5q29 0 53.5 -3.5t47.5 -12.5q61 -24 95.5 -80t34.5 -124q0 -112 -74.5 -181.5t-187.5 -69.5q-84 0 -152 38q-82 46 -82 123q0 42 30 73t72 31q28 0 56 -16q62 -35 76 -35q34 0 42 32q-5 15 -22 20.5t-43 5.5q-10 0 -27 -1t-22 -1q-56 0 -86 19q-38 24 -38 77
q0 46 8 100.5l16 112.5t35.5 80.5t93.5 22.5h125q58 0 90 -22q39 -26 39 -82q0 -72 -63 -93q-30 -10 -121 -10zM437 562q0 40 -26.5 55.5t-69.5 15.5h-125q-53 0 -71.5 -14t-23 -51t-12.5 -89q-13 -86 -13 -128q0 -31 21.5 -47t90.5 -16q68 0 86 -5q40 -11 40 -52
q0 -29 -23 -47t-52 -18q-26 0 -53 15q-63 35 -80 35q-28 0 -48 -20t-20 -50q0 -60 73 -97q60 -30 127 -30q101 0 165.5 58t64.5 158q0 103 -71 153q-61 43 -168 43l7 59q11 0 39.5 -1t29.5 -1q66 0 89 19.5t23 54.5zM210 396l35 1q94 0 146 -33q64 -41 64 -130
q0 -84 -56 -133t-141 -49q-51 0 -102 22q-64 28 -64 73q0 14 10 25t24 11q13 0 55 -25.5t78 -25.5q44 0 77 28t33 71q0 75 -88 88l-141 8q-11 11 -11 23q0 57 8 118.5t23 115.5l16 13l40 3h125q32 0 42 -4q20 -8 20 -34t-25.5 -35t-68.5 -9q-25 0 -45.5 1.5t-36.5 3.5z" />
    <glyph glyph-name="six" unicode="6" horiz-adv-x="582" 
d="M551 243q0 -108 -74 -184t-183 -76q-111 0 -186 72t-75 182q0 55 25 111q16 36 58 99l81 132q66 92 125 92q44 0 76.5 -30.5t32.5 -74.5q0 -28 -17 -58q-3 -6 -20 -31q74 -30 115.5 -91.5t41.5 -142.5zM397 566q0 29 -22.5 50.5t-52.5 21.5q-44 0 -107 -92
q-60 -101 -71 -118q-36 -53 -53 -89q-24 -52 -24 -102q0 -96 65 -158t162 -62q94 0 159 66t65 160q0 78 -49 140.5t-126 71.5l33 53q21 36 21 58zM485 243q0 -80 -55.5 -136.5t-135.5 -56.5q-83 0 -138.5 52.5t-55.5 134.5q0 67 94 217.5t128 150.5q17 0 29.5 -11.5
t12.5 -28.5q0 -10 -22 -49l-56 -91q89 0 144 -46.5t55 -135.5zM187 243q0 -44 31 -75t75 -31t75 31t31 75t-31 75t-75 31t-75 -31t-31 -75zM365 243q0 -29 -21 -51t-51 -22t-51.5 21.5t-21.5 51.5t21 51t52 21q30 0 51 -21t21 -51zM253 243q0 -17 11 -28t29 -11q17 0 28 11
t11 28q0 16 -11.5 27.5t-27.5 11.5q-17 0 -28.5 -11t-11.5 -28z" />
    <glyph glyph-name="seven" unicode="7" horiz-adv-x="485" 
d="M-13 562q0 55 39 82q34 23 91 23h206q60 0 95 -24q42 -29 42 -86q0 -46 -31 -144q-17 -54 -64.5 -176.5t-50.5 -131.5q-17 -51 -40 -76q-31 -34 -77 -34t-78 29t-32 75q0 60 50 185l73 172q-16 0 -32.5 -0.5t-33.5 -0.5q-93 0 -128 30q-29 25 -29 77zM121 99
q0 -32 21.5 -51.5t54.5 -19.5q32 0 54 26q18 20 30 56q4 13 47 125q48 127 66 182q33 102 33 140q0 42 -33 61q-26 15 -71 15h-206q-44 0 -67 -13q-30 -17 -30 -58q0 -45 43 -64q34 -15 94 -15q28 0 53.5 1.5t47.5 3.5q-47 -110 -78 -189q-59 -150 -59 -200zM118 522
q-31 0 -43 5q-22 9 -22 35q0 29 23 33.5t41 4.5h206q30 0 46 -7q25 -11 25 -36q0 -32 -33 -132q-26 -78 -65 -182l-47 -122q-7 -20 -12 -30q-15 -30 -41 -30q-17 0 -29.5 10.5t-12.5 27.5q0 29 34 125q21 59 68 175l50 123h-188z" />
    <glyph glyph-name="eight" unicode="8" horiz-adv-x="564" 
d="M44 450q0 96 70.5 164.5t167.5 68.5q98 0 168.5 -67.5t70.5 -165.5q0 -63 -32 -110q18 -23 27.5 -53.5t9.5 -62.5q0 -100 -72 -170t-172 -70t-172 70t-72 170q0 35 8.5 62.5t29.5 53.5q-16 22 -24 51.5t-8 58.5zM489 450q0 83 -61 141t-144 58t-144 -58t-61 -141
q0 -31 9.5 -60.5t28.5 -50.5q-21 -20 -32.5 -52.5t-11.5 -63.5q0 -86 63 -146t148 -60q86 0 148 60t62 146q0 33 -10.5 64t-32.5 52q19 21 28.5 50t9.5 61zM459 225q0 -73 -52 -124t-125 -51q-72 0 -124.5 50.5t-52.5 124.5q0 65 53 113q-22 24 -35 53t-13 58
q0 68 51.5 117.5t120.5 49.5q70 0 121 -49t51 -118q0 -30 -12 -58t-35 -53q52 -49 52 -113zM195 451q0 -35 26 -61t61 -26t61 26t26 61t-26 61t-61 26t-61 -25t-26 -62zM195 220q0 -35 26 -61t61 -26t61 26t26 61t-26 61t-61 26t-61 -25t-26 -62zM335 451q0 -22 -15 -38
t-38 -16t-38 16t-15 38q0 23 15 38t38 15t38 -15t15 -38zM335 220q0 -23 -15 -38t-38 -15t-38 15t-15 38t15 38t38 15t38 -15t15 -38zM262 451q0 -20 20 -20t20 20t-20 20q-8 0 -14 -6t-6 -14zM262 220q0 -20 20 -20t20 20t-20 20q-8 0 -14 -6t-6 -14z" />
    <glyph glyph-name="nine" unicode="9" horiz-adv-x="582" 
d="M30 422q0 108 74 184t183 76q112 0 186.5 -71.5t74.5 -182.5q0 -55 -25 -111q-16 -36 -58 -99l-108 -167q-50 -57 -98 -57q-43 0 -75.5 30.5t-32.5 74.5q0 23 11 47q3 8 25 43q-73 29 -115 91t-42 142zM184 99q0 -29 22.5 -50.5t52.5 -21.5q44 0 107 92q61 102 72 118
q47 70 62 110.5t15 80.5q0 97 -65.5 158.5t-162.5 61.5q-94 0 -159 -66t-65 -160q0 -79 49 -140.5t126 -71.5q-22 -34 -33 -53q-21 -36 -21 -58zM97 422q0 81 55 137t135 56q83 0 138.5 -52.5t55.5 -134.5q0 -69 -94 -218.5t-128 -149.5q-17 0 -29.5 11.5t-12.5 28.5
q0 15 35 72l44 68q-88 0 -142 46q-57 49 -57 136zM395 422q0 44 -31 75t-75 31t-75 -31t-31 -75t31 -75t75 -31t75 31t31 75zM216 422q0 31 21 52t52 21q30 0 51 -21t21 -52q0 -30 -21 -51t-51 -21q-31 0 -52 21t-21 51zM328 422q0 18 -11 29t-28 11t-28 -11t-11 -29
q0 -17 11 -28t28 -11t28 11t11 28z" />
    <glyph glyph-name="colon" unicode=":" horiz-adv-x="287" 
d="M251 406q0 -45 -31.5 -76.5t-76.5 -31.5q-44 0 -75.5 31.5t-31.5 76.5t31 76t76 31q44 0 76 -31t32 -76zM251 103q0 -44 -32 -76t-76 -32t-75.5 31.5t-31.5 76.5q0 44 31.5 75.5t75.5 31.5q45 0 76.5 -31.5t31.5 -75.5zM69 405q0 -30 22 -52t52 -22q31 0 53 22t22 52
q0 32 -21.5 53.5t-53.5 21.5t-53 -21t-21 -54zM69 103q0 -31 21 -53t53 -22t53.5 21.5t21.5 53.5q0 31 -21.5 52.5t-53.5 21.5q-31 0 -52.5 -21.5t-21.5 -52.5zM184 406q0 -17 -12 -29t-29 -12t-28.5 11.5t-11.5 29.5q0 17 11 29t29 12q17 0 29 -12t12 -29zM184 103
q0 -17 -12 -29t-29 -12t-28.5 11.5t-11.5 29.5q0 17 11 29t29 12q17 0 29 -12t12 -29z" />
    <glyph glyph-name="semicolon" unicode=";" horiz-adv-x="287" 
d="M251 406q0 -45 -31.5 -76.5t-75.5 -31.5t-76 32t-32 76q0 45 31 76t77 31q45 0 76 -31t31 -76zM36 104q0 46 30 76t77 30q45 0 76.5 -29.5t31.5 -74.5q0 -52 -35 -111q-40 -67 -89 -67q-35 0 -60 21.5t-25 55.5q0 21 11 40q-17 28 -17 59zM69 405q0 -30 22 -52t53 -22
q30 0 52 22t22 52q0 32 -21.5 53.5t-52.5 21.5q-32 0 -53.5 -21.5t-21.5 -53.5zM76 5q0 -20 15 -32t36 -12q32 0 63 58q28 52 28 87q0 31 -22 51t-53 20q-32 0 -53 -20t-21 -53q0 -16 5 -28.5t17 -29.5q-6 -8 -10.5 -19.5t-4.5 -21.5zM185 406q0 -17 -12 -29t-29 -12t-29 12
t-12 29t12 29t29 12t29 -12t12 -29zM103 104q0 17 11 29t29 12t30 -10t12 -29q0 -22 -22 -67.5t-38 -45.5q-18 0 -18 17q0 8 10 29l14 28q-28 10 -28 37z" />
    <glyph glyph-name="question" unicode="?" horiz-adv-x="511" 
d="M271 232q-49 0 -81 24q-36 27 -36 74t36 69l73 35l9 20l-7 18l-17 7q-17 -6 -54 -41q-30 -28 -70 -28q-42 0 -69.5 29.5t-27.5 72.5q0 77 74 130q67 48 149 48q99 0 166.5 -67.5t67.5 -167.5q0 -90 -61.5 -156.5t-151.5 -66.5zM360 103q0 -44 -32 -76t-76 -32t-75.5 31.5
t-31.5 76.5t31 76t76 31q44 0 76 -31t32 -76zM250 656q-66 0 -124 -38q-66 -44 -66 -107q0 -29 17.5 -48.5t46.5 -19.5q26 0 76 47q24 23 48 23q23 0 40 -18t17 -41q0 -43 -59 -64t-59 -60q0 -33 26 -50q22 -14 57 -14q76 0 128.5 56t52.5 133q0 85 -58 143t-143 58z
M178 103q0 -32 21.5 -53.5t52.5 -21.5t52.5 21.5t21.5 53.5q0 31 -21.5 52.5t-52.5 21.5t-52.5 -21.5t-21.5 -52.5zM271 299q-28 0 -39 8t-11 23q0 9 58.5 37.5t58.5 86.5q0 38 -26 65t-65 27q-37 0 -72.5 -34.5t-49.5 -34.5t-23 10t-9 24q0 48 56 82q49 30 101 30
q72 0 120 -48t48 -120q0 -63 -42.5 -109.5t-104.5 -46.5zM293 103q0 -17 -12 -29t-29 -12t-29 12t-12 29t12 29t29 12t29 -12t12 -29z" />
    <glyph glyph-name="A" unicode="A" horiz-adv-x="687" 
d="M265 137q-38 -80 -48 -94q-35 -48 -88 -48q-45 0 -77.5 31.5t-32.5 75.5q0 40 49 152q36 82 97 201l72 140q16 34 43.5 55t62.5 21q39 0 64 -19t42 -57l72 -139q64 -124 98 -201q49 -111 49 -153q0 -44 -32.5 -75.5t-77.5 -31.5q-54 0 -88 47q-10 14 -48 95h-157zM558 28
q30 0 53.5 21.5t23.5 52.5q0 32 -50 143q-40 88 -98 203l-68 133q-14 28 -29 41q-19 16 -47 16q-27 0 -45 -15t-28.5 -38t-69.5 -138q-68 -132 -98 -200q-50 -112 -50 -145q0 -31 22.5 -52.5t54.5 -21.5t59 33q10 12 55 109h200l40 -88q32 -54 75 -54zM222 203l-45 -100
q-25 -41 -48 -41q-17 0 -30.5 11.5t-13.5 28.5q0 19 50 129l98 206l65 130q8 18 16 26q12 12 29 12q16 0 28 -11q9 -8 18 -27.5t63 -129.5q77 -157 99 -205q51 -111 51 -130q0 -17 -13.5 -28.5t-31.5 -11.5q-27 0 -60 65l-33 76h-242zM426 283l-83 177l-83 -177h166z
M343 382l31 -66h-62z" />
    <glyph glyph-name="B" unicode="B" horiz-adv-x="605" 
d="M566 227q0 -118 -82 -176q-72 -51 -193 -51h-97q-76 0 -109 32t-33 108v387q0 76 33 108t109 32l88 -1q115 0 186 -47q84 -55 84 -165q0 -56 -26 -106q20 -24 30 -56t10 -65zM518 453q0 99 -77 144q-62 36 -167 36h-80q-62 0 -85.5 -21.5t-23.5 -84.5v-387q0 -61 24 -84
t85 -23h97q108 0 169 41q73 49 73 153q0 71 -47 117q32 50 32 109zM500 227q0 -87 -62 -127q-51 -33 -142 -33h-107q-44 0 -57.5 14.5t-13.5 58.5v387q0 47 14 60t62 13h86q91 0 140 -28q65 -37 65 -122q0 -34 -11.5 -60.5t-37.5 -45.5q31 -17 47.5 -48.5t16.5 -68.5z
M205 367h109q39 0 63.5 19t24.5 57t-24.5 57.5t-63.5 19.5h-109v-153zM205 146h117q38 0 63 20t25 57t-25 57t-63 20h-117v-154zM316 486q24 0 38.5 -10t14.5 -33q0 -22 -15 -32.5t-38 -10.5h-78v86h78zM324 267q22 0 37 -11t15 -33q0 -29 -22 -38q-12 -5 -30 -5h-86v87h86z
M271 433h49q15 0 15 10t-15 10h-49v-20zM271 213h57q15 0 15 10t-15 10h-57v-20z" />
    <glyph glyph-name="C" unicode="C" horiz-adv-x="716" 
d="M384 202q42 0 82 31q89 69 115 69q43 0 76 -32t33 -76q0 -87 -109 -153q-96 -58 -190 -58q-148 0 -253 101t-105 249q0 146 104 248t250 102q96 0 192 -58q111 -67 111 -157q0 -45 -32 -76t-77 -31q-41 0 -75 32q-73 70 -122 70q-55 0 -92.5 -38.5t-37.5 -93.5
q0 -53 38 -91t92 -38zM384 496q65 0 118 -51t79 -51q30 0 53 22t23 52q0 74 -101 132q-88 50 -169 50q-132 0 -226 -93t-94 -224q0 -133 95.5 -224.5t228.5 -91.5q80 0 166 48q100 56 100 129q0 29 -23 52t-53 23q-22 0 -80.5 -50.5t-116.5 -50.5q-65 0 -114 48t-49 114
q0 69 47.5 117.5t115.5 48.5zM384 135q58 0 105 31l95 68q15 0 27 -13t12 -28q0 -56 -90 -103q-77 -40 -142 -40q-120 0 -205.5 81.5t-85.5 201.5q0 116 85 200t202 84q65 0 145 -42q92 -49 92 -108q0 -16 -13 -28t-29 -12q-8 0 -67 51t-125 51q-87 0 -144.5 -56.5
t-57.5 -142.5q0 -80 57.5 -137.5t138.5 -57.5z" />
    <glyph glyph-name="D" unicode="D" horiz-adv-x="698" 
d="M194 0q-76 0 -109 32t-33 108v387q0 76 33 108t109 32h118q149 0 249 -91q104 -95 104 -242q0 -159 -112 -250q-104 -84 -266 -84h-93zM194 633q-62 0 -85.5 -21.5t-23.5 -84.5v-387q0 -61 24 -84t85 -23h93q148 0 241 74q103 82 103 227q0 134 -91.5 216.5t-227.5 82.5
h-118zM118 140v387q0 47 14 60t62 13h118q121 0 203.5 -72.5t82.5 -193.5q0 -128 -91 -200q-84 -67 -214 -67h-99q-48 0 -62 12.5t-14 60.5zM205 138h102q87 0 146 54t59 141t-60.5 141t-148.5 54h-98v-390zM302 495q76 0 126.5 -43.5t50.5 -118.5q0 -73 -49 -117t-123 -44
h-69v323h64zM271 205h36q60 0 99 34t39 94t-41 94t-102 34h-31v-256z" />
    <glyph glyph-name="E" unicode="E" horiz-adv-x="550" 
d="M525 106q0 -55 -38 -82q-34 -24 -90 -24h-207q-73 0 -105.5 32.5t-32.5 107.5v387q0 74 32.5 106.5t105.5 32.5h207q55 0 89 -24q39 -28 39 -82q0 -65 -53 -91q-37 -18 -113 -18q-17 0 -47 1t-41 1v-20h32.5t33.5 1q65 0 98 -17q45 -23 45 -84q0 -48 -28 -72
q-34 -29 -124 -29h-29.5t-27.5 1v-20q29 0 50 1t40 2q97 0 133 -31q31 -27 31 -79zM238 267q8 0 39 -2t52 -2q54 0 81 12q37 17 37 58t-37 58q-28 13 -82 13q-19 0 -42 -1.5t-48 -2.5v86q19 0 32 -1q67 -5 80 -5q64 0 97 14q45 19 45 66q0 42 -27 57.5t-72 15.5h-199
q-62 0 -85.5 -21.5t-23.5 -84.5v-387q0 -61 24 -84t85 -23h199q45 0 68 13q31 18 31 60q0 45 -45 65q-35 15 -97 15q-34 0 -57.5 -2t-54.5 -4v87zM393 146q30 0 43 -5q22 -9 22 -35q0 -25 -16.5 -32t-44.5 -7h-206q-45 0 -59 12.5t-14 56.5v394q0 44 14 57t59 13h205
q28 0 45 -7.5t17 -32.5t-21 -34q-15 -6 -44 -6h-188v-153h151q27 0 42.5 -5.5t15.5 -28.5q0 -22 -19 -29q-11 -4 -39 -4h-151v-154h188z" />
    <glyph glyph-name="F" unicode="F" horiz-adv-x="537" 
d="M162 -5q-57 0 -83.5 37t-26.5 95v405q0 71 33.5 102.5t104.5 31.5h207q55 0 89 -24q39 -28 39 -82q0 -65 -53 -91q-37 -18 -113 -18q-17 0 -47 1t-41 1v-20h32.5t33.5 1q65 0 98 -17q45 -23 45 -84q0 -48 -28 -72q-34 -29 -124 -29h-29.5t-27.5 1q0 -13 1 -44.5t1 -32.5
q0 -94 -32 -130q-27 -31 -79 -31zM447 333q0 41 -37 58q-28 13 -82 13q-19 0 -42 -1.5t-48 -2.5v86q19 0 32 -1q67 -5 80 -5q64 0 97 14q45 19 45 66q0 42 -27 57.5t-72 15.5h-199q-62 0 -85.5 -21.5t-23.5 -84.5v-399q0 -45 15 -69q19 -31 62 -31q46 0 66 43q15 33 15 93
q0 28 -2 54.5t-3 48.5q8 0 39 -2t52 -2q54 0 81 12q37 17 37 58zM205 132q0 -32 -6 -47q-9 -23 -37 -23t-38 23q-6 14 -6 47v399q0 43 14.5 56t58.5 13h206q28 0 44.5 -7.5t16.5 -32.5t-21 -34q-15 -6 -44 -6h-188v-153h151q27 0 42.5 -5.5t15.5 -28.5q0 -22 -19 -29
q-11 -4 -39 -4h-151v-168z" />
    <glyph glyph-name="G" unicode="G" horiz-adv-x="693" 
d="M420 204q-43 0 -74.5 29.5t-31.5 73.5q0 54 35.5 78.5t91.5 24.5h96q71 0 98 -28t27 -100v-108q0 -104 -85 -152q-68 -38 -183 -38q-152 0 -256.5 99.5t-104.5 250.5q0 146 103.5 247.5t250.5 101.5q77 0 137 -30q76 -38 76 -108q0 -45 -28.5 -76.5t-73.5 -31.5
q-18 0 -43 8q-57 18 -73 18q-52 0 -91 -39t-39 -91q0 -58 43 -96t102 -38q18 0 35 6zM482 185q-41 -18 -85 -18q-74 0 -126 46t-52 120q0 66 48 115t115 49q19 0 73 -18q27 -9 43 -9q30 0 49 22t19 52q0 56 -65 84q-49 21 -114 21q-133 0 -226.5 -91.5t-93.5 -223.5
q0 -138 94 -227.5t234 -89.5q100 0 157 29q76 39 76 128v108q0 56 -18 75t-73 19h-96q-41 0 -64 -13q-30 -17 -30 -56q0 -51 47 -65q23 -7 88 -7v-50zM380 306q0 23 17.5 30t43.5 7h96q24 0 47 -6q7 -8 9 -22.5t2 -27.5v-113q0 -73 -66 -102q-48 -21 -134 -21
q-126 0 -210.5 79t-84.5 204q0 119 83.5 200.5t203.5 81.5q48 0 88 -14q58 -20 58 -59q0 -16 -9.5 -27.5t-25.5 -11.5q-18 0 -56 13t-60 13q-81 0 -138.5 -58.5t-57.5 -138.5q0 -86 62 -143t149 -57q60 0 118 28v108q-8 0 -29 -1t-26 -1q-34 0 -57 8t-23 31z" />
    <glyph glyph-name="H" unicode="H" horiz-adv-x="676" 
d="M271 239q0 -10 1 -37t1 -43q0 -96 -32 -133q-27 -31 -79 -31q-57 0 -83.5 37.5t-26.5 95.5v411q0 57 25 92q29 40 85 40q51 0 78 -30q32 -36 32 -129q0 -19 -0.5 -37t-0.5 -35h134q0 17 -0.5 35t-0.5 37q0 93 32 129q27 30 79 30q57 0 85 -39q25 -35 25 -93v-411
q0 -58 -25 -93q-29 -40 -85 -40q-67 0 -93 52q-19 38 -19 112q0 15 1 42t1 38h-134zM515 28q42 0 61 32q15 26 15 72v403q0 46 -14 71q-18 32 -62 32q-46 0 -66 -43q-15 -33 -15 -92q0 -21 2 -54t2 -42h-200q0 13 2.5 50.5t2.5 49.5q0 58 -15 90q-19 41 -66 41
q-44 0 -60.5 -28t-16.5 -75v-407q0 -45 15 -69q19 -31 62 -31q47 0 66 44q15 34 15 96q0 28 -2 55t-3 50h200q0 -13 -2.5 -52t-2.5 -52q0 -62 15 -96q20 -45 67 -45zM205 306v-174q0 -32 -6 -47q-9 -23 -37 -23t-38 23q-6 14 -6 47v403q0 32 6 46q10 24 38 24t37 -23
q6 -15 6 -47v-162h267v162q0 34 5 46q10 24 38 24t37 -23q6 -15 6 -47v-403q0 -32 -6 -47q-9 -23 -37 -23t-35.5 19t-7.5 51v174h-267z" />
    <glyph glyph-name="I" unicode="I" horiz-adv-x="323" 
d="M162 -5q-56 0 -85 40q-25 35 -25 93v411q0 57 25 92q29 40 85 40t84 -39q25 -35 25 -93v-411q0 -59 -24 -93q-28 -40 -85 -40zM162 28q42 0 61 31q15 25 15 69v410q0 46 -14 69q-19 31 -62 31q-44 0 -60.5 -27t-16.5 -73v-410q0 -45 15 -69q19 -31 62 -31zM162 62
q-27 0 -35.5 18t-8.5 48v411q0 38 11.5 52t32.5 14q26 0 36 -21q7 -15 7 -45v-411q0 -39 -11 -52.5t-32 -13.5z" />
    <glyph glyph-name="J" unicode="J" horiz-adv-x="587" 
d="M542 535v-263q0 -128 -65 -204q-70 -81 -197 -81q-132 0 -199 83q-62 76 -62 208q0 60 23 94q28 41 86 41q93 0 107 -105t45 -105q6 0 14 3t11 4q11 13 15.5 37.5t4.5 61.5q0 17 -3.5 82.5t-3.5 98.5q0 85 21 127q27 54 93 54q58 0 86 -41q24 -35 24 -95zM509 535
q0 47 -14 71q-18 32 -63 32q-47 0 -64.5 -37.5t-17.5 -105.5q0 -35 2 -70q6 -105 6 -118q0 -67 -14 -98q-18 -40 -64 -40q-68 0 -75 105.5t-77 105.5q-43 0 -59.5 -27t-16.5 -73q0 -120 52 -186q58 -74 176 -74q116 0 175 74q54 68 54 184v257zM476 535v-262
q0 -101 -46 -158q-50 -62 -150 -62q-102 0 -151 64q-44 57 -44 162q0 40 10.5 54t32.5 14q35 0 47 -105.5t105 -105.5q66 0 92 57q20 44 20 134q0 25 -3.5 88t-3.5 90q0 51 9.5 75.5t37.5 24.5q27 0 37 -23q7 -16 7 -47z" />
    <glyph glyph-name="K" unicode="K" horiz-adv-x="608" 
d="M461 671q45 0 77 -32t32 -77q0 -48 -71 -124l-98 -94l107 -100q83 -87 83 -138q0 -46 -31.5 -78.5t-77.5 -32.5q-58 0 -148 99l-63 73q0 -83 -14 -116q-24 -56 -95 -56q-57 0 -83.5 37t-26.5 95v412q0 57 25 92q29 40 85 40q64 0 90 -47q19 -35 19 -104l82 90
q63 61 108 61zM162 638q-44 0 -60.5 -28t-16.5 -75v-407q0 -45 15 -69q19 -31 62 -31q46 0 65 41q15 32 15 88q0 19 -1.5 43t-2.5 51l139 -156q70 -67 107 -67q32 0 53 23t21 55q0 42 -97 139q-101 93 -106 98l126 125q55 64 55 94q0 31 -21.5 53.5t-52.5 22.5
q-43 0 -132 -95l-92 -107q0 15 1.5 46t1.5 34q0 54 -14 83q-19 39 -65 39zM461 605q12 0 25 -10q8 -6 11 -12l6 -20q-11 -41 -90 -120l-105 -100q58 -52 111 -105q106 -106 106 -133q0 -19 -11.5 -31.5t-30.5 -12.5q-23 0 -91 67q-47 46 -119 129l-68 79v-204q0 -32 -6 -47
q-9 -23 -37 -23q-27 0 -35.5 18t-8.5 48v410q0 30 8.5 48.5t35.5 18.5q28 0 37 -23q6 -15 6 -47v-184l118 135q98 108 138 119z" />
    <glyph glyph-name="L" unicode="L" horiz-adv-x="542" 
d="M524 106q0 -55 -38 -82q-34 -24 -90 -24h-206q-72 0 -105 32t-33 104v403q0 57 25 92q29 40 85 40q57 0 85 -41q24 -36 24 -95v-322q10 0 40 1t48 1q74 0 112 -18q53 -25 53 -91zM238 535q0 46 -14 71q-18 32 -62 32t-63 -32q-14 -24 -14 -71v-399q0 -58 23.5 -80.5
t82.5 -22.5h204q43 0 66 14q30 18 30 59q0 46 -44 65q-35 15 -97 15q-34 0 -57.5 -2t-54.5 -4v355zM392 146q31 0 48.5 -6.5t17.5 -33.5q0 -29 -30 -36q-14 -3 -33 -3h-204q-45 0 -59 12.5t-14 56.5v402q0 30 8.5 48.5t35.5 18.5q28 0 37 -23q6 -15 6 -47v-389h187z" />
    <glyph glyph-name="M" unicode="M" horiz-adv-x="851" 
d="M632 672q60 0 90 -42q23 -32 34 -98q6 -36 33 -159q38 -175 38 -269q0 -47 -32 -78t-79 -31q-85 0 -110 109l-17 103l-56 -132q-44 -80 -108 -80q-73 0 -124 114l-40 98q-19 -117 -26 -136q-28 -76 -101 -76q-45 0 -77.5 31.5t-32.5 77.5q0 86 26 215l44 213q11 65 34 97
q31 43 90 43q75 0 137 -123q56 -141 70 -174l70 173q62 124 137 124zM309 554q-20 42 -32 57q-23 27 -58 27t-56 -20q-25 -24 -36 -91l-64 -379q-3 -12 -4.5 -23t-1.5 -21q0 -32 22 -54t55 -22q67 0 94 131q16 143 20 163l30 -87q31 -84 63 -135q44 -71 84 -71t84 70
q34 54 64 135l30 88q9 -81 19 -162q27 -132 94 -132q31 0 54 22t23 54q0 21 -5 44l-64 379q-12 67 -34.5 89t-58.5 22q-41 0 -66 -39q-8 -12 -23 -45l-117 -260zM572 541q15 33 21 41q16 23 39 23q32 0 45 -28q6 -12 13 -56l65 -378q1 -10 3 -21.5t2 -17.5q0 -20 -12 -31
t-32 -11q-23 0 -34 21q-7 12 -11 41l-54 313l-136 -310q-15 -34 -20 -41q-16 -25 -36 -25q-19 0 -35 24q-6 9 -21 42l-136 310l-53 -313q-6 -31 -11 -41q-11 -21 -35 -21q-17 0 -30 12t-13 30q0 16 2 25.5t2 13.5l65 378q7 40 14 55q14 29 44 29q22 0 38 -22q7 -10 22 -42
l147 -328z" />
    <glyph glyph-name="N" unicode="N" horiz-adv-x="697" 
d="M162 -5q-58 0 -86 41q-24 36 -24 96v402q0 61 24 96q29 41 88 41q45 0 105 -59q41 -40 97 -118l59 -84q0 29 -1 50t-2 40q0 77 19 116q27 55 94 55q57 0 85 -39q25 -35 25 -93v-412q0 -59 -23 -92q-28 -40 -85 -40q-44 0 -106 61q-42 41 -100 121l-60 84q0 -31 1 -53.5
t2 -41.5q0 -101 -32 -139q-27 -32 -80 -32zM466 74q12 -15 22 -24q23 -22 49 -22q43 0 61 32q14 25 14 72v403q0 46 -14 71q-18 32 -63 32q-44 0 -60.5 -28t-16.5 -75v-220l-219 273q-17 21 -23 27q-23 23 -53 23q-43 0 -60.5 -29.5t-17.5 -74.5v-402q0 -47 14 -71
q19 -33 63 -33q43 0 61 32q15 26 15 72v223zM205 132q0 -32 -6 -47q-9 -23 -37 -23q-27 0 -35.5 18t-8.5 48v410q0 29 9.5 48t35.5 19q22 0 102 -94q65 -76 143 -179l84 -112v315q0 31 6 46q10 24 37 24q28 0 38 -23q6 -14 6 -47v-403q0 -33 -5 -46q-9 -24 -36 -24
q-22 0 -102 93q-53 61 -143 179l-88 115v-317z" />
    <glyph glyph-name="O" unicode="O" horiz-adv-x="763" 
d="M730 333q0 -144 -102 -246t-247 -102q-144 0 -246 102t-102 246t102.5 246.5t245.5 102.5q144 0 246.5 -102.5t102.5 -246.5zM67 333q0 -130 92 -222t222 -92q129 0 222 92t93 222q0 131 -92 223t-223 92q-130 0 -222 -92t-92 -223zM663 333q0 -117 -82 -199t-200 -82
q-117 0 -199 82t-82 199t82.5 199.5t198.5 82.5q117 0 199.5 -82.5t82.5 -199.5zM187 333q0 -80 56.5 -137.5t137.5 -57.5t138.5 57.5t57.5 137.5q0 81 -57 138t-139 57q-80 0 -137 -57t-57 -138zM543 333q0 -66 -47 -114t-115 -48q-67 0 -114 47t-47 115q0 66 47 114
t114 48q66 0 114 -47t48 -115zM253 333q0 -53 37.5 -90.5t90.5 -37.5t91 37t38 91q0 53 -37.5 90.5t-91.5 37.5q-53 0 -90.5 -37.5t-37.5 -90.5z" />
    <glyph glyph-name="P" unicode="P" horiz-adv-x="585" 
d="M162 -5q-58 0 -86 41q-24 36 -24 96v395q0 76 33 108t109 32h101q114 0 189.5 -66.5t75.5 -179.5q0 -123 -86 -188q-76 -57 -203 -57q0 -88 -12 -120q-23 -61 -97 -61zM526 421q0 99 -65.5 155.5t-165.5 56.5h-101q-62 0 -85.5 -21.5t-23.5 -84.5v-395q0 -47 14 -71
q19 -33 63 -33q47 0 65 38q13 27 13 82q0 11 -1 32t-1 29q130 0 198 38q90 51 90 174zM162 62q-28 0 -38 23q-6 14 -6 47v395q0 47 14 60t62 13h101q86 0 140 -45q58 -49 58 -134q0 -118 -95 -156q-55 -22 -193 -22q0 -3 2.5 -36.5t2.5 -44.5q0 -44 -9 -68q-12 -32 -39 -32z
M293 316q55 0 87.5 25t32.5 80q0 53 -33 77.5t-88 24.5h-87v-207h88zM238 490h54q41 0 64.5 -15.5t23.5 -53.5q0 -40 -24 -57q-20 -14 -63 -14h-55v140zM296 383q27 0 36 5q14 8 14 33q0 22 -13 29t-38 7h-24v-74h25z" />
    <glyph glyph-name="Q" unicode="Q" horiz-adv-x="763" 
d="M736 95q0 -44 -32 -77t-77 -33q-24 0 -45.5 10.5t-39.5 28.5q-72 -39 -161 -39q-144 0 -246 102t-102 246t102.5 246.5t245.5 102.5q145 0 247 -102t102 -247q0 -29 -17.5 -81.5t-17.5 -69.5q14 -14 20 -24q21 -32 21 -63zM696 335q0 129 -93 221t-221 92
q-130 0 -222.5 -92.5t-92.5 -222.5q0 -128 92 -221t221 -93q44 0 85.5 11.5t82.5 34.5q20 -21 35 -31q22 -15 44 -15q31 0 53.5 22.5t22.5 53.5q0 22 -15 44q-6 9 -33 37q20 32 30.5 74.5t10.5 84.5zM670 95q0 -17 -13 -30t-30 -13q-19 0 -50 31l-25 26q-33 -28 -79.5 -42.5
t-93.5 -14.5q-115 0 -197 83t-82 198q0 117 82.5 199.5t198.5 82.5q115 0 198.5 -81.5t83.5 -197.5q0 -43 -13 -89t-37 -77l34 -34q23 -26 23 -41zM187 333q0 -80 56.5 -137.5t137.5 -57.5t138.5 57.5t57.5 137.5q0 81 -57 138t-139 57q-80 0 -137 -57t-57 -138zM543 333
q0 -67 -47 -114t-115 -47q-67 0 -114 47t-47 114q0 66 47 114t114 48q66 0 114 -47t48 -115zM253 333q0 -53 37.5 -90.5t90.5 -37.5t91 37t38 91q0 53 -37.5 90.5t-91.5 37.5q-53 0 -90.5 -37.5t-37.5 -90.5z" />
    <glyph glyph-name="R" unicode="R" horiz-adv-x="599" 
d="M540 104q0 -46 -31 -78t-77 -32q-39 0 -75 33q-12 11 -86 118q0 -67 -20 -103q-26 -47 -89 -47q-58 0 -86 41q-24 35 -24 96v395q0 76 33 108t109 32h83q120 0 198 -61q86 -67 86 -186q0 -53 -23.5 -101.5t-65.5 -85.5q41 -54 44 -59q24 -38 24 -70zM528 420
q0 102 -74 160q-68 53 -172 53h-88q-62 0 -85.5 -21.5t-23.5 -84.5v-395q0 -48 14 -72q18 -32 63 -32q47 0 66 39q13 27 13 83q0 12 -1 33t-1 29h27l65 -104q58 -80 102 -80q31 0 52 22t21 54q0 25 -33 75l-47 65q47 26 74.5 73.5t27.5 102.5zM162 62q-28 0 -38 23
q-6 14 -6 47v395q0 47 14 60t62 13h87q91 0 149 -43q65 -48 65 -137q0 -56 -32 -99t-87 -66q39 -50 52 -69q45 -63 45 -82q0 -17 -11 -30t-28 -13q-29 0 -90 88l-61 96h-78q0 -10 2.5 -37.5t2.5 -44.5q0 -44 -9 -69q-12 -32 -39 -32zM205 318h88q51 0 84.5 26.5t33.5 76.5
q0 54 -34.5 79.5t-90.5 25.5h-81v-208zM238 493h48q42 0 64 -14q28 -18 28 -58q0 -38 -28 -55q-23 -14 -63 -14h-49v141zM287 385q27 0 39 5q19 8 19 31t-16 30.5t-43 7.5h-15v-74h16z" />
    <glyph glyph-name="S" unicode="S" horiz-adv-x="555" 
d="M408 431q-25 0 -52 13q-81 40 -83 40l-14 -11l6 -11l174 -83q86 -55 86 -166q0 -103 -75 -167q-71 -61 -176 -61q-88 0 -159 41q-85 49 -85 132q0 41 29.5 69.5t71.5 28.5q30 0 58 -19q80 -54 88 -56l21 6l8 14l-7 14l-169 81q-83 54 -83 163q0 100 67 161t168 61
q77 0 144 -35q81 -43 81 -114q0 -41 -29 -71t-70 -30zM282 651q-88 0 -144.5 -52t-56.5 -140q0 -87 66 -136q26 -19 124 -59q68 -28 68 -60q0 -24 -18.5 -37.5t-43.5 -13.5q-36 0 -78.5 35.5t-66.5 35.5q-28 0 -49 -19t-21 -48q0 -65 76 -105q64 -34 135 -34q91 0 153 51
q66 55 66 144q0 87 -69 137q-27 19 -128 61q-69 28 -69 61q0 19 14 31t33 12q20 0 85 -35q30 -16 50 -16q27 0 46 20t19 48q0 56 -70 90q-59 29 -121 29zM282 618q47 0 96 -20q62 -25 62 -65q0 -14 -9 -24t-23 -10q-9 0 -76 35q-31 16 -57 16q-34 0 -58.5 -21.5t-24.5 -55.5
q0 -52 69 -84l128 -56q69 -43 69 -120q0 -76 -53.5 -119t-131.5 -43q-57 0 -110 24q-68 31 -68 81q0 16 10.5 25.5t25.5 9.5q9 0 51 -35t93 -35q39 0 67.5 23t28.5 62q0 51 -64 79.5l-126 55.5q-67 42 -67 117q0 74 47 117t121 43z" />
    <glyph glyph-name="T" unicode="T" horiz-adv-x="590" 
d="M19 560q0 55 36 80.5t92 25.5h296q56 0 92 -25.5t36 -80.5q0 -69 -54 -92q-35 -15 -112 -15v-321q0 -61 -23 -95q-28 -42 -87 -42q-58 0 -86 41q-24 36 -24 96v321q-80 0 -112 14q-54 23 -54 93zM218 132q0 -47 14 -71q19 -33 63 -33q43 0 62 32q15 26 15 72v354
q12 0 25.5 -0.5t28.5 -0.5q51 0 76 12q36 17 36 63q0 41 -26 57t-69 16h-296q-43 0 -66 -14q-29 -18 -29 -59q0 -45 35 -62q27 -13 77 -13h27.5t26.5 1v-354zM85 560q0 27 17 33.5t49 6.5h288q31 0 48.5 -6.5t17.5 -33.5q0 -26 -25.5 -35t-67.5 -9q-17 0 -35.5 1t-38.5 3
v-388q0 -32 -6 -47q-9 -23 -37 -23t-38 23q-6 14 -6 47v388q-2 0 -28 -2t-45 -2q-55 0 -74 11.5t-19 32.5z" />
    <glyph glyph-name="U" unicode="U" horiz-adv-x="648" 
d="M603 310q0 -146 -63 -229q-72 -95 -216 -95q-143 0 -215 95q-64 85 -64 229v225q0 61 23 95q28 41 87 41q69 0 95 -58q20 -44 20 -135q0 -37 -1 -60q-4 -93 -4 -98q0 -61 11.5 -90.5t47.5 -29.5t50 36q11 28 11 91q0 31 -2.5 90.5t-2.5 72.5q0 86 20 127q26 54 93 54
q58 0 86 -41q24 -35 24 -95v-225zM324 167q-55 0 -77 47q-17 37 -17 115q0 27 3 83t3 83q0 68 -15 101q-19 42 -66 42q-44 0 -62 -31q-14 -24 -14 -72l-1 -219q0 -134 52 -208q62 -88 194 -88q131 0 193 87q53 75 53 209l-1 219q0 46 -14 71q-18 32 -62 32t-60.5 -28
t-16.5 -75l1 -218q0 -68 -13 -99q-21 -51 -80 -51zM536 316q0 -120 -43 -185q-52 -78 -169 -78q-116 0 -168 78q-44 66 -44 185v219q0 34 5 46q10 24 38 24t39 -32q8 -24 8 -81q0 -32 -1 -54q-4 -86 -4 -98q0 -97 22 -144q30 -63 105 -63q76 0 106 64q22 47 22 145
q0 39 -1 63q-4 95 -4 97q0 51 9 77t37 26t37 -23q6 -15 6 -47v-219z" />
    <glyph glyph-name="V" unicode="V" horiz-adv-x="685" 
d="M450 593q16 36 42.5 57t63.5 21q46 0 79 -31t33 -76q0 -41 -48 -150q-32 -74 -97 -200q-73 -142 -74 -145q-17 -36 -42.5 -55t-63.5 -19t-63.5 19t-43.5 55q-7 16 -71.5 141.5t-98.5 202.5q-49 111 -49 152q0 44 34 75t78 31q37 0 64 -21t42 -57l108 -250zM205 580
q-12 26 -30.5 42t-45.5 16q-31 0 -55 -21t-24 -52q0 -29 49 -138q43 -96 97 -204l71 -140q12 -27 30 -41t46 -14q27 0 45 14.5t30 40.5l70 140q55 110 97 204q50 111 50 137q0 31 -23.5 52.5t-54.5 21.5q-26 0 -46 -16t-31 -42l-137 -322zM511 567q8 18 16 26q12 11 29 11
q19 0 32.5 -10.5t13.5 -29.5q0 -16 -50 -126l-99 -207l-66 -136q-7 -15 -18 -24.5t-26 -9.5t-26 9.5t-19 24.5l-153 318q-62 134 -62 152q0 17 14 28t32 11q16 0 27 -10t18 -27l169 -394z" />
    <glyph glyph-name="W" unicode="W" horiz-adv-x="951" 
d="M823 671q46 0 78.5 -29.5t32.5 -74.5q0 -55 -31 -145q-21 -61 -67 -167q-50 -115 -58 -137q-25 -67 -38 -85q-28 -38 -81 -38q-71 0 -123 115q-47 134 -60 168l-60 -167q-53 -116 -124 -116q-52 0 -80 38q-16 21 -39 85q-12 33 -57 136q-48 111 -67 166q-32 93 -32 145
q0 45 32.5 75.5t78.5 30.5q83 0 133 -139l37 -112l55 157q46 94 123 94q88 0 138 -135l39 -116l53 153q45 98 117 98zM476 639q-49 0 -91 -72q-30 -50 -58 -142l-29 -100l-76 225q-44 88 -94 88q-32 0 -55 -20t-23 -51q0 -46 32 -138q21 -61 67.5 -169.5t54.5 -130.5
q21 -57 28 -67q22 -34 60 -34q40 0 87 86q33 60 67 162l30 94l28 -94q33 -101 66 -162q47 -86 90 -86q38 0 59 34q6 9 28 67l90 216q64 158 64 222q0 32 -23 51.5t-55 19.5q-61 0 -117 -143q-48 -153 -54 -170l-75 225q-46 89 -101 89zM797 596l26 9l32 -11l13 -29
q-10 -70 -72 -234.5t-110 -258.5q-9 -4 -16 -6.5t-11 -4.5q-25 0 -45 47q-12 29 -15 38l-123 315l-123 -315l-20 -52q-15 -28 -41 -33l-26 11q-48 89 -109.5 254.5t-73.5 238.5l13 29l31 11l28 -10q40 -64 80 -178l64 -186l115 307q12 33 20 45q16 22 42 22q20 0 32.5 -11.5
t29.5 -55.5l114 -307q9 24 47 138q52 156 98 227z" />
    <glyph glyph-name="X" unicode="X" horiz-adv-x="618" 
d="M477 673q44 0 77 -32t33 -77q0 -43 -59 -123l-81 -100q51 -59 85 -105q66 -89 66 -134q0 -44 -33 -76t-77 -32q-59 0 -126 89l-53 75l-73 -100q-55 -64 -105 -64q-45 0 -78 31t-33 77q0 44 66 133l85 106l-79 99q-61 83 -61 124q0 45 33 77t78 32q39 0 76 -33
q10 -9 91 -117l69 94q49 56 99 56zM142 640q-31 0 -54.5 -22.5t-23.5 -53.5q0 -34 70 -126l79 -97l-111 -141q-49 -70 -49 -97q0 -32 23 -54t55 -22q43 0 107 83q61 90 71 103l98 -133q49 -53 81 -53q30 0 53.5 22.5t23.5 52.5q0 38 -74 135q-79 95 -86 104l105 132
q44 64 44 91q0 30 -23 53t-54 23q-40 0 -100 -76q-58 -83 -68 -96l-67 97q-58 75 -100 75zM426 567q14 18 21 25q15 14 30 14q17 0 30.5 -12.5t13.5 -29.5q0 -21 -79 -124l-79 -99q16 -16 85 -106q84 -110 84 -133q0 -18 -13 -30t-31 -12q-28 0 -106 104q-26 34 -73 105
l-128 -170q-17 -21 -21 -25q-15 -14 -30 -14q-17 0 -30.5 12.5t-13.5 29.5t43 78q26 37 82 107q43 54 44 54l-80 99q-77 100 -77 124q0 18 13 30t31 12q27 0 92 -87l75 -106z" />
    <glyph glyph-name="Y" unicode="Y" horiz-adv-x="602" 
d="M17 563q0 44 33 76t77 32q62 0 126 -93l51 -78l66 107q49 64 104 64q45 0 77.5 -31.5t32.5 -76.5q0 -47 -79 -160l-94 -126q0 -14 2 -55.5t2 -51.5q0 -80 -19 -119q-27 -56 -95 -56t-94 56q-19 40 -19 121q0 30 1 55.5l2 49.5l-123 170q-51 80 -51 116zM301 28
q47 0 67 46q15 35 15 100q0 35 -2 58.5t-4 55.5l121 165q53 81 53 110q0 31 -23 53t-54 22q-45 0 -104 -87q-56 -95 -66 -110l-95 141q-48 56 -82 56q-30 0 -53.5 -22.5t-23.5 -52.5q0 -36 84 -155l90 -120q0 -18 -1 -32q-5 -68 -5 -82q0 -65 15 -100q20 -46 68 -46zM83 563
q0 18 13 30t31 12q22 0 75 -68l105 -153l94 153q49 68 73 68q17 0 30.5 -12.5t13.5 -29.5q0 -22 -84 -141l-90 -124v-166q0 -32 -6 -47q-9 -23 -37 -23t-38 23q-6 14 -6 47v166l-48 66q-53 72 -82 117q-44 67 -44 82z" />
    <glyph glyph-name="Z" unicode="Z" horiz-adv-x="602" 
d="M23 560q0 55 36 80.5t92 25.5h288q55 0 88 -20q41 -25 41 -78q0 -33 -56 -123q-40 -64 -106 -154l-59 -78q13 0 44.5 1t32.5 1q72 0 108 -18q50 -25 50 -91q0 -55 -38 -82q-34 -24 -90 -24h-308q-54 0 -85 22q-36 25 -36 78q0 37 54 124q37 59 104 148l62 81
q-15 0 -30 -0.5t-30 -0.5q-95 0 -131 30q-31 26 -31 78zM58 100q0 -39 28 -55q21 -12 64 -12h304q42 0 66 15q29 18 29 58q0 46 -47 66q-35 15 -101 15q-32 0 -62.5 -2.5l-54.5 -4.5q1 0 65 88q76 104 121 175q65 101 65 126q0 38 -34 53q-24 11 -66 11h-279q-45 0 -68 -13
q-31 -18 -31 -60q0 -46 44 -65q34 -15 97 -15q34 0 57 1.5t54 4.5l-67 -88q-74 -99 -120 -170q-64 -99 -64 -128zM156 520q-31 0 -44 5q-22 9 -22 35q0 25 18 32.5t48 7.5h283q27 0 38 -3q24 -7 24 -27q0 -18 -69 -122l-132 -191l-79 -111h229q31 0 48.5 -6.5t17.5 -33.5
q0 -24 -20 -33q-14 -6 -42 -6h-307q-27 0 -37 4q-19 7 -19 29q0 19 71 125l134 191l76 104h-216z" />
    <glyph glyph-name="bracketleft" unicode="[" 
d="M467 10q0 -53 -37 -79q-33 -22 -89 -22h-119q-76 0 -109.5 32.5t-33.5 109.5v565q0 77 33 109t110 32h119q56 0 88 -21q38 -27 38 -80q0 -69 -58 -90q-32 -11 -116 -11v-443q85 0 115 -10q59 -22 59 -92zM259 589q10 0 36.5 -1t28.5 -1q49 0 73 11q36 16 36 58
q0 38 -25.5 53t-66.5 15h-119q-63 0 -86.5 -22.5t-23.5 -85.5v-565q0 -64 23.5 -86.5t86.5 -22.5h119q42 0 64 13q28 16 28 55q0 42 -36 58q-26 12 -76 12q-12 0 -33.5 -1t-28.5 -1v511zM399 10q0 -22 -14.5 -28t-39.5 -6h-126q-44 0 -58.5 13.5t-14.5 58.5v571q0 45 14 58
t59 13h126q26 0 40 -5.5t14 -28.5q0 -22 -27 -30.5t-67 -8.5q-27 0 -46.5 1.5t-32.5 3.5v-578q3 0 34.5 2.5t46.5 2.5q41 0 66.5 -8t25.5 -31z" />
    <glyph glyph-name="backslash" unicode="\" horiz-adv-x="573" 
d="M473 -90q-33 0 -56 19q-17 14 -36 49q-1 2 -118.5 198t-169.5 292q-86 159 -86 197t28 65t66 27q25 0 43 -11q24 -15 48 -57l119 -198q106 -176 169 -292q87 -160 87 -198t-27.5 -64.5t-66.5 -26.5zM534 1q0 24 -87 182l-170 296l-114 194q-13 23 -24 34q-16 16 -38 16
q-24 0 -42.5 -17.5t-18.5 -40.5q0 -24 87 -182l170 -296l113 -193q13 -22 25 -34q17 -17 38 -17q23 0 42 17t19 41zM492 -16l-19 -7q-15 6 -21 12q-2 2 -13 21l-351 620l-15 35l9 17l19 8q14 -6 19 -11.5t14 -22.5l351 -619q11 -16 15 -36z" />
    <glyph glyph-name="bracketright" unicode="]" 
d="M207 555q-85 0 -114 10q-60 21 -60 91q0 53 36 77t91 24h119q76 0 110 -32t34 -109v-565q0 -76 -33 -109t-111 -33h-119q-57 0 -89 21q-38 27 -38 80q0 68 59 90q33 12 115 12v443zM67 10q0 -39 29 -55q21 -13 64 -13h119q63 0 87 23t24 86v565q0 63 -23.5 85.5
t-87.5 22.5h-119q-43 0 -64 -13q-29 -16 -29 -55q0 -41 35 -57q26 -12 75 -12q13 0 35.5 1t29.5 1v-511q-7 0 -28.5 1t-33.5 1q-53 0 -77 -11q-36 -16 -36 -59zM275 622q-19 -2 -43.5 -3.5t-36.5 -1.5q-40 0 -67 8t-27 31q0 22 14.5 28t40.5 6h126q46 0 60 -13t14 -58v-571
q0 -45 -14.5 -58.5t-59.5 -13.5h-126q-25 0 -37 5q-18 8 -18 29q0 23 26 31t67 8q27 0 47 -2t34 -3v578z" />
    <glyph glyph-name="grave" unicode="`" horiz-adv-x="337" 
d="M199 554q-31 0 -66 35q-23 25 -32 34q-18 17 -24 27q-10 16 -10 36q0 30 21 51t51 21q22 0 42 -15q8 -6 21 -19q48 -46 54 -55q15 -22 15 -43q0 -30 -21 -51t-51 -21zM248 626q0 22 -34 56l-28 26.5t-20 17.5q-13 9 -27 9q-20 0 -35 -14t-15 -35q0 -23 34 -57
q22 -19 28 -25q12 -12 23.5 -19.5t24.5 -7.5q20 0 34.5 14.5t14.5 34.5zM199 600q-13 0 -49.5 36.5t-36.5 49.5q0 11 7.5 18.5t18.5 7.5q13 0 49.5 -36.5t36.5 -49.5q0 -8 -4 -14q-8 -12 -22 -12z" />
    <glyph glyph-name="underscore" unicode="_" horiz-adv-x="658" 
d="M22 5q0 51 36 77q32 23 84 23h373q51 0 83 -23q36 -26 36 -77q0 -50 -35 -76q-32 -22 -84 -22h-373q-53 0 -84 21q-36 26 -36 77zM52 5q0 -38 28 -55q23 -13 62 -13h372q41 0 62 12q28 17 28 56q0 40 -24.5 55t-65.5 15h-372q-40 0 -62 -13q-28 -18 -28 -57zM83 5
q0 25 16 32.5t43 7.5h373q34 0 46.5 -10.5t12.5 -29.5q0 -23 -19 -32q-13 -7 -40 -7h-373q-35 0 -47 10t-12 29z" />
    <glyph glyph-name="a" unicode="a" horiz-adv-x="548" 
d="M210 103q-30 -63 -38 -75q-28 -39 -70 -39q-35 0 -62 25t-27 61q0 34 39 122q27 60 78 160l58 113q14 28 34.5 44t50.5 16q31 0 51 -15t34 -45l57 -112q59 -115 79 -160q39 -89 39 -123q0 -36 -26 -61t-62 -25q-42 0 -70 38q-9 13 -39 76h-126zM445 16q24 0 42.5 17.5
t18.5 41.5q0 25 -40 114q-30 67 -78 162l-54 107q-11 23 -23 33q-15 13 -38 13q-22 0 -36 -12t-24 -34l-124 -248q-49 -106 -49 -135q0 -24 18.5 -41.5t43.5 -17.5q39 0 68 61l23 52h160l32 -70q25 -43 60 -43zM176 156q-18 -48 -25 -61q-26 -52 -49 -52q-14 0 -24.5 9.5
t-10.5 22.5q0 15 40 103l78 165l52 104q6 15 14 22.5t22 7.5q13 0 23 -9q7 -6 15 -23.5t49 -101.5l79 -164q41 -90 41 -104t-11 -23t-25 -9q-22 0 -48 52q-23 55 -26 61h-194zM340 220l-67 142l-66 -142h133zM273 299l25 -53h-49z" />
    <glyph glyph-name="b" unicode="b" horiz-adv-x="462" 
d="M441 175q0 -92 -64 -140q-56 -42 -151 -42h-83q-61 0 -87.5 25.5t-26.5 86.5v310q0 61 26.5 86.5t87.5 25.5h70q91 0 148 -38q68 -45 68 -133q0 -44 -20 -84q16 -19 24 -44.5t8 -52.5zM402 356q0 76 -59 113q-50 31 -130 31h-70q-50 0 -68.5 -17.5t-18.5 -67.5v-310
q0 -49 19 -67t68 -18h83q83 0 131 34q57 40 57 121q0 28 -9 51.5t-29 42.5q26 38 26 87zM388 175q0 -69 -49 -101q-42 -27 -114 -27h-86q-35 0 -46 11t-11 47v310q0 38 11 48t50 10h69q73 0 112 -22q52 -29 52 -98q0 -55 -39 -85q24 -13 37.5 -38.5t13.5 -54.5zM152 287h87
q32 0 51 15t19 46q0 30 -19.5 45.5t-50.5 15.5h-87v-122zM152 111h93q32 0 51.5 15t19.5 46q0 30 -20 45.5t-51 15.5h-93v-122zM241 382q20 0 31 -7.5t11 -26.5q0 -18 -11.5 -26.5t-30.5 -8.5h-63v69h63zM247 207q19 0 30.5 -8.5t11.5 -26.5q0 -19 -11 -26.5t-31 -7.5h-69
v69h69zM205 340h39q12 0 12 8t-12 8h-39v-16zM205 164h45q12 0 12 8t-12 8h-45v-16z" />
    <glyph glyph-name="c" unicode="c" horiz-adv-x="572" 
d="M307 155q34 0 66 25q71 55 91 55q35 0 61 -26t26 -61q0 -70 -87 -122q-76 -46 -152 -46q-118 0 -202 81t-84 198t83 199t200 82q76 0 154 -47q89 -54 89 -125q0 -36 -26 -61t-62 -25q-35 0 -74 41t-83 41t-74 -31t-30 -75q0 -41 31 -72t73 -31zM307 390q52 0 94.5 -40.5
t62.5 -40.5q24 0 42.5 17.5t18.5 41.5q0 59 -81 105q-71 40 -135 40q-105 0 -180.5 -74.5t-75.5 -179.5q0 -106 76 -179t183 -73q65 0 133 38q80 45 80 103q0 24 -18 42t-43 18q-18 0 -64 -40t-93 -40q-53 0 -92 38t-39 91q0 56 37.5 94.5t93.5 38.5zM307 102
q55 0 102.5 39.5t57.5 39.5q12 0 21.5 -10.5t9.5 -22.5q0 -45 -72 -82q-64 -33 -114 -33q-96 0 -164.5 65.5t-68.5 160.5q0 94 68 161t162 67q53 0 116 -33q74 -39 74 -87q0 -13 -10.5 -22.5t-23.5 -9.5q-6 0 -53 41t-101 41q-69 0 -115 -45t-46 -115q0 -65 46 -110t111 -45
z" />
    <glyph glyph-name="d" unicode="d" horiz-adv-x="548" 
d="M145 -7q-61 0 -87.5 25.5t-26.5 86.5v310q0 61 26.5 86.5t87.5 25.5h94q119 0 200.5 -74.5t81.5 -191.5q0 -128 -89 -201q-82 -67 -213 -67h-74zM145 500q-50 0 -68.5 -17.5t-18.5 -67.5v-310q0 -49 19 -67t68 -18h74q119 0 193 59q83 66 83 182q0 107 -74 173t-182 66
h-94zM84 105v310q0 38 11 48t50 10h94q97 0 163 -58t66 -154q0 -103 -73 -161q-67 -53 -171 -53h-79q-39 0 -50 9.5t-11 48.5zM154 104h81q70 0 117 43t47 113t-48 113t-119 43h-78v-312zM231 389q60 0 100.5 -34.5t40.5 -94.5q0 -59 -39 -94t-98 -35h-55v258h51zM207 157
h28q49 0 80 27t31 76t-32.5 76t-82.5 27h-24v-206z" />
    <glyph glyph-name="e" unicode="e" horiz-adv-x="425" 
d="M405 79q0 -43 -31 -66q-27 -20 -72 -20h-165q-58 0 -84.5 25.5t-26.5 83.5v317q0 108 110 108h166q46 0 74.5 -20.5t28.5 -65.5q0 -52 -42 -72q-31 -15 -90 -15q-14 0 -38 1t-33 1v-16h25.5t27.5 1q67 0 93 -23q21 -19 21 -58t-23 -58q-27 -23 -100 -23h-23t-21 1v-16
q12 0 41 1t30 1q77 0 107 -25q25 -21 25 -62zM175 207q12 0 40.5 -1.5t32.5 -1.5q42 0 64 10q30 13 30 46t-25.5 44.5t-68.5 11.5q-22 0 -39.5 -1l-33.5 -2v69q11 0 43.5 -2.5t44.5 -2.5q52 0 78 11q37 16 37 53q0 34 -21.5 46.5t-57.5 12.5h-159q-50 0 -68.5 -17.5
t-18.5 -67.5v-310q0 -49 19 -67t68 -18h163q35 0 52 11q23 15 23 48q0 36 -36 52q-28 12 -79 12q-24 0 -47 -2t-41 -3v69zM299 111q24 0 38 -5.5t14 -26.5q0 -20 -13.5 -26t-35.5 -6h-165q-35 0 -46.5 10.5t-11.5 45.5v315q0 35 11 45t47 10h165q24 0 36.5 -5.5t12.5 -26.5
q0 -20 -14.5 -26t-37.5 -6h-150v-122h120q23 0 35 -4.5t12 -22.5t-13 -22.5t-34 -4.5h-120v-122h150z" />
    <glyph glyph-name="g" unicode="g" horiz-adv-x="552" 
d="M333 157q-35 0 -59.5 23.5t-24.5 58.5q0 43 28.5 62.5t73.5 19.5h76q57 0 78.5 -22.5t21.5 -79.5v-86q0 -84 -68 -122q-54 -30 -146 -30q-122 0 -205.5 79.5t-83.5 200.5q0 116 82.5 197.5t200.5 81.5q61 0 109 -24q61 -31 61 -87q0 -35 -22.5 -60.5t-58.5 -25.5
q-17 0 -47.5 10.5t-45.5 10.5q-42 0 -73 -31t-31 -74q0 -47 34 -76.5t82 -29.5q10 0 28 4h-10zM383 141q-33 -14 -68 -14q-59 0 -100.5 37t-41.5 95q0 54 38 93t92 39q16 0 58 -14q21 -7 35 -7q23 0 39 18t16 41q0 44 -53 67q-40 17 -91 17q-107 0 -181.5 -72.5
t-74.5 -179.5q0 -109 75.5 -181.5t186.5 -72.5q81 0 126 23q61 31 61 103v86q0 45 -14.5 60.5t-58.5 15.5h-76q-33 0 -54.5 -12.5t-21.5 -43.5q0 -41 38 -52q17 -5 70 -5v-41zM302 238q0 23 16 26.5t33 3.5h76q16 0 38 -5q6 -9 7.5 -20t1.5 -20v-90q0 -58 -53 -82
q-38 -17 -108 -17q-100 0 -167.5 63.5t-67.5 163.5q0 95 67 160t162 65q39 0 71 -11q46 -16 46 -47q0 -13 -7.5 -22t-20.5 -9q-14 0 -33 6q-47 15 -60 15q-64 0 -110.5 -47.5t-46.5 -111.5q0 -68 49.5 -113.5t119.5 -45.5q48 0 95 22v86q-2 0 -17 -1t-26 -1q-28 0 -46.5 7
t-18.5 25z" />
    <glyph glyph-name="h" unicode="h" horiz-adv-x="539" 
d="M215 185v-30.5t1 -32.5q0 -78 -25 -107q-21 -25 -64 -25q-45 0 -66.5 29t-21.5 76v330q0 46 21.5 76t66.5 30q54 0 74 -40q15 -29 15 -88q0 -15 -0.5 -29.5t-0.5 -28.5h107q0 13 -0.5 27.5t-0.5 30.5q0 75 25 104q21 24 63 24q46 0 69 -31q20 -27 20 -75v-329
q0 -46 -20 -74q-23 -32 -69 -32q-52 0 -73 41q-15 30 -15 89v33t1 32h-107zM409 16q35 0 50 25q12 20 12 58v322q0 38 -11 57q-15 26 -51 26q-37 0 -53 -33q-12 -25 -12 -74q0 -17 2 -44t2 -34h-160q0 6 2 34t2 46q0 49 -11 72q-16 33 -54 33q-34 0 -47.5 -22.5t-13.5 -60.5
v-325q0 -35 13.5 -57.5t47.5 -22.5q37 0 53 35q12 27 12 76q0 18 -1.5 39.5t-2.5 45.5h160q0 -6 -2 -35t-2 -48q0 -52 11 -77q16 -36 54 -36zM162 238v-139q0 -25 -5 -37q-8 -19 -30 -19q-21 0 -28 14t-7 38v330q0 29 9.5 40.5t25.5 11.5q22 0 30 -18q5 -12 5 -38v-129h213
v129q0 27 5.5 41.5t28.5 14.5q21 0 28 -14t7 -38v-330q0 -24 -5 -35q-8 -17 -30 -17q-25 0 -29.5 20t-4.5 36v139h-213z" />
    <glyph glyph-name="i" unicode="i" horiz-adv-x="259" 
d="M130 -10q-45 0 -66.5 29t-21.5 76v330q0 46 21.5 76t66.5 30t68 -32q20 -28 20 -74l-1 -329q0 -47 -19 -74q-22 -32 -68 -32zM130 16q34 0 49 24q12 19 12 56v328q0 35 -12 55q-15 25 -49 25q-35 0 -48.5 -21.5t-13.5 -58.5v-328q0 -35 13.5 -57.5t48.5 -22.5zM130 43
q-22 0 -28.5 14t-6.5 39v328q0 25 6.5 39t28.5 14q21 0 29 -17q5 -11 5 -36v-328q0 -25 -5 -36q-8 -17 -29 -17z" />
    <glyph glyph-name="j" unicode="j" horiz-adv-x="466" 
d="M430 420v-210q0 -103 -52 -163q-56 -65 -158 -65q-105 0 -159 67q-50 62 -50 166q0 48 18 75q22 33 69 33q75 0 86 -84t36 -84q3 0 9 2t11 4q9 10 13 30.5t4 47.5q0 21 -3 71t-3 75q0 69 16 102q21 43 75 43q47 0 69 -33q19 -28 19 -77zM342 503q-38 0 -51.5 -29.5
t-13.5 -85.5q0 -23 3 -73t3 -74q0 -55 -11 -80q-14 -33 -52 -33q-54 0 -60 84t-62 84q-34 0 -47.5 -21.5t-13.5 -58.5q0 -95 42 -148q47 -59 141 -59q92 0 139 57q44 53 44 144v210q0 38 -11 57q-15 26 -50 26zM377 420v-209q0 -81 -36 -126q-40 -50 -121 -50q-82 0 -121 51
q-35 45 -35 130q0 24 6.5 39t27.5 15q28 0 38 -84.5t84 -84.5q53 0 74 46q16 35 16 108q0 36 -2 67t-4 75q0 40 8 60t30 20t30 -18q5 -12 5 -39z" />
    <glyph glyph-name="k" unicode="k" horiz-adv-x="481" 
d="M363 531q35 0 61 -26t26 -62q0 -39 -57 -100q-65 -61 -78 -75l85 -80q67 -69 67 -109q0 -38 -24.5 -63.5t-62.5 -25.5q-47 0 -118 78l-51 59q0 -65 -11 -92q-19 -45 -76 -45q-45 0 -66.5 29t-21.5 76v330q0 46 21.5 76t66.5 30q51 0 71 -38q16 -30 16 -84l66 73
q50 49 86 49zM124 504q-35 0 -48.5 -22.5t-13.5 -60.5v-325q0 -36 12 -55q16 -25 50 -25q37 0 52 34q12 26 12 72q0 22 -1 39.5l-2 33.5l110 -125q56 -54 86 -54q26 0 43 18t17 44q0 34 -78 112q-81 74 -85 78l101 100q44 51 44 75t-17.5 42.5t-41.5 18.5q-33 0 -105 -77
l-74 -85q0 10 1 35.5t1 27.5q0 58 -16.5 78.5t-46.5 20.5zM363 477q8 0 16.5 -5t12.5 -12l5 -17q-9 -33 -72 -95l-84 -80l88 -84q85 -85 85 -106q0 -15 -9.5 -25.5t-23.5 -10.5q-20 0 -85 66l-138 154v-163q0 -25 -5 -37q-8 -19 -29 -19t-28 15t-7 38v328q0 25 6.5 39
t28.5 14q25 0 31 -26q3 -14 3 -30v-147l94 108q79 86 111 95z" />
    <glyph glyph-name="l" unicode="l" horiz-adv-x="427" 
d="M412 79q0 -44 -31 -66q-27 -19 -72 -19h-164q-58 0 -84.5 25.5t-26.5 82.5v323q0 46 21.5 76t66.5 30q47 0 69 -33q19 -28 19 -76v-257q11 0 39.5 1t29.5 1q61 0 90 -14q43 -21 43 -74zM183 422q0 38 -11 57q-14 25 -50 25q-34 0 -47.5 -23t-13.5 -59v-319
q0 -46 18.5 -64.5t65.5 -18.5h164q35 0 53 11q23 14 23 48q0 36 -36 52q-27 12 -77 12q-25 0 -48 -2t-41 -3v284zM306 111q25 0 39 -5.5t14 -26.5q0 -20 -14 -26t-36 -6h-164q-35 0 -46.5 10.5t-11.5 45.5v322q0 25 6.5 39t28.5 14q17 0 26 -11.5t9 -44.5v-311h149z" />
    <glyph glyph-name="m" unicode="m" horiz-adv-x="684" 
d="M509 531q48 0 72 -34q18 -25 27 -78.5t25 -126.5q31 -145 31 -216q0 -37 -25.5 -61.5t-62.5 -24.5q-57 0 -80 60q-6 16 -22 109l-44 -105q-35 -64 -87 -64q-59 0 -99 90q-23 58 -32 79q-17 -96 -21 -108q-23 -61 -81 -61q-36 0 -62 25t-26 62q0 67 21 171l35 171
q9 53 27 78q24 34 73 34q60 0 109 -98l56 -139l56 138q50 99 110 99zM250 437q-16 36 -25 46q-18 21 -47 21q-36 0 -54 -28q-12 -19 -19 -61l-52 -303q-3 -15 -3.5 -19.5t-0.5 -15.5q0 -27 17 -44t44 -17q53 0 75 105q13 114 16 130l67 -165q39 -69 75 -69q46 0 95 109
q43 115 47 125l25 -169q22 -66 66 -66q25 0 43 17t18 43l-3 36l-52 303q-8 43 -19 61q-17 28 -55 28q-27 0 -45 -21q-13 -15 -26 -46l-94 -208zM461 426q11 27 16 33q13 18 32 18q25 0 35 -22q5 -11 11 -45l52 -302q1 -8 2.5 -15t1.5 -17q0 -15 -10 -24t-25 -9
q-18 0 -25.5 14t-10.5 36l-43 250l-109 -248q-12 -26 -16 -33q-13 -20 -29 -20q-15 0 -28 19q-6 8 -17 34l-109 248l-42 -250q-4 -24 -9 -33q-9 -17 -28 -17q-15 0 -24.5 9.5t-9.5 24.5l3 31l52 302q6 33 11 44q11 23 36 23q21 0 35 -25q4 -7 12 -26l118 -262z" />
    <glyph glyph-name="n" unicode="n" horiz-adv-x="555" 
d="M127 -10q-45 0 -66.5 29t-21.5 76v329q0 47 22.5 77t67.5 30q49 0 125 -94q73 -102 84 -116q0 12 -1 41.5t-1 31.5q0 81 25 111q22 26 65 26q45 0 68 -32q20 -28 20 -74v-330q0 -46 -19 -73q-22 -32 -68 -32q-48 0 -127 96l-85 116q0 -9 1 -35t1 -41q0 -62 -15 -93
q-21 -43 -75 -43zM371 52q12 -14 17 -19q18 -17 39 -17q35 0 49 25q11 20 11 58v322q0 37 -11 57q-15 26 -50 26t-48 -23t-13 -60v-176l-176 219q-21 26 -33 33t-28 7q-35 0 -48.5 -23t-13.5 -60v-322q0 -38 11 -57q15 -26 50 -26q34 0 49 25q12 21 12 58v178zM162 99
q0 -28 -4 -38q-7 -18 -31 -18q-21 0 -28 14.5t-7 37.5v329q0 23 7.5 38t28.5 15q17 0 82 -75q47 -55 114 -143l67 -89v251q0 25 6.5 40.5t28.5 15.5q21 0 28 -14t7 -38v-329q0 -25 -4 -35q-8 -18 -29 -18q-17 0 -81 74q-51 59 -115 143l-70 93v-254z" />
    <glyph glyph-name="o" unicode="o" horiz-adv-x="610" 
d="M583 260q0 -116 -81.5 -197.5t-197.5 -81.5q-114 0 -196 82t-82 197t81 197t197 82q115 0 197 -82t82 -197zM53 260q0 -105 73.5 -178.5t177.5 -73.5t178 74t74 178q0 105 -73.5 178.5t-178.5 73.5q-103 0 -177 -74t-74 -178zM530 260q0 -93 -66 -159t-160 -66
q-93 0 -159 66t-66 159t66 159t159 66q92 0 159 -66t67 -159zM149 260q0 -65 45.5 -110.5t109.5 -45.5q65 0 111 45t46 111q0 64 -46 110t-111 46t-110 -45t-45 -111zM434 260q0 -53 -38 -91t-92 -38q-53 0 -91 38t-38 91t37.5 91.5t91.5 38.5t92 -38t38 -92zM202 260
q0 -41 30 -72t72 -31q43 0 73 30t30 73q0 42 -30.5 72.5t-72.5 30.5t-72 -30t-30 -73z" />
    <glyph glyph-name="p" unicode="p" horiz-adv-x="464" 
d="M125 -11q-46 0 -66.5 30.5t-20.5 78.5v316q0 61 26.5 86.5t87.5 25.5h80q91 0 151.5 -53t60.5 -143q0 -98 -69 -150q-61 -46 -162 -46q0 -70 -10 -96q-19 -49 -78 -49zM417 330q0 77 -51.5 123.5t-129.5 46.5h-89q-47 0 -65 -19t-18 -67v-316q0 -37 11 -56q15 -26 50 -26
q37 0 52 30q11 23 11 66q0 13 -0.5 25t-0.5 23q105 0 158 30q72 41 72 140zM125 42q-25 0 -29.5 20t-4.5 36v316q0 38 11.5 48.5t49.5 10.5h84q68 0 111.5 -38t43.5 -105q0 -95 -76 -125q-45 -18 -155 -18q0 -2 2 -25t2 -40q0 -36 -8 -58t-31 -22zM231 246q45 0 70.5 20
t25.5 64q0 42 -27 62t-70 20h-70v-166h71zM187 385h43q32 0 51 -12.5t19 -42.5q0 -32 -20 -46q-16 -11 -49 -11h-44v112zM233 299q22 0 31 5t9 26q0 18 -10.5 23.5t-30.5 5.5h-19v-60h20z" />
    <glyph glyph-name="q" unicode="q" horiz-adv-x="613" 
d="M591 69q0 -35 -25.5 -61.5t-61.5 -26.5q-20 0 -37.5 8.5t-30.5 23.5q-29 -16 -61.5 -24t-67.5 -8q-114 0 -196 82t-82 197t81 197t197 82q115 0 197 -82t82 -198q0 -21 -8 -47q-20 -65 -20 -73q7 -7 10 -11q23 -29 23 -59zM559 262q0 102 -74 176t-178 74t-178 -74
t-74 -178t74 -178t177 -74q34 0 68 9.5t66 27.5q19 -19 28 -25q18 -12 36 -12q24 0 42 18t18 43q0 21 -18 43q-8 10 -20 22q17 27 25 60.5t8 67.5zM538 69q0 -14 -10 -24t-24 -10q-11 0 -25 11q-4 3 -36 35q-25 -21 -64 -33.5t-74 -12.5q-93 0 -158 66t-65 159t66 159
t159 66q92 0 158.5 -65.5t66.5 -156.5q0 -37 -9.5 -72.5t-30.5 -61.5q24 -22 35 -36t11 -24zM151 260q0 -65 45.5 -110.5t110.5 -45.5t110.5 45.5t45.5 110.5t-45.5 110.5t-110.5 45.5t-110.5 -45.5t-45.5 -110.5zM436 260q0 -53 -38 -91t-91 -38t-91 38t-38 91t37.5 91.5
t91.5 38.5q53 0 91 -38t38 -92zM205 260q0 -41 30 -72t72 -31t72.5 30.5t30.5 72.5t-30.5 72.5t-72.5 30.5t-72 -30t-30 -73z" />
    <glyph glyph-name="r" unicode="r" horiz-adv-x="480" 
d="M433 76q0 -37 -24.5 -62.5t-61.5 -25.5q-46 0 -91 63l-38 57q0 -55 -15 -82q-21 -37 -72 -37q-47 0 -67.5 30.5t-20.5 78.5v316q0 62 26 87t88 25h71q93 0 155 -50q67 -54 67 -147q0 -43 -18.5 -81.5t-52.5 -67.5q17 -24 35 -47q19 -30 19 -57zM424 329q0 82 -59 128
q-54 42 -138 42h-70q-51 0 -69.5 -17.5t-18.5 -67.5v-316q0 -38 11 -57q15 -26 51 -26q38 0 52 31q10 22 10 67q0 13 -0.5 25t-0.5 24h22l52 -83q46 -64 81 -64q25 0 42 18t17 43q0 21 -26 60l-38 52q38 20 60 58.5t22 82.5zM131 42q-17 0 -26 11.5t-9 44.5v316
q0 38 11.5 48.5t49.5 10.5h69q73 0 119 -34q52 -39 52 -110q0 -46 -25 -79.5t-70 -52.5l55 -75q23 -35 23 -46q0 -13 -9.5 -23.5t-22.5 -10.5q-23 0 -71 70q-46 73 -49 77h-63q0 -2 2 -25t2 -41q0 -35 -8 -58t-30 -23zM165 248h71q41 0 67.5 21t26.5 61q0 42 -28 63t-72 21
h-65v-166zM192 387h38q35 0 54.5 -12.5t19.5 -44.5q0 -31 -22 -45q-18 -11 -51 -11h-39v113zM233 301q21 0 32.5 5t11.5 24t-12 24.5t-35 5.5h-12v-59h15z" />
    <glyph glyph-name="s" unicode="s" horiz-adv-x="453" 
d="M335 338q-23 0 -55 18q-38 21 -53 25l-11 -9l4 -9l140 -66q69 -44 69 -133q0 -82 -58.5 -132t-142.5 -50q-72 0 -128 32q-68 39 -68 106q0 32 24 55t57 23q23 0 46 -15q65 -43 71 -45l17 5l6 11l-6 11l-135 65q-66 43 -66 131q0 80 53.5 128.5t134.5 48.5q62 0 115 -28
q65 -34 65 -91q0 -33 -23 -57t-56 -24zM234 514q-70 0 -115.5 -41.5t-45.5 -111.5q0 -91 103.5 -136.5t103.5 -68.5q0 -18 -15 -29t-35 -11q-28 0 -62 28t-54 28q-22 0 -38.5 -15.5t-16.5 -37.5q0 -52 60 -84q51 -27 108 -27q73 0 122 41q53 44 53 115q0 91 -106.5 137.5
t-106.5 69.5q0 15 12 25t26 10q20 0 55 -20.5t53 -20.5q22 0 37 16t15 38q0 45 -56 72q-48 23 -97 23zM234 488q37 0 76 -16q50 -20 50 -52q0 -27 -25 -27q-10 0 -61 26q-28 14 -46 14q-26 0 -46 -17t-20 -44q0 -45 106.5 -88t106.5 -120q0 -60 -43 -95t-105 -35
q-46 0 -88 19q-54 25 -54 65q0 12 8 20t21 8q6 0 40 -28t74 -28q31 0 54 19t23 49q0 44 -102.5 85t-102.5 117q0 60 37 94t97 34z" />
    <glyph glyph-name="t" unicode="t" horiz-adv-x="479" 
d="M22 441q0 44 28 64.5t74 20.5h238q44 0 73 -20.5t29 -64.5q0 -55 -43 -74q-27 -12 -90 -12v-257q0 -48 -19 -76q-22 -33 -69 -33t-67.5 30.5t-20.5 78.5v257q-64 0 -90 11q-43 19 -43 75zM182 98q0 -37 11 -56q15 -26 50 -26t48 23t13 59v284q10 0 21 -0.5t23 -0.5
q41 0 61 10q28 14 28 50q0 32 -21 45.5t-55 13.5h-237q-35 0 -55.5 -12.5t-20.5 -46.5q0 -36 29 -50q21 -10 61 -10h22t22 1v-284zM75 441q0 16 10 24t39 8h238q22 0 35.5 -6t13.5 -26t-20.5 -28t-51.5 -8q-15 0 -37 2t-24 2v-311q0 -25 -5 -37q-8 -19 -30 -19
q-17 0 -26 11.5t-9 44.5v311q-6 0 -30 -1.5t-29 -1.5q-33 0 -50 6q-24 9 -24 29z" />
    <glyph glyph-name="u" unicode="u" horiz-adv-x="525" 
d="M489 240q0 -117 -50 -183q-57 -76 -173 -76q-115 0 -172 76q-51 68 -51 184v179q0 49 18 76q22 34 70 34q55 0 76 -47q16 -36 16 -109q0 -23 -1.5 -56t-2.5 -72q0 -47 9.5 -70.5t37.5 -23.5t38 26.5t10 75.5q0 20 -2 71.5t-2 57.5q0 70 16 103q21 44 75 44q46 0 69 -33
q19 -28 19 -77v-180zM266 126q-44 0 -59.5 34.5t-15.5 95.5q0 30 2.5 78t2.5 54q0 56 -11 81q-15 34 -54 34q-36 0 -48.5 -22t-12.5 -61l-1 -175q0 -108 42 -167q49 -70 155 -70t155 70q42 59 42 167l-1 175q0 37 -11 57q-15 26 -50 26t-48 -23t-13 -60v-174q0 -55 -10 -79
q-17 -41 -64 -41zM436 240q0 -93 -36 -144q-43 -61 -134 -61q-90 0 -133 60q-37 52 -37 145v180q0 25 6.5 40.5t28.5 15.5t29.5 -23t7.5 -67q0 -18 -2 -67.5t-2 -55.5q0 -76 18 -114q24 -50 84 -50t84 51q18 39 18 116q0 23 -1.5 55t-2.5 71q0 43 7.5 63.5t29.5 20.5t30 -18
q5 -12 5 -38v-180z" />
    <glyph glyph-name="v" unicode="v" horiz-adv-x="552" 
d="M363 468q13 30 32 45q23 18 53 18q36 0 63 -25t27 -61q0 -31 -39 -120q-24 -54 -78.5 -160.5t-58.5 -115.5q-13 -29 -33 -44t-51 -15q-32 0 -51.5 14.5t-33.5 44.5l-99 194q-77 157 -77 203q0 35 27 60t63 25q29 0 50.5 -17t34.5 -46l86 -200zM168 457q-9 21 -24.5 34
t-36.5 13q-26 0 -45 -17t-19 -42q0 -23 39 -110q28 -62 78 -162l57 -113q10 -22 24 -33t37 -11q22 0 36.5 11.5t23.5 32.5l96 193q78 162 78 192q0 25 -19 42t-44 17q-21 0 -36.5 -12.5t-24.5 -34.5l-110 -257zM412 447q5 11 9 16q11 14 27 14q37 0 37 -32q0 -18 -79 -184
l-93 -192q-7 -13 -14.5 -20t-20.5 -7q-12 0 -21 7t-14.5 19t-52.5 109l-79 166q-41 90 -41 102q0 14 11 23t26 9q12 0 21 -8.5t15 -21.5l135 -315z" />
    <glyph glyph-name="w" unicode="w" horiz-adv-x="765" 
d="M663 531q35 0 61.5 -24.5t26.5 -59.5q0 -60 -50 -184l-75 -175q-19 -53 -30 -68q-22 -30 -65 -30q-65 0 -113 130l-33 96l-48 -133q-43 -93 -99 -93q-51 0 -74 44q-6 12 -25 54l-71 175q-51 126 -51 182q0 37 26.5 61.5t62.5 24.5q67 0 107 -112l29 -90l44 126
q37 76 99 76q60 0 97 -76l44 -126l43 123q37 79 94 79zM385 504q-54 0 -99 -113q-37 -122 -43 -137l-61 179q-36 71 -76 71q-26 0 -44 -16t-18 -41q0 -53 50 -177l73 -173q19 -50 22 -54q17 -27 49 -27q45 0 99 133l48 140l45 -140q53 -133 102 -133q30 0 47 27q6 9 22 54
q46 105 73 172q51 125 51 178q0 25 -19 41t-44 16q-48 0 -93 -115q-38 -122 -43 -135l-42 137q-44 113 -99 113zM642 470l21 7l25 -9l11 -22q-8 -59 -58 -191q-46 -122 -88 -204q-11 -5 -22 -9q-17 0 -31 27q-13 32 -17 41l-98 252l-99 -252q-17 -45 -21 -50
q-10 -14 -27 -18l-21 9q-37 68 -87 202.5t-60 191.5l11 23l25 9l22 -8q32 -51 64 -142l52 -149l91 246q13 35 22.5 44.5t27.5 9.5q20 0 33 -18q5 -8 16 -36l92 -246q3 8 37 111q40 122 79 181z" />
    <glyph glyph-name="x" unicode="x" horiz-adv-x="499" 
d="M386 532q35 0 61.5 -25.5t26.5 -61.5q0 -35 -47 -99l-65 -80l68 -84q53 -71 53 -107t-26.5 -61.5t-61.5 -25.5q-49 0 -101 71l-42 61l-58 -81q-43 -51 -84 -51q-36 0 -62.5 25.5t-26.5 61.5q0 35 53 106l68 85l-64 79q-48 65 -48 100q0 36 26.5 61.5t61.5 25.5
q47 0 94 -63l40 -57l55 75q40 45 79 45zM118 505q-25 0 -43.5 -17.5t-18.5 -42.5q0 -28 55 -101l64 -78l-67 -82q-61 -80 -61 -109q0 -24 19 -42t44 -18q34 0 85 66q49 73 57 83l78 -106q39 -43 65 -43q25 0 43.5 17.5t18.5 42.5q0 29 -60 108q-63 76 -68 83l63 78
q56 74 56 101q0 25 -18.5 42.5t-43.5 17.5q-31 0 -79 -60l-55 -77l-54 77q-47 60 -80 60zM346 447q10 13 17 20q12 12 23 12q13 0 24 -10t11 -24q0 -18 -63 -100l-63 -79q13 -13 68 -85q67 -88 67 -106q0 -14 -10 -24t-25 -10q-23 0 -85 84l-58 84l-103 -136
q-10 -13 -17 -20q-12 -12 -23 -12q-13 0 -24 10t-11 24q0 18 67 106q22 29 68 85q-14 14 -64 79q-62 81 -62 100q0 14 10 24t25 10q22 0 74 -70l60 -86z" />
    <glyph glyph-name="y" unicode="y" horiz-adv-x="487" 
d="M19 444q0 35 27 61t62 26q50 0 101 -75l40 -63l53 86q39 52 83 52q35 0 62 -26t27 -61q0 -38 -63 -128l-76 -101q0 -17 1.5 -49t1.5 -34q0 -64 -15 -96q-22 -46 -76 -46t-75 44q-16 33 -16 96q0 24 1 44.5l2 40.5l-100 136q-40 63 -40 93zM247 16q37 0 53 37q13 30 13 80
q0 25 -2 48.5t-3 42.5l96 132q43 66 43 88q0 25 -18.5 42.5t-43.5 17.5q-35 0 -83 -69q-45 -76 -53 -88l-75 113q-37 44 -66 44q-25 0 -43.5 -17.5t-18.5 -42.5q0 -27 68 -124l71 -96q0 -14 -1 -26q-4 -49 -4 -64q0 -53 12 -81q16 -37 55 -37zM73 444q0 14 10.5 23.5
t24.5 9.5q23 0 84 -86q29 -41 59 -91l75 123q39 54 59 54q15 0 25.5 -9.5t10.5 -23.5t-42 -76l-98 -136v-133q0 -27 -4 -37q-7 -19 -30 -19q-22 0 -28.5 15t-6.5 41v133l-71 99q-68 97 -68 113z" />
    <glyph glyph-name="z" unicode="z" horiz-adv-x="482" 
d="M19 441q0 43 29 64.5t74 21.5h230q44 0 70 -16q33 -20 33 -63q0 -27 -45 -99q-32 -52 -85 -123l-47 -62h30t33 1q73 0 101 -24q24 -21 24 -62q0 -44 -28.5 -65t-73.5 -21h-246q-45 0 -69 17q-29 20 -29 63q0 31 43 100q31 50 83 118l51 65q-14 0 -28 -0.5t-29 -0.5
q-71 0 -98 25q-23 21 -23 61zM47 73q0 -30 23 -43q18 -10 51 -10h243q35 0 53 11q23 14 23 48q0 37 -33 50.5t-86 13.5q-28 0 -51.5 -2t-42.5 -3q1 0 50.5 68.5l97.5 141.5q53 82 53 100q0 29 -22.5 40.5t-53.5 11.5h-230q-36 0 -53 -11q-23 -15 -23 -48q0 -36 36 -52
q28 -12 78 -12q25 0 47 1.5t40 3.5q-14 -17 -53 -70q-63 -85 -96 -136q-51 -79 -51 -103zM125 409q-24 0 -35 4q-18 7 -18 28q0 25 16 28.5t34 3.5h230q27 0 38 -5.5t11 -18.5q0 -14 -55 -97l-106 -153l-63 -88h183q25 0 39 -5.5t14 -26.5q0 -16 -10 -24t-39 -8h-246
q-19 0 -31.5 5t-12.5 21q0 14 57 100l107 153l60 83h-173z" />
    <glyph glyph-name="exclamdown" unicode="&#xa1;" horiz-adv-x="327" 
d="M163 311q58 0 86 -41q24 -35 24 -95v-183q0 -57 -25 -92q-29 -40 -85 -40q-57 0 -83.5 37t-26.5 95v187q0 57 25 92q29 40 85 40zM56 445q0 44 31 76t76 32t76.5 -31.5t31.5 -76.5q0 -44 -31.5 -75.5t-76.5 -31.5t-76 31t-31 76zM163 278q-41 0 -61 -31q-16 -25 -16 -69
v-184q0 -45 15 -70q19 -31 62 -31t62 31q15 24 15 69v185q0 45 -15 69q-19 31 -62 31zM238 445q0 30 -22 52t-53 22t-52.5 -21.5t-21.5 -52.5t21.5 -52.5t52.5 -21.5t53 21t22 53zM120 175q0 34 5 46q9 23 38 23t38 -22q6 -14 6 -47v-178q0 -33 -6 -47q-10 -23 -38 -23
t-35.5 19t-7.5 51v178zM122 445q0 17 12 29t29 12q18 0 29.5 -11.5t11.5 -29.5q0 -17 -12 -29t-29 -12t-29 12t-12 29z" />
    <glyph glyph-name="cent" unicode="&#xa2;" horiz-adv-x="563" 
d="M311 671q35 0 61.5 -20.5t34.5 -54.5q55 -15 87 -41q43 -35 43 -84q0 -36 -24.5 -63.5t-60.5 -27.5q-18 0 -80 29q-30 14 -51 14q-36 0 -61 -25t-25 -61q0 -35 24.5 -61.5t59.5 -26.5q26 0 54 14q66 33 81 33q34 0 58.5 -25.5t24.5 -60.5q0 -45 -43 -82q-32 -27 -85 -46
q-6 -39 -33 -63t-65 -24t-65.5 23t-32.5 61q-80 28 -130 100t-50 157q0 84 50 154t130 98q7 37 33.5 60t64.5 23zM66 336q0 -82 49.5 -147t128.5 -85q0 -33 17 -54.5t50 -21.5q32 0 49 22t17 56q45 12 79 35q47 32 47 68q0 21 -14 37t-35 16q-13 0 -57 -23t-77 -23
q-49 0 -84 36t-35 84q0 51 35 85t85 34q32 0 75 -20.5t56 -20.5q23 0 37.5 17.5t14.5 41.5q0 39 -39 64l-89 32q-10 33 -15 46q-10 23 -50 23q-32 0 -49.5 -20.5t-17.5 -53.5q-79 -21 -128.5 -83.5t-49.5 -144.5zM310 605q22 0 29 -22q4 -13 4 -42q42 -4 76 -17
q52 -20 52 -51l-7 -18l-14 -7q-16 5 -48 18q-49 21 -82 21q-64 0 -108.5 -43.5t-44.5 -107.5q0 -63 44.5 -107.5t107.5 -44.5q37 0 84 23q37 18 50 22l12 -6q5 -8 5 -13q0 -27 -50 -52q-39 -19 -77 -26v-14q0 -27 -4 -37q-7 -19 -29 -19q-25 0 -29.5 19.5t-4.5 35.5v14
q-78 11 -127 68.5t-49 136.5q0 64 49 130q53 72 115 72h12q0 32 3 43q7 24 31 24z" />
    <glyph glyph-name="sterling" unicode="&#xa3;" horiz-adv-x="609" 
d="M33 316q0 31 16 53.5t45 31.5q-3 16 -4.5 30t-1.5 27q0 97 70.5 160t169.5 63q83 0 161 -53q87 -59 87 -139q0 -43 -30.5 -73.5t-73.5 -30.5t-83 42t-58 42q-23 0 -23 -28q0 -14 2 -22.5t2 -12.5q40 0 65.5 -24.5t25.5 -65.5q0 -36 -23 -60t-60 -28l-4 -20q14 0 50 1
t37 1q74 0 110 -17q52 -25 52 -89q0 -54 -39 -81q-34 -23 -90 -23h-251q-54 0 -83 16q-38 21 -38 70q0 32 18 91q8 27 17 54q-30 9 -48 31.5t-18 53.5zM98 86q0 -33 29 -45q19 -8 58 -8h251q43 0 66 13q30 17 30 58q0 44 -45 63q-34 14 -99 14q-27 0 -68 -3t-47 -3
q3 11 8.5 38.5l8.5 43.5l1 3q33 -3 55.5 10t22.5 46q0 49 -47 50t-47 74q0 27 14.5 44.5t41.5 17.5q31 0 57 -26q59 -58 84 -58q29 0 49.5 20.5t20.5 50.5q0 66 -77 115q-69 44 -138 44q-84 0 -144.5 -53.5t-60.5 -136.5q0 -14 7 -53q4 -22 4 -32q-66 0 -66 -57
q0 -30 18 -43t49 -13l3 -2q0 -30 -19.5 -87.5t-19.5 -84.5zM109 298l-9 18q0 10 9 19q9 3 23.5 4t27.5 1h18q-4 22 -10 43q-13 50 -13 73q0 71 50 115t123 44q54 0 113 -35q68 -40 68 -91q0 -15 -10 -26t-25 -11q-16 0 -57 42t-86 42q-39 0 -64.5 -26.5t-25.5 -65.5
q0 -27 4 -48t15 -56q16 0 34 -0.5t33 -4.5q9 -7 9 -19q0 -9 -9 -18q-16 -4 -38 -4.5t-30 -0.5q0 -37 -8 -76q-4 -17 -20 -75h205q29 0 46 -6.5t17 -31.5q0 -18 -13 -27.5t-50 -9.5h-251q-24 0 -43 4l-10 15l44 207h-18q-13 0 -25 1t-24 4z" />
    <glyph glyph-name="Adieresis" unicode="&#xc4;" horiz-adv-x="687" 
d="M265 137q-38 -80 -48 -94q-35 -48 -88 -48q-45 0 -77.5 31.5t-32.5 75.5q0 41 49 153q36 82 97 201l72 140q17 34 43.5 55t62.5 21q38 0 63.5 -20t42.5 -56q2 -5 72 -140q65 -126 98 -201q49 -111 49 -153q0 -44 -32.5 -75.5t-77.5 -31.5q-54 0 -88 47q-10 14 -48 95
h-157zM558 28q30 0 53.5 21.5t23.5 52.5q0 32 -50 143q-39 88 -98 203l-68 133q-13 29 -29 42q-19 16 -47 16q-27 0 -44.5 -15t-30.5 -43q-9 -19 -68 -134q-68 -132 -98 -200q-50 -112 -50 -145q0 -31 22.5 -52.5t54.5 -21.5t59 33q10 12 55 109h200l40 -88q32 -54 75 -54z
M222 203l-45 -100q-25 -41 -48 -41q-17 0 -30.5 11.5t-13.5 28.5q0 20 62 154l151 311q8 18 16 26q12 12 29 12t29 -11q9 -8 17 -27l63 -129q71 -144 99 -206q51 -111 51 -130q0 -17 -13.5 -28.5t-31.5 -11.5q-27 0 -60 65l-32 76h-243zM427 283l-84 178l-83 -178h167z
M343 382l31 -65h-61zM342 780q0 -27 -20 -47t-47 -20t-46.5 19.5t-19.5 47.5q0 27 19.5 46.5t46.5 19.5q28 0 47.5 -19.5t19.5 -46.5zM229 780q0 -19 13 -33t33 -14t33.5 13.5t13.5 33.5q0 19 -13.5 32.5t-33.5 13.5q-19 0 -32.5 -13.5t-13.5 -32.5zM301 780
q0 -11 -7.5 -18.5t-18.5 -7.5q-10 0 -17.5 7.5t-7.5 18.5q0 10 7 17.5t18 7.5t18.5 -7.5t7.5 -17.5zM488 780q0 -27 -20 -47t-47 -20t-46.5 19.5t-19.5 47.5q0 27 19.5 46.5t46.5 19.5q28 0 47.5 -19.5t19.5 -46.5zM375 780q0 -19 13 -33t33 -14t33.5 13.5t13.5 33.5
q0 19 -13.5 32.5t-33.5 13.5q-19 0 -32.5 -13.5t-13.5 -32.5zM447 780q0 -11 -7.5 -18.5t-18.5 -7.5q-10 0 -17.5 7.5t-7.5 18.5q0 10 7 17.5t18 7.5t18.5 -7.5t7.5 -17.5z" />
    <glyph glyph-name="Aring" unicode="&#xc5;" horiz-adv-x="687" 
d="M265 137q-38 -80 -48 -94q-35 -48 -88 -48q-45 0 -77.5 31.5t-32.5 75.5q0 41 49 153q36 82 97 201l72 140q17 34 43.5 55t62.5 21q38 0 63.5 -20t42.5 -56q2 -5 72 -140q65 -126 98 -201q49 -111 49 -153q0 -44 -32.5 -75.5t-77.5 -31.5q-54 0 -88 47q-10 14 -48 95
h-157zM558 28q30 0 53.5 21.5t23.5 52.5q0 32 -50 143q-39 88 -98 203l-68 133q-13 29 -29 42q-19 16 -47 16q-27 0 -44.5 -15t-30.5 -43q-9 -19 -68 -134q-68 -132 -98 -200q-50 -112 -50 -145q0 -31 22.5 -52.5t54.5 -21.5t59 33q10 12 55 109h200l40 -88q32 -54 75 -54z
M222 203l-45 -100q-25 -41 -48 -41q-17 0 -30.5 11.5t-13.5 28.5q0 20 62 154l151 311q8 18 16 26q12 12 29 12t29 -11q9 -8 17 -27l63 -129q71 -144 99 -206q51 -111 51 -130q0 -17 -13.5 -28.5t-31.5 -11.5q-27 0 -60 65l-32 76h-243zM427 283l-84 178l-83 -178h167z
M343 382l31 -65h-61zM346 820q-2 2 -4 0l-3 -3q-4 -4 -1 -7q4 -1 8 3q5 5 0 7zM448 823q0 -47 -33 -80t-80 -33q-44 0 -70 26t-26 71q0 49 31 79q32 35 81 35q42 0 69.5 -27t27.5 -71zM335 775q18 0 34 14q14 16 14 35q0 14 -9.5 23t-23.5 9q-20 0 -33.5 -13.5t-13.5 -33.5
q0 -34 32 -34zM411 823q0 -34 -21 -55q-22 -22 -55 -22q-27 0 -44 16.5t-17 44.5q0 32 22 54q22 23 55 23q26 1 43 -16t17 -45zM429 823q0 35 -22 57t-56 22q-39 0 -68 -29q-26 -26 -26 -66q0 -36 21.5 -57.5t56.5 -21.5q39 0 67 28q27 27 27 67zM335 792q-15 0 -15 17
q0 12 9 21t21 9q7 0 11.5 -4.5t4.5 -10.5q0 -12 -10 -23q-8 -9 -21 -9z" />
    <glyph glyph-name="Ccedilla" unicode="&#xc7;" horiz-adv-x="716" 
d="M682 199q0 -104 -121 -168l-28 -15t-27 -13v-13q0 -33 -11 -62t-31.5 -50t-48.5 -33.5t-62 -12.5q-124 0 -175 212q-17 11 -31.5 25l-28.5 28q-87 99 -87 230q0 71 25.5 132t79.5 113h-2q102 99 245 99q82 0 173 -47q131 -72 131 -176q0 -21 -14.5 -43t-37.5 -40t-51 -29
t-55 -11l-55.5 45t-42.5 31q-26 17 -50 17q-36 0 -64 -27q-27 -29 -27 -64q0 -39 27 -69v2q27 -27 65 -27q11 0 22 4t24 10l-3 -1l35 24.5l35 23.5l16 12l-1 -3q5 5 10 8.5t21 11.5q28 0 54 -11t46 -28.5t32.5 -39.5t12.5 -45zM360 50q26 0 42.5 -16.5t16.5 -43.5
q0 -31 -19 -51t-47 -20q-57 0 -70 55l34 3q2 -10 13 -17.5t23 -7.5q32 0 32 37q0 14 -10.5 25t-25.5 11q-19 0 -31 -17l-24 14l24 55q-79 17 -133 78q-67 72 -67 172q0 105 77.5 181.5t183.5 76.5q61 0 134 -40q83 -43 83 -97q0 -12 -13 -24t-26 -12q-42 36 -84 62
q-46 31 -96 31q-73 0 -125 -52t-52 -126q0 -76 51 -128.5t127 -52.5q49 0 92 29l91 62q12 0 23 -12.5t11 -25.5q0 -49 -77 -93q-75 -46 -170 -35h-3l-10 -25q10 4 25 4zM540 73l-2 -1q97 51 97 127q0 15 -7.5 29t-19.5 25t-28 17.5t-33 6.5q-5 -3 -15.5 -10.5t-16.5 -10.5
l-34 -23.5t-33 -24.5l1 1q-35 -23 -71 -23q-58 0 -97 41q-40 41 -40 100q0 57 40 96q40 40 96 40q37 0 75 -23q18 -11 40.5 -29t48.5 -41q17 0 34 7t30.5 18.5t22 25t8.5 27.5q0 76 -105 135q-41 20 -79 31t-73 11q-61 0 -114 -21.5t-98 -66.5q-89 -85 -89 -210
q0 -116 77 -199q46 -52 107 -79l-16 -36l-13 -2q16 -67 45 -100.5t75 -33.5q24 0 43.5 9t34 24t22 35.5t7.5 44.5q0 26 -9 44q24 5 46.5 15t42.5 24zM348 -28q2 0 5.5 1t5.5 3q5 4 8 9t-1 14q-1 2 -4.5 4t-11.5 2q-20 0 -20 -17q0 -16 18 -16z" />
    <glyph glyph-name="Yacute" unicode="&#xdd;" horiz-adv-x="598" 
d="M17 559q0 45 33 77t78 32q62 0 126 -94l52 -79l66 109q49 64 104 64q46 0 78.5 -31.5t32.5 -77.5q0 -47 -79 -162l-95 -127q0 -14 2 -56t2 -52q0 -81 -19 -120q-27 -57 -95 -57q-69 0 -95 57q-19 40 -19 122q0 30 1 56l2 50l-124 172q-51 81 -51 117zM303 18q47 0 67 47
q15 35 15 101q0 35 -2 59t-4 56l122 167q53 82 53 111q0 31 -23 53.5t-55 22.5q-45 0 -104 -88q-56 -96 -66 -111l-96 142q-48 57 -82 57q-31 0 -54.5 -23t-23.5 -53q0 -36 85 -157l90 -121q0 -18 -1 -32q-5 -69 -5 -83q0 -66 15 -101q20 -47 69 -47zM83 559q0 18 13 30.5
t32 12.5q22 0 75 -69l106 -155l94 155q49 69 73 69q18 0 31.5 -13t13.5 -30q0 -22 -85 -142l-90 -126v-168q0 -32 -6 -47q-9 -23 -37 -23q-29 0 -39 23q-6 14 -6 47v168l-48 67q-53 73 -82 118q-45 68 -45 83zM266 717q-30 0 -51.5 21.5t-21.5 51.5q0 27 25 56l44 44
q13 13 21 19q20 14 44 14q30 0 51 -21t21 -51q0 -16 -6 -28.5t-28 -35.5q-50 -51 -56 -55q-23 -15 -43 -15zM216 790q0 -22 15 -36t35 -14q13 0 24 7.5t24.5 20l27.5 26.5q34 33 34 57q0 19 -15 34.5t-34 15.5q-13 0 -21 -4t-28 -24q-6 -6 -28 -26q-34 -34 -34 -57zM266 763
q-8 0 -15 5q-11 8 -11 22q0 13 37 50t50 37q11 0 18.5 -8t7.5 -18q0 -14 -37 -51t-50 -37z" />
    <glyph glyph-name="yacute" unicode="&#xfd;" horiz-adv-x="533" 
d="M43 439q0 35 26.5 60.5t62.5 25.5q50 0 101 -75l40 -63l53 86q39 52 83 52q36 0 62 -25t26 -61q0 -38 -65.5 -128l-73.5 -101q0 -16 1.5 -49t1.5 -36q0 -83 -26 -115q-21 -26 -65 -26q-53 0 -74 44q-16 33 -16 96q0 24 1 45l2 41l-100 135q-40 63 -40 94zM270 10
q38 0 54 37q13 30 13 81q0 25 -2 48t-3 42l96 132q43 66 43 88q0 24 -19 42t-43 18q-37 0 -84 -69q-44 -76 -52 -88l-75 113q-38 44 -66 44q-25 0 -43.5 -17.5t-18.5 -42.5q0 -27 68 -124l71 -96q0 -14 -1 -26q-4 -49 -4 -64q0 -52 12 -80q16 -38 54 -38zM97 438q0 14 10 24
t25 10q23 0 84 -86q29 -41 59 -91l75 122q40 55 59 55q13 0 24 -10t11 -24q0 -13 -42 -76l-97 -136v-133q0 -27 -4 -37q-8 -19 -31 -19q-25 0 -29.5 20t-4.5 36v133l-71 99q-68 97 -68 113zM265 563q-30 0 -51.5 21.5t-21.5 50.5q0 27 25 56l44 43q13 13 21 19q19 14 43 14
q30 0 51 -21t21 -50q0 -16 -6 -28.5t-28 -35.5q-50 -50 -56 -54q-22 -15 -42 -15zM215 635q0 -21 15 -35t35 -14q13 0 24 7.5t24 20l27 25.5q34 33 34 57q0 19 -15 34t-34 15q-13 0 -20.5 -4t-27.5 -23q-6 -6 -28 -26q-34 -34 -34 -57zM265 609q-8 0 -15 5q-11 8 -11 21
t36.5 49.5t49.5 36.5q11 0 18.5 -7.5t7.5 -17.5q0 -14 -36.5 -50.5t-49.5 -36.5z" />
    <glyph glyph-name="Thorn" unicode="&#xde;" horiz-adv-x="592" 
d="M288 343q26 0 26 14q0 12 -26 12v-26zM290 570q94 0 158 -51q34 -29 53 -71t19 -91q0 -69 -31.5 -117t-88.5 -73q-18 -8 -46 -13.5t-63 -9.5q0 -37 -2.5 -56.5t-9.5 -32.5v2q-14 -38 -36 -55t-60 -17q-33 0 -58 16t-36 46q-8 13 -10.5 29t-2.5 36v360v40q0 29 2.5 51
t9.5 36q14 38 40 54.5t56 16.5q66 0 91 -62l-1 1q2 -7 5 -15.5t5 -23.5h6zM288 283q41 0 64.5 18t23.5 56t-23.5 55t-65.5 17h-60v-146h61zM290 511q36 0 65.5 -10t52.5 -28q51 -41 51 -116q0 -48 -22 -81.5t-59 -51.5q-24 -9 -61.5 -14t-89.5 -8q0 -5 0.5 -8l1.5 -9
q0 -5 1 -10t1 -8v-17q0 -51 -7 -73q-8 -15 -17 -22.5t-24 -7.5q-13 0 -23.5 5.5t-15.5 17.5q-2 6 -4 17t-2 25v364q-1 8 -1 18v18q0 46 7 67q8 16 18.5 23t21.5 7q25 0 33 -23v1q8 -11 10 -73zM254 541q-1 20 -3 34.5t-6 21.5q-14 41 -61 41q-20 0 -38.5 -12t-29.5 -38
q-8 -29 -8 -76v-18.5t1 -18.5v-363q0 -34 9 -53l-2 1q21 -43 67 -43q49 0 68 50v-1q4 13 6.5 37.5t2.5 46.5v6q0 2 -0.5 4t-0.5 7v7q45 4 76.5 9t53.5 13q47 21 73.5 62.5t26.5 98.5q0 44 -16.5 78t-45.5 59q-28 24 -61.5 34.5t-75.5 10.5zM255 312v89h32q27 0 42.5 -10.5
t15.5 -33.5q0 -22 -15.5 -33.5t-41.5 -11.5h-33z" />
    <glyph glyph-name="uni00B9" unicode="&#xb9;" horiz-adv-x="332" 
d="M62 668q0 41 29 56q22 11 65 11q49 0 71 -21t22 -71v-262q0 -37 -17 -60q-18 -26 -55 -26q-38 0 -56 27q-16 23 -16 62v224q-19 7 -31 23.5t-12 36.5zM127 384q0 -30 10 -45q12 -22 40 -22q27 0 40 20q10 15 10 44v265q0 43 -22 57q-15 10 -62 10q-35 0 -49 -13
q-10 -10 -10 -32q0 -17 12 -28.5t31 -13.5v-242zM105 668q0 16 9.5 19.5t28.5 3.5h16q29 0 37.5 -8t8.5 -37v-264q0 -25 -7 -34t-21 -9q-18 0 -23 12.5t-5 32.5v264h-9q-18 0 -24 2q-11 5 -11 18z" />
    <glyph glyph-name="onehalf" unicode="&#xbd;" horiz-adv-x="900" 
d="M139 82q0 35 76 176q48 88 153 262t106 178q18 30 33 43q21 18 50 18q34 0 59 -24t25 -58q0 -35 -77 -177q-55 -100 -152 -263l-107 -176q-16 -29 -32 -43q-21 -18 -50 -18q-34 0 -59 23.5t-25 58.5zM223 30q20 0 34 14q9 9 22 31l101 172l153 266q78 144 78 164
q0 21 -16 36.5t-38 15.5q-15 0 -28 -9t-29 -36l-103 -174q-97 -164 -150 -262q-78 -142 -78 -166q0 -21 16.5 -36.5t37.5 -15.5zM206 66l-8 16q11 42 82 168q49 89 139 238q104 174 107 180q8 16 12.5 21t18.5 10l17 -6l7 -16q-5 -17 -13 -32l-315 -555q-6 -12 -9 -16
q-6 -8 -21 -14zM36 668q0 41 29 56q22 11 65 11q49 0 71 -21t22 -71v-262q0 -37 -17 -60q-18 -26 -55 -26q-38 0 -56 27q-16 23 -16 62v224q-19 7 -31 23.5t-12 36.5zM101 384q0 -30 10 -45q12 -22 40 -22q27 0 40 20q10 15 10 44v265q0 43 -22 57q-15 10 -62 10
q-35 0 -49 -13q-10 -10 -10 -32q0 -17 12 -28.5t31 -13.5v-242zM79 668q0 16 9.5 19.5t28.5 3.5h16q29 0 37.5 -8t8.5 -37v-264q0 -25 -7 -34t-21 -9q-18 0 -23 12.5t-5 32.5v264h-9q-18 0 -24 2q-11 5 -11 18zM863 71q0 -37 -27 -55q-22 -15 -61 -15h-128q-44 0 -66 12
q-33 15 -33 54q0 29 42 76l78 81q45 45 50 65l-6 13l-13 5q-12 -3 -34 -31q-20 -24 -52 -24q-30 0 -50 21t-20 52q0 53 52 92q47 35 104 35q69 0 116.5 -48t47.5 -118q0 -50 -37 -96q-12 -16 -42 -48q52 -12 65.5 -26.5t13.5 -44.5zM841 286q0 61 -41 102.5t-101 41.5
q-48 0 -89 -28q-45 -33 -45 -78q0 -21 13 -35t35 -14q24 0 45 27t41 27q16 0 28.5 -11t12.5 -29q0 -22 -45 -68l-81 -82q-44 -49 -44 -72q0 -28 27 -39q14 -5 50 -5h128q30 0 46 10q20 11 20 38q0 24 -15 35q-17 15 -63 15h-16h-15l71 72q38 49 38 93zM819 71q0 -16 -14 -23
q-9 -3 -30 -3h-132q-23 0 -32 2q-19 4 -19 20q0 17 45 61q70 71 79 82q45 51 45 79q0 26 -18 44t-44 18q-30 0 -51.5 -27.5t-34.5 -27.5q-12 0 -19.5 8t-7.5 20q0 34 40 61q35 23 73 23q51 0 85.5 -35.5t34.5 -86.5q0 -48 -79 -130l-57 -58q5 0 29.5 1.5t34.5 1.5
q33 0 52.5 -6.5t19.5 -23.5z" />
    <glyph glyph-name="onequarter" unicode="&#xbc;" horiz-adv-x="854" 
d="M145 82q0 35 78 176l154 261.5t103 178.5q18 30 33 43q21 18 50 18q34 0 59 -24t25 -58q0 -35 -77 -177q-55 -100 -152 -263l-107 -176q-16 -29 -32 -43q-21 -18 -50 -18q-34 0 -59 23.5t-25 58.5zM229 30q20 0 34 14q9 9 22 31l101 172l153 266q78 144 78 164
q0 21 -16 36.5t-38 15.5q-15 0 -28 -9t-29 -36l-103 -174l-150 -262q-78 -142 -78 -166q0 -21 16.5 -36.5t37.5 -15.5zM212 66l-8 16q13 42 87 168q48 89 135 238q102 174 106 180q8 16 12.5 21t18.5 10l17 -6l7 -16q-5 -17 -13 -32q-321 -567 -324 -571q-6 -8 -21 -14z
M42 668q0 41 29 56q22 11 65 11q49 0 71 -21t22 -71v-262q0 -37 -17 -60q-18 -26 -55 -26q-38 0 -56 27q-16 23 -16 62v224q-19 7 -31 23.5t-12 36.5zM107 384q0 -30 10 -45q12 -22 40 -22q27 0 40 20q10 15 10 44v265q0 43 -22 57q-15 10 -62 10q-35 0 -49 -13
q-10 -10 -10 -32q0 -17 12 -28.5t31 -13.5v-242zM85 668q0 16 9.5 19.5t28.5 3.5h16q29 0 37.5 -8t8.5 -37v-264q0 -25 -7 -34t-21 -9q-18 0 -23 12.5t-5 32.5v264h-9q-18 0 -24 2q-11 5 -11 18zM685 -1q-37 0 -54 27q-15 23 -15 65q-10 0 -19.5 -1t-20.5 -1q-55 0 -82 12
q-40 18 -40 64q0 23 16 52q3 8 17 28l91 141q24 39 39.5 47t62.5 8t66 -32q16 -24 16 -72q0 -18 -2 -43q-5 -58 -5 -69q28 0 46 -19t18 -48t-18 -47t-46 -20q0 -42 -14 -64q-17 -28 -56 -28zM797 158q0 26 -18 37t-46 11v153q0 42 -11.5 50.5t-56.5 8.5q-36 0 -49 -13
l-20 -30l-92 -141q-15 -27 -18 -33q-10 -19 -10 -36q0 -32 33 -45q25 -9 69 -9q18 0 32 0.5t28 0.5v-19q0 -34 6 -49q11 -23 41 -23q31 0 41 23q7 15 7 50v17q28 0 44 9q20 12 20 38zM498 165q0 17 31 69q22 37 61 94q30 44 45 62q5 4 13.5 5.5t17.5 1.5h15q15 0 25 -3
q5 -8 6 -31.5t1 -60.5q0 -40 -0.5 -68t-0.5 -51h22q20 0 30.5 -4.5t10.5 -20.5q0 -15 -10.5 -19.5t-30.5 -4.5h-12t-10 1q0 -11 0.5 -21.5t0.5 -18.5q0 -23 -4 -36q-7 -16 -24 -16q-15 0 -21.5 14.5t-6.5 37.5q0 12 1 21.5t1 18.5q-9 -2 -27.5 -3t-40.5 -1q-40 0 -63 6
q-30 8 -30 28zM554 183h105v165zM638 205h-44l44 69v-69z" />
    <glyph glyph-name="threequarters" unicode="&#xbe;" horiz-adv-x="936" 
d="M234 82q0 35 76 176q48 88 153 262t106 178q18 30 33 43q21 18 50 18q34 0 59 -24t25 -58q0 -35 -77 -177q-55 -100 -152 -263l-107 -176q-16 -29 -32 -43q-21 -18 -50 -18q-34 0 -59 23.5t-25 58.5zM318 30q20 0 34 14q9 9 22 31l101 172l153 266q78 144 78 164
q0 21 -16 36.5t-38 15.5q-15 0 -28 -9t-29 -36l-103 -174q-97 -164 -150 -262q-78 -142 -78 -166q0 -21 16.5 -36.5t37.5 -15.5zM301 66l-8 16q11 42 82 168q49 89 139 238q104 174 107 180q8 16 12.5 21t18.5 10l17 -6l7 -16q-5 -17 -13 -32l-315 -555q-6 -12 -9 -16
q-6 -8 -21 -14zM355 491q0 -67 -45.5 -114t-113.5 -47q-58 0 -105 36q-52 39 -52 95q0 29 21 50t50 21q32 0 52 -25q24 -32 34 -34l12 5l5 13q-4 15 -31 33q-23 17 -23 43q0 25 23 41q27 17 30 29l-4 11l-12 5q-13 -4 -34.5 -27.5t-48.5 -23.5q-30 0 -51 20t-21 49
q0 52 51 88q46 34 100 34q65 0 111 -44.5t46 -110.5q0 -35 -18 -69q12 -15 18 -35.5t6 -42.5zM328 638q0 57 -39.5 95t-96.5 38q-45 0 -85 -26q-44 -31 -44 -74q0 -20 14 -33.5t36 -13.5q17 0 32 15q34 34 51 34q15 0 26.5 -9.5t11.5 -26.5q0 -22 -26.5 -38.5t-26.5 -31.5
q0 -16 27 -34.5t27 -41.5q0 -16 -11.5 -28t-27.5 -12q-18 0 -51 40q-15 19 -35 19q-19 0 -34 -14.5t-15 -34.5q0 -47 45 -79q41 -29 90 -29q58 0 97.5 40t39.5 98q0 43 -28 76q23 35 23 71zM311 491q0 -49 -33 -82.5t-82 -33.5q-40 0 -74 22q-39 25 -39 62q0 11 7 20t19 9
q11 0 34 -29.5t53 -29.5q25 0 43 18t18 44q0 31 -25 51q-30 22 -30 24l3 5q31 21 36 26q15 14 15 40q0 25 -17.5 42t-42.5 17q-30 0 -52.5 -25t-32.5 -25q-12 0 -19 7t-7 18q0 33 37 57q33 21 70 21q47 0 80.5 -31t33.5 -79q0 -22 -8.5 -39.5t-23.5 -32.5q37 -27 37 -76z
M773 -1q-37 0 -54 27q-15 23 -15 65q-10 0 -19.5 -1t-20.5 -1q-55 0 -82 12q-40 18 -40 64q0 23 16 52q3 8 17 28l91 141q24 39 39.5 47t62.5 8t66 -32q16 -24 16 -72q0 -18 -2 -43q-5 -58 -5 -69q28 0 46 -19t18 -48t-18 -47t-46 -20q0 -42 -14 -64q-17 -28 -56 -28z
M885 158q0 26 -18 37t-46 11v153q0 42 -11.5 50.5t-56.5 8.5q-36 0 -49 -13l-20 -30l-92 -141q-15 -27 -18 -33q-10 -19 -10 -36q0 -32 33 -45q25 -9 69 -9q18 0 32 0.5t28 0.5v-19q0 -34 6 -49q11 -23 41 -23q31 0 41 23q7 15 7 50v17q28 0 44 9q20 12 20 38zM586 165
q0 17 31 69q22 37 61 94q30 44 45 62q5 4 13.5 5.5t17.5 1.5h15q15 0 25 -3q5 -8 6 -31.5t1 -60.5q0 -40 -0.5 -68t-0.5 -51h22q20 0 30.5 -4.5t10.5 -20.5q0 -15 -10.5 -19.5t-30.5 -4.5h-12t-10 1q0 -11 0.5 -21.5t0.5 -18.5q0 -23 -4 -36q-7 -16 -24 -16
q-15 0 -21.5 14.5t-6.5 37.5q0 12 1 21.5t1 18.5q-9 -2 -27.5 -3t-40.5 -1q-40 0 -63 6q-30 8 -30 28zM642 183h105v165zM726 205h-44l44 69v-69z" />
    <glyph glyph-name="questiondown" unicode="&#xbf;" horiz-adv-x="530" 
d="M254 316q49 0 80 -23q36 -27 36 -75q0 -47 -36 -69l-73 -35l-9 -19l7 -18l18 -8q17 6 53 41q30 29 70 29q42 0 69.5 -29.5t27.5 -72.5q0 -77 -74 -130q-67 -48 -148 -48q-99 0 -167 68t-68 166q0 91 62 157t152 66zM164 446q0 44 31.5 75.5t76.5 31.5q44 0 76 -31t32 -76
t-31.5 -76.5t-76.5 -31.5q-44 0 -76 32t-32 76zM275 -108q65 0 123 39q66 44 66 106q0 29 -17.5 48.5t-46.5 19.5q-28 0 -51 -21q-52 -48 -72 -48q-24 0 -41 17t-17 42q0 41 58.5 63t58.5 61q0 32 -24 48t-58 16q-76 0 -128.5 -56t-52.5 -133q0 -86 58 -144t144 -58z
M346 446q0 31 -21.5 52.5t-52.5 21.5t-52.5 -21.5t-21.5 -52.5t21 -53t53 -22q30 0 52 22t22 53zM254 250q28 0 39 -8t11 -23q0 -6 -6 -16l-76 -35q-37 -23 -37 -73q0 -38 27 -65t65 -27q36 0 72.5 34.5t50.5 34.5q31 0 31 -35q0 -48 -56 -82q-48 -29 -100 -29
q-71 0 -120 48t-49 120q0 62 43 109t105 47zM231 446q0 17 12 29t29 12q18 0 29.5 -11.5t11.5 -29.5q0 -17 -12 -29t-29 -12t-29 12t-12 29z" />
    <glyph glyph-name="brokenbar" unicode="&#xa6;" horiz-adv-x="349" 
d="M178 747q41 0 61 -29q17 -25 17 -67v-130q0 -40 -18 -65q-20 -28 -60 -28t-58.5 26.5t-18.5 66.5v133q0 40 17 65q20 28 60 28zM178 724q-29 0 -43 -22q-12 -17 -12 -49v-130q0 -32 11 -49q14 -22 44 -22q31 0 44 22q10 16 10 48v131q0 32 -10 49q-13 22 -44 22zM148 651
q0 24 3 33q7 15 27 15q21 0 27 -14q4 -11 4 -34v-126q0 -23 -4 -34q-7 -16 -27 -16t-25 14t-5 36v126zM179 307q41 0 61 -29q17 -25 17 -67v-130q0 -40 -18 -65q-20 -28 -60 -28t-58.5 26.5t-18.5 66.5v133q0 40 17 65q20 28 60 28zM179 284q-29 0 -43 -22q-12 -17 -12 -49
v-130q0 -32 11 -49q14 -22 44 -22q31 0 44 22q10 16 10 48v131q0 32 -10 49q-13 22 -44 22zM149 211q0 24 3 33q7 15 27 15q21 0 27 -14q4 -11 4 -34v-126q0 -23 -4 -34q-7 -16 -27 -16t-25 14t-5 36v126z" />
    <glyph glyph-name="AE" unicode="&#xc6;" horiz-adv-x="854" 
d="M272 133q-46 -80 -55 -91q-39 -48 -92 -48q-44 0 -77 32t-33 77t64 156q47 81 125 194l87 125q35 54 63 71t90 17l253 1q58 0 92 -23q40 -27 40 -84q0 -51 -31 -77q-38 -32 -137 -32q-16 0 -45 1t-40 1v-20h26.5t28.5 1q69 0 104 -16q50 -23 50 -85q0 -48 -28 -72
q-34 -29 -124 -29h-29.5t-27.5 1v-20q29 0 50 1t40 2q75 0 111 -18q52 -26 52 -92q0 -55 -39 -82q-34 -24 -93 -24h-198q-74 0 -107 29q-36 32 -36 104h-84zM499 33h198q44 0 68 14q31 18 31 59q0 45 -45 65q-35 15 -97 15q-34 0 -57.5 -2t-54.5 -4v87q8 0 39 -2t52 -2
q54 0 81 12q37 17 37 58t-37 58q-28 13 -82 13q-19 0 -42 -1.5t-48 -2.5v86q19 0 32 -1q66 -5 79 -5q65 0 98 14q45 19 45 66q0 42 -27 57.5t-72 15.5h-252q-53 0 -74.5 -13t-51.5 -60l-84 -123q-85 -124 -124 -191q-63 -107 -63 -145q0 -30 23 -52t54 -22q49 0 93 75l35 65
h136q0 -80 14 -102q21 -32 96 -32zM124 61q-17 0 -29.5 11.5t-12.5 27.5q0 30 61 132q42 71 120 186l84 124q27 41 42.5 49.5t66.5 8.5h241q31 0 44 -5q22 -9 22 -35t-37.5 -37t-93.5 -11q-37 0 -65.5 2.5t-57.5 5.5v-153q26 0 53 1l55 2q26 0 47.5 -2t41.5 -8
q7 -8 9.5 -14.5t2.5 -12.5q0 -5 -2.5 -11.5t-9.5 -14.5q-19 -6 -39.5 -8.5t-48.5 -2.5q-19 0 -63.5 2t-45.5 2v-154q26 3 63 5.5t60 2.5q58 0 94.5 -10.5t36.5 -37.5q0 -18 -14 -28.5t-52 -10.5h-202q-46 0 -60.5 18.5t-14.5 57.5v27.5t1 29.5h-187l-56 -100
q-29 -39 -54 -39zM278 270h144v246zM389 303h-53l53 91v-91z" />
    <glyph glyph-name="Oslash" unicode="&#xd8;" horiz-adv-x="763" 
d="M143 -15q-45 0 -77.5 32.5t-32.5 77.5t35 80l2 2q0 9 -25 91q-12 39 -12 65q0 143 102 246t245 103q82 0 158 -37q18 18 38.5 27.5t44.5 9.5q44 0 76.5 -32.5t32.5 -77.5q0 -47 -35 -80l-2 -3q0 -8 25 -91q12 -40 12 -65q0 -144 -102 -246t-247 -102q-82 0 -156 37
q-17 -16 -38.5 -26.5t-43.5 -10.5zM382 19q130 0 222 92t92 222q0 44 -10 80t-33 82q21 22 29 34q15 22 15 43q0 30 -23 53t-53 23q-21 0 -42 -14q-12 -8 -35 -30q-32 21 -77 32.5t-87 11.5q-129 0 -221 -93t-92 -222q0 -44 10 -80t33 -82q-26 -27 -30 -33q-14 -20 -14 -43
q0 -32 22.5 -54.5t54.5 -22.5q21 0 42 14q9 6 34 30q48 -22 83.5 -32.5t79.5 -10.5zM621 615q17 0 29.5 -12.5t12.5 -30.5q0 -12 -13 -29q-6 -8 -41 -43q54 -76 54 -167q0 -117 -82 -199t-200 -82q-90 0 -166 54q-32 -35 -41 -41q-17 -13 -31 -13q-17 0 -30 12t-13 30t30 49
l24 24q-54 78 -54 166q0 116 82 199t199 83q91 0 167 -54l33 33q24 21 40 21zM187 333q0 -81 57 -138t138 -57t138 57t57 138t-57 138t-138 57t-138 -57t-57 -138zM220 333q0 -66 47 -114t114 -48q68 0 115 47t47 115t-47 115t-115 47q-67 0 -114 -47t-47 -115zM510 333
q0 -52 -38 -90t-91 -38q-54 0 -91 37t-37 91t37 91t91 37q53 0 91 -37t38 -91z" />
    <glyph glyph-name="yen" unicode="&#xa5;" horiz-adv-x="635" 
d="M33 563q0 44 33 76t78 32q62 0 126 -93l51 -78l65 107q48 64 105 64q44 0 77.5 -31.5t33.5 -76.5q0 -46 -66 -136l-49 -64q47 0 77 -22.5t30 -68.5q0 -56 -44 -76q-29 -13 -94 -13h-29q0 -90 -12 -124q-23 -64 -98 -64q-74 0 -97 63q-12 33 -12 125h-27q-66 0 -94 12
q-46 20 -46 77q0 45 30.5 68t76.5 23l-67 90q-48 71 -48 110zM74 272q0 -34 31 -48q24 -11 68 -11q20 0 36.5 1l31.5 2q0 -11 -1 -38.5t-1 -28.5q0 -54 13 -82q18 -39 65 -39t66 40q13 28 13 84q0 13 -1 35t-1 29q13 0 40.5 -1.5t29.5 -1.5q44 0 66 10q31 14 31 49
t-25.5 46.5t-66.5 11.5q-12 0 -23.5 -0.5t-22.5 -0.5l101 139q44 68 44 95q0 31 -23 53t-54 22q-46 0 -105 -87l-65 -110l-94 141q-48 56 -83 56q-30 0 -53.5 -22.5t-23.5 -52.5q0 -34 69 -132l76 -102h-23t-25 1q-42 0 -61 -9q-29 -14 -29 -49zM519 292q8 -10 8 -20
q0 -8 -8 -18q-17 -4 -32 -5t-37 -1q-15 0 -45 1t-44 1q0 -5 2.5 -37t2.5 -46q0 -46 -9 -72q-12 -33 -40 -33t-38 28.5t-10 74.5q0 27 1.5 48t3.5 37q-22 0 -45.5 -1l-46.5 -2q-37 0 -66 7l-9 18q0 4 2.5 9t6.5 10q17 5 32 6t41 1q14 0 43 -1t42 -1l-88 123q-86 123 -86 144
q0 18 13 30t31 12q28 0 106 -110q26 -36 73 -111q31 58 66 112q70 109 102 109q17 0 30.5 -12.5t13.5 -29.5q0 -16 -57 -98.5l-117 -166.5h19h30.5t31.5 1q26 0 42 -1t35 -6z" />
    <glyph glyph-name="oslash" unicode="&#xf8;" horiz-adv-x="597" 
d="M112 -14q-37 0 -62 25t-25 62q0 34 28 62l1 1q0 8 -19 72q-10 30 -10 50q0 113 80 193.5t192 80.5q64 0 124 -30q14 15 30 22.5t34 7.5q36 0 61 -25t25 -62q0 -35 -28 -62l-2 -3q0 -6 21 -70q9 -31 9 -52q0 -112 -80 -192t-194 -80q-63 0 -122 29q-13 -12 -30 -20.5
t-33 -8.5zM298 13q103 0 174.5 72t71.5 173q0 36 -7.5 64t-25.5 63q17 19 23 27q11 18 11 33q0 25 -17.5 42.5t-42.5 17.5q-16 0 -31 -10q-10 -6 -29 -24q-24 17 -59.5 25.5t-68.5 8.5q-101 0 -173 -72t-72 -175q0 -33 7.5 -61.5t25.5 -63.5q-21 -22 -23 -27
q-10 -16 -10 -33q0 -26 17 -43t43 -17q16 0 31 10q8 5 29 23q36 -17 64 -25t62 -8zM485 480q14 0 24 -10t10 -25q0 -8 -10 -21q-5 -7 -33 -35q43 -59 43 -131q0 -91 -64.5 -155t-157.5 -64q-69 0 -129 42q-26 -28 -33 -33q-12 -9 -23 -9q-14 0 -24 9t-10 23q0 15 23 38
q9 10 19 20q-42 61 -42 129q0 92 64 157t155 65q72 0 131 -43l27 26q18 17 30 17zM146 258q0 -63 44.5 -107.5t107.5 -44.5q64 0 108.5 44.5t44.5 107.5q0 64 -44.5 109t-108.5 45q-63 0 -107.5 -45t-44.5 -109zM172 258q0 -51 37 -88t88 -37q54 0 90.5 36.5t36.5 88.5
q0 54 -36.5 90.5t-90.5 36.5q-51 0 -88 -36.5t-37 -90.5zM400 258q0 -40 -30.5 -70t-72.5 -30q-41 0 -70.5 29.5t-29.5 70.5q0 43 29.5 72.5t70.5 29.5q42 0 72.5 -29.5t30.5 -72.5z" />
    <glyph glyph-name="guillemotleft" unicode="&#xab;" horiz-adv-x="511" 
d="M199 77q-48 0 -103.5 73t-55.5 118q0 46 53 115q57 75 106 75q29 0 53.5 -16t34.5 -44q20 29 37 42q23 18 53 18q37 0 65.5 -25.5t28.5 -61.5q0 -19 -10 -40q-5 -10 -40 -63q15 -25 31 -49q19 -33 19 -55q0 -37 -29 -62t-65 -25q-22 0 -40 10q-23 13 -50 49
q-10 -27 -34.5 -43t-53.5 -16zM199 425q-33 0 -79.5 -65t-46.5 -93t44 -90q48 -68 82 -68q22 0 41 16t19 39q0 15 -25.5 55l-30.5 48l31 48q25 41 25 56q0 22 -18.5 38t-41.5 16zM438 371q0 22 -19 38t-42 16q-34 0 -79.5 -64.5t-45.5 -93.5q0 -27 44 -90q48 -68 81 -68
q23 0 42 16t19 39q0 15 -24 54l-32 49q20 28 32 48q24 39 24 56zM403 164q0 -9 -7.5 -15.5t-17.5 -6.5q-11 0 -34 30l-46 70q-5 7 -7 11q-5 8 -5 14q0 5 5 12l7 12l31 52q33 49 49 49q9 0 17 -6t8 -16q0 -11 -27.5 -54t-33.5 -49q17 -22 42 -64q19 -31 19 -39zM224 164
q0 -9 -7.5 -15.5t-17.5 -6.5q-15 0 -47 48q-8 11 -32 52q-5 7 -9 14t-4 11q0 5 5 12l8 12q20 40 43.5 70.5t36.5 30.5q9 0 16.5 -6.5t7.5 -15.5q0 -10 -30 -57l-30 -46l30 -47q30 -47 30 -56z" />
    <glyph glyph-name="guillemotright" unicode="&#xbb;" horiz-adv-x="511" 
d="M312 458q48 0 105 -75q54 -71 54 -115t-54 -115q-58 -76 -104 -76q-29 0 -53.5 16t-35.5 43q-20 -27 -38 -41q-24 -18 -52 -18q-38 0 -66 24.5t-28 62.5q0 26 26 67l24 37q-27 42 -31 49q-19 33 -19 54q0 36 28.5 61.5t65.5 25.5q29 0 52 -17q17 -13 38 -43
q10 27 34.5 43.5t53.5 16.5zM312 110q33 0 81 68q45 63 45 91q0 26 -44 88q-49 68 -82 68q-23 0 -41.5 -15.5t-18.5 -38.5q0 -20 33 -70l23 -33l-31 -47q-25 -41 -25 -56q0 -22 18.5 -38.5t41.5 -16.5zM74 165q0 -23 18 -39t42 -16q32 0 80 68q45 64 45 91q0 26 -44 88
q-48 68 -81 68q-23 0 -41.5 -15.5t-18.5 -38.5q0 -19 33 -70l22 -33l-31 -49q-24 -40 -24 -54zM108 371q0 9 7.5 15.5t17.5 6.5q19 0 60 -66q19 -34 20 -35q5 -7 8.5 -13t3.5 -11q0 -6 -4 -12l-8 -12l-45 -70q-23 -31 -35 -31q-10 0 -17.5 6.5t-7.5 15.5q0 11 29 56
q26 41 32 47q-6 6 -41 64q-20 33 -20 39zM287 371q0 9 7.5 15.5t17.5 6.5q18 0 59 -66q10 -18 21 -35l7.5 -13t3.5 -11q0 -6 -4 -12l-7 -12l-45 -70q-23 -31 -35 -31q-10 0 -17.5 6.5t-7.5 15.5t30 57l30 46l-30 46q-30 48 -30 57z" />
    <glyph glyph-name="Eacute" unicode="&#xc9;" horiz-adv-x="550" 
d="M525 107q0 -56 -38 -83q-33 -24 -90 -24h-207q-73 0 -105.5 32.5t-32.5 107.5v387q0 75 32.5 107.5t105.5 32.5h207q57 0 92.5 -25.5t35.5 -81.5q0 -65 -53 -91q-37 -18 -113 -18q-16 0 -46 1t-41 1v-20h32.5t33.5 1q65 0 98 -17q45 -23 45 -83q0 -48 -28 -72
q-34 -29 -124 -29h-29.5t-27.5 1v-21q29 0 50 1t40 2q74 0 111 -18q52 -25 52 -91zM238 267q8 0 39 -2t52 -2q52 0 81 13q38 17 38 58q0 40 -33.5 55.5t-85.5 15.5q-24 0 -47.5 -2t-43.5 -3v87q19 0 33 -1q68 -5 80 -5q63 0 96 14q45 19 45 65q0 42 -30 60q-24 14 -69 14
h-199q-62 0 -85.5 -22.5t-23.5 -84.5v-387q0 -61 24 -84t85 -23h199q45 0 68 13q31 18 31 61q0 45 -44 64q-35 15 -97 15q-35 0 -58.5 -2t-54.5 -4v87zM393 147q31 0 44 -5q22 -9 22 -35q0 -25 -20 -34q-13 -6 -42 -6h-206q-45 0 -59 12.5t-14 56.5v395q0 43 14.5 56
t58.5 13h205q28 0 45.5 -7.5t17.5 -32.5t-22 -34q-15 -6 -44 -6h-188v-153h151q35 0 46.5 -7.5t11.5 -25.5q0 -23 -19 -30q-10 -4 -39 -4h-151v-153h188zM265 719q-30 0 -51.5 21.5t-21.5 50.5q0 27 25 56l44 43q13 13 21 19q19 14 43 14q30 0 51 -21t21 -50q0 -16 -6 -28.5
t-28 -35.5q-50 -50 -56 -54q-22 -15 -42 -15zM215 791q0 -21 15 -35t35 -14q13 0 24 7.5t24 20l27 25.5q34 33 34 57q0 19 -15 34t-34 15q-13 0 -20.5 -4t-27.5 -23q-6 -6 -28 -26q-34 -34 -34 -57zM265 765q-8 0 -15 5q-11 8 -11 21t36.5 49.5t49.5 36.5q11 0 18.5 -7.5
t7.5 -17.5q0 -14 -36.5 -50.5t-49.5 -36.5z" />
    <glyph glyph-name="Ntilde" unicode="&#xd1;" horiz-adv-x="697" 
d="M162 -5q-58 0 -86 41q-24 36 -24 96v402q0 61 24 96q29 42 88 42q44 0 105 -60q40 -40 97 -118l60 -84q0 29 -1 50t-2 40q0 101 32 140q26 32 80 32q57 0 86 -39q25 -34 25 -93v-413q0 -58 -24 -92q-28 -40 -85 -40q-44 0 -106 61q-42 42 -100 121l-59 84q0 -30 1 -52.5
t2 -41.5q0 -77 -19 -117q-26 -55 -94 -55zM467 74q12 -16 21 -24q23 -22 49 -22q43 0 61 32q14 25 14 72v403q0 47 -14 72q-18 32 -63 32q-44 0 -62 -32q-14 -25 -14 -72v-220l-220 274q-21 26 -32 34q-20 16 -44 16q-43 0 -60.5 -29.5t-17.5 -75.5v-402q0 -47 14 -71
q19 -33 63 -33q43 0 61 32q15 26 15 72v223zM205 132q0 -35 -5 -47q-9 -23 -38 -23q-27 0 -35.5 18t-8.5 48v410q0 29 9.5 48t35.5 19q22 0 102 -93q58 -67 143 -180l84 -112v315q0 31 6 46q10 24 37 24q28 0 38 -23q6 -14 6 -47v-403q0 -33 -5 -46q-9 -24 -36 -24
q-22 0 -102 93q-53 61 -143 179l-88 115v-317zM407 842l1.5 -3l1.5 -3q3 9 3 19q0 59 61 59q58 0 58 -59q0 -26 -7.5 -50t-18.5 -44q-18 -26 -43 -42t-57 -16q-55 0 -101 70q-5 -11 -10 -27t-13 -39q-51 -8 -73 7t-22 48q0 26 5 47.5t16 41.5q36 61 100 61q52 0 98 -70h1z
M403 779q23 0 39 25q6 11 10 24.5t4 26.5q0 17 18 17q16 0 16 -17q0 -40 -19 -72q-11 -17 -28 -27.5t-37 -10.5q-33 0 -65 50q-26 41 -32 41q-16 0 -29 -16q-2 -3 -9.5 -21t-18.5 -53q-24 -4 -24 16q0 38 17 69q12 20 27 29.5t36 9.5q28 0 63 -51q27 -40 32 -40zM388 830
q-39 60 -80 60q-52 0 -80 -50q-20 -34 -20 -78q0 -21 13.5 -30.5t44.5 -4.5q27 79 31 83l-1 -2q6 8 13 8q-4 -1 15 -32q38 -59 82 -59q26 0 46 13t35 35q23 35 23 82q0 17 -9 27.5t-27 10.5q-20 0 -29 -10.5t-9 -27.5q0 -21 -11 -41v1q-8 -15 -22 -15q4 0 -15 30z" />
    <glyph glyph-name="Eth" unicode="&#xd0;" horiz-adv-x="790" 
d="M362 198h39q64 0 105 38q39 37 39 96q0 61 -41 97q-44 39 -107 39h-35v-26h13q58 0 78.5 -27t20.5 -76q0 -59 -41 -83q-11 -10 -26 -14t-32 -4h-13v-40zM147 238h-9q-30 0 -50 6.5t-31.5 19t-16 31.5t-4.5 44q0 32 7 52t20.5 31.5t32.5 15.5t42 4h9v88q0 74 33 107
q31 31 108 31h117q145 0 249 -89q104 -93 104 -246q0 -81 -28 -143.5t-88 -109.5l1 1q-103 -81 -255 -81h-100q-38 0 -65 6t-43 22q-33 33 -33 109v101zM210 137v165h-72q-25 0 -32.5 9.5t-7.5 27.5q0 23 11 30.5t29 7.5h72v153q0 48 14 61.5t64 13.5h117q124 0 208 -74
t84 -198q0 -129 -94 -203q-84 -67 -215 -67h-100q-50 0 -64 13t-14 61zM297 135h104q89 0 148 55t59 142q0 90 -61.5 144.5t-149.5 54.5h-100v-154h78q21 0 29 -9.5t8 -28.5q0 -23 -12 -31q-10 -6 -25 -6h-78v-167zM180 137q0 -62 22 -84q22 -21 86 -21h100q137 0 234 74v-1
q102 83 102 228q0 71 -22 125t-70 96q-46 40 -102 61t-125 21h-117q-61 0 -86 -23q-22 -22 -22 -83v-123h-42q-31 0 -50 -12.5t-19 -55.5q0 -33 13.5 -50.5t55.5 -17.5h42v-134zM327 271h48q20 0 43 14q11 7 17.5 20.5t6.5 33.5q0 32 -14.5 50t-52.5 18h-48v94h70
q77 0 130 -47q51 -48 51 -122t-49 -120q-25 -24 -57.5 -35.5t-70.5 -11.5h-74v106z" />
    <glyph glyph-name="paragraph" unicode="&#xb6;" horiz-adv-x="563" 
d="M238 422q0 5 1 15.5t1 15.5v1q0 6 0.5 7.5t0.5 2.5v3.5v10.5h-10q-15 0 -24 -9q-11 -13 -11 -24q-1 -10 4 -15q8 -8 26 -8h12zM449 7q-21 0 -35.5 7t-25.5 20q-22 -27 -63 -27q-26 0 -43 11.5t-27 31.5t-13.5 48.5t-3.5 63.5v78q-36 3 -65 11t-49 19q-95 57 -92 183
q1 77 51 140q57 69 143 69h212q13 0 25.5 -3.5t22.5 -11.5q9 -4 13.5 -7.5t9.5 -8.5q11 -17 17.5 -41.5t6.5 -55.5v-402q0 -15 -1 -27.5t-3 -25.5q-11 -72 -80 -72zM357 531v-399q0 -21 -4.5 -46t-27.5 -25q-20 0 -27 28t-7 73q0 21 -0.5 75t-0.5 55q-99 0 -140 24
q-68 40 -65 135q1 61 40 109.5t101 48.5h212q13 0 21 -7q7 -1 11 -7q10 -13 10 -61v-402q0 -21 -4.5 -46t-26.5 -25q-21 0 -27.5 28t-6.5 73v369h-58zM290 368l5 163h-64q-38 0 -62.5 -25.5t-25.5 -54.5q-4 -31 19.5 -57t63.5 -26h64zM382 506h7v-344q0 -57 12 -92t48 -35
q46 0 52 48q2 12 3 24.5t1 24.5v402q0 27 -4 46.5t-11 30.5l-7 7t-10 6q-14 11 -35 11h-212q-38 0 -68 -15t-53 -43q-44 -57 -45 -125q-2 -55 18 -95t59 -63q21 -11 53.5 -18t74.5 -9v-30v-75q0 -57 12 -92t48 -35q45 0 53 48q2 12 3 24.5t1 24.5v374zM226 394q-29 0 -45 18
v-1q-15 17 -12 38q0 18 18 38q17 19 44 19h38q0 -17 -1 -31t-1.5 -27l-1 -26t-0.5 -28h-39z" />
    <glyph glyph-name="registered" unicode="&#xae;" horiz-adv-x="738" 
d="M606 340q0 98 -69 167t-167 69q-100 0 -169 -69q-68 -70 -68 -167q0 -99 69 -168t168 -69q98 0 167 69t69 168zM687 340q0 -66 -23.5 -121.5t-70.5 -103.5q-93 -93 -223 -93q-132 0 -225 93q-93 94 -93 225q0 129 93 224q94 93 225 93q129 0 224 -93q93 -95 93 -224z
M633 340q0 -110 -77 -187t-186 -77q-110 0 -187 77t-77 187q0 109 76.5 186t187.5 77q110 0 186.5 -77t76.5 -186zM659 340q0 119 -85 204t-204 85q-120 0 -205 -85q-85 -84 -85 -204q0 -60 20.5 -111t64.5 -95q84 -84 205 -84q119 0 203 84q86 86 86 206zM519 210
q0 -27 -18 -45t-44 -18q-33 0 -66 45l-27 41q0 -40 -11 -59q-15 -27 -52 -27q-34 0 -49 22.5t-15 57.5v228q0 45 19 63t63 18h52q67 0 112 -36q48 -39 48 -107q0 -31 -13 -59t-37 -48q12 -18 25 -34q13 -23 13 -42zM513 393q0 60 -43 93q-39 31 -100 31h-51q-37 0 -50 -12.5
t-13 -49.5v-228q0 -28 8 -42q11 -18 37 -18q27 0 37 22q7 15 7 48q0 9 -0.5 18t-0.5 18h17l37 -60q33 -46 59 -46q18 0 30.5 12.5t12.5 30.5q0 16 -19 44q-23 30 -27 38q27 14 43 42t16 59zM301 186q-13 0 -19.5 8.5t-6.5 32.5v228q0 27 8.5 35t35.5 8h50q53 0 87 -25
q38 -28 38 -80q0 -33 -18.5 -57t-51.5 -38l40 -55q17 -25 17 -33q0 -9 -7 -16.5t-17 -7.5q-16 0 -51 51q-33 53 -35 55h-46q0 -1 1.5 -18t1.5 -30q0 -25 -5.5 -41.5t-21.5 -16.5zM325 335h52q29 0 48 15.5t19 43.5q0 31 -20 46t-52 15h-47v-120zM344 435h28q25 0 39.5 -9
t14.5 -32q0 -22 -16 -32q-13 -8 -37 -8h-29v81zM374 373q16 0 24 3.5t8 17.5t-8.5 18t-25.5 4h-8v-43h10z" />
    <glyph glyph-name="copyright" unicode="&#xa9;" horiz-adv-x="686" 
d="M581 340q0 98 -69 167t-167 69q-100 0 -169 -69q-68 -70 -68 -167q0 -99 69 -168t168 -69q98 0 167 69t69 168zM662 340q0 -66 -23.5 -121.5t-70.5 -103.5q-93 -93 -223 -93q-132 0 -225 93q-93 94 -93 225q0 129 93 224q94 93 225 93q129 0 224 -93q93 -95 93 -224z
M608 340q0 -110 -77 -187t-186 -77q-110 0 -187 77t-77 187q0 109 76.5 186t187.5 77q110 0 186.5 -77t76.5 -186zM634 340q0 119 -85 204t-204 85q-120 0 -205 -85q-85 -84 -85 -204q0 -60 20.5 -111t64.5 -95q84 -84 205 -84q119 0 203 84q86 86 86 206zM355 270
q22 0 43 16q46 36 59 36q23 0 39.5 -17t16.5 -40q0 -45 -56 -79q-50 -30 -99 -30q-77 0 -131.5 52.5t-54.5 128.5t54 129.5t130 53.5q49 0 100 -31q58 -35 58 -81q0 -23 -17 -39.5t-40 -16.5t-48.5 27t-53.5 27q-29 0 -48.5 -20.5t-19.5 -48.5q0 -27 20 -47t48 -20zM355 422
q34 0 61.5 -26t40.5 -26q15 0 27 11.5t12 26.5q0 39 -52 68q-46 26 -88 26q-68 0 -117 -48t-49 -117t49 -116.5t119 -47.5q42 0 86 25q52 29 52 67q0 16 -11.5 27.5t-27.5 11.5q-12 0 -42 -26t-60 -26q-35 0 -60 25t-25 59q0 36 24 61t61 25zM355 235q35 0 66 26t38 26
q8 0 14 -7t6 -15q0 -29 -47 -53q-42 -22 -74 -22q-62 0 -107 43t-45 104t44.5 105t105.5 44q34 0 75 -22q49 -25 49 -56q0 -9 -7 -15t-16 -6q-3 0 -34 26.5t-66 26.5q-45 0 -74.5 -29t-29.5 -75q0 -42 29.5 -71.5t72.5 -29.5z" />
    <glyph glyph-name="Otilde" unicode="&#xd5;" horiz-adv-x="763" 
d="M730 334q0 -144 -102.5 -246.5t-245.5 -102.5q-144 0 -246.5 102.5t-102.5 246.5t102 246t247 102q144 0 246 -102t102 -246zM67 333q0 -130 92 -222t223 -92q129 0 222 92t93 222q0 131 -92 223t-223 92t-223 -92t-92 -223zM663 334q0 -117 -82.5 -199.5t-198.5 -82.5
t-199 83t-83 199t82.5 198.5t199.5 82.5t199 -82t82 -199zM187 333q0 -80 56.5 -137.5t138.5 -57.5q81 0 138 57t57 138t-57.5 138.5t-137.5 57.5q-81 0 -138 -57t-57 -139zM543 334q0 -67 -47 -115t-114 -48q-68 0 -115 47t-47 116q0 67 47 114t115 47q67 0 114 -47
t47 -114zM254 334q0 -53 37 -91t91 -38q52 0 90 38t38 91t-37.5 90.5t-90.5 37.5q-54 0 -91 -37t-37 -91zM426 850l1.5 -3l1.5 -3q3 9 3 19q0 59 61 59q58 0 58 -59q0 -26 -7.5 -50t-18.5 -44q-18 -26 -43 -42t-57 -16q-55 0 -101 70q-5 -11 -10 -27t-13 -39q-51 -8 -73 7
t-22 48q0 26 5 47.5t16 41.5q36 61 100 61q52 0 98 -70h1zM422 787q23 0 39 25q6 11 10 24.5t4 26.5q0 17 18 17q16 0 16 -17q0 -40 -19 -72q-11 -17 -28 -27.5t-37 -10.5q-33 0 -65 50q-26 41 -32 41q-16 0 -29 -16q-2 -3 -9.5 -21t-18.5 -53q-24 -4 -24 16q0 38 17 69
q12 20 27 29.5t36 9.5q28 0 63 -51q27 -40 32 -40zM407 838q-39 60 -80 60q-52 0 -80 -50q-20 -34 -20 -78q0 -21 13.5 -30.5t44.5 -4.5q27 79 31 83l-1 -2q6 8 13 8q-4 -1 15 -32q38 -59 82 -59q26 0 46 13t35 35q23 35 23 82q0 17 -9 27.5t-27 10.5q-20 0 -29 -10.5
t-9 -27.5q0 -21 -11 -41v1q-8 -15 -22 -15q4 0 -15 30z" />
    <glyph glyph-name="Atilde" unicode="&#xc3;" horiz-adv-x="687" 
d="M265 137q-38 -80 -48 -94q-35 -48 -88 -48q-45 0 -77.5 31.5t-32.5 75.5q0 41 49 153q36 82 97 201l72 140q17 34 43.5 55t62.5 21q38 0 63.5 -20t42.5 -56q2 -5 72 -140q65 -126 98 -201q49 -111 49 -153q0 -44 -32.5 -75.5t-77.5 -31.5q-54 0 -88 47q-10 14 -48 95
h-157zM558 28q30 0 53.5 21.5t23.5 52.5q0 32 -50 143q-39 88 -98 203l-68 133q-13 29 -29 42q-19 16 -47 16q-27 0 -44.5 -15t-30.5 -43q-9 -19 -68 -134q-68 -132 -98 -200q-50 -112 -50 -145q0 -31 22.5 -52.5t54.5 -21.5t59 33q10 12 55 109h200l40 -88q32 -54 75 -54z
M222 203l-45 -100q-25 -41 -48 -41q-17 0 -30.5 11.5t-13.5 28.5q0 20 62 154l151 311q8 18 16 26q12 12 29 12t29 -11q9 -8 17 -27l63 -129q71 -144 99 -206q51 -111 51 -130q0 -17 -13.5 -28.5t-31.5 -11.5q-27 0 -60 65l-32 76h-243zM427 283l-84 178l-83 -178h167z
M343 382l31 -65h-61zM398 840l1.5 -3l1.5 -3q3 9 3 19q0 59 61 59q58 0 58 -59q0 -26 -7.5 -50t-18.5 -44q-18 -26 -43 -42t-57 -16q-55 0 -101 70q-5 -11 -10 -27t-13 -39q-51 -8 -73 7t-22 48q0 26 5 47.5t16 41.5q36 61 100 61q52 0 98 -70h1zM394 777q23 0 39 25
q6 11 10 24.5t4 26.5q0 17 18 17q16 0 16 -17q0 -40 -19 -72q-11 -17 -28 -27.5t-37 -10.5q-33 0 -65 50q-26 41 -32 41q-16 0 -29 -16q-2 -3 -9.5 -21t-18.5 -53q-24 -4 -24 16q0 38 17 69q12 20 27 29.5t36 9.5q28 0 63 -51q27 -40 32 -40zM379 828q-39 60 -80 60
q-52 0 -80 -50q-20 -34 -20 -78q0 -21 13.5 -30.5t44.5 -4.5q27 79 31 83l-1 -2q6 8 13 8q-4 -1 15 -32q38 -59 82 -59q26 0 46 13t35 35q23 35 23 82q0 17 -9 27.5t-27 10.5q-20 0 -29 -10.5t-9 -27.5q0 -21 -11 -41v1q-8 -15 -22 -15q4 0 -15 30z" />
    <glyph glyph-name="Aacute" unicode="&#xc1;" horiz-adv-x="687" 
d="M265 137q-38 -80 -48 -94q-35 -48 -88 -48q-45 0 -77.5 31.5t-32.5 75.5q0 41 49 153q36 82 97 201l72 140q17 34 43.5 55t62.5 21q38 0 63.5 -20t42.5 -56q2 -5 72 -140q65 -126 98 -201q49 -111 49 -153q0 -44 -32.5 -75.5t-77.5 -31.5q-54 0 -88 47q-10 14 -48 95
h-157zM558 28q30 0 53.5 21.5t23.5 52.5q0 32 -50 143q-39 88 -98 203l-68 133q-13 29 -29 42q-19 16 -47 16q-27 0 -44.5 -15t-30.5 -43q-9 -19 -68 -134q-68 -132 -98 -200q-50 -112 -50 -145q0 -31 22.5 -52.5t54.5 -21.5t59 33q10 12 55 109h200l40 -88q32 -54 75 -54z
M222 203l-45 -100q-25 -41 -48 -41q-17 0 -30.5 11.5t-13.5 28.5q0 20 62 154l151 311q8 18 16 26q12 12 29 12t29 -11q9 -8 17 -27l63 -129q71 -144 99 -206q51 -111 51 -130q0 -17 -13.5 -28.5t-31.5 -11.5q-27 0 -60 65l-32 76h-243zM427 283l-84 178l-83 -178h167z
M343 382l31 -65h-61zM328 710q-30 0 -51.5 21.5t-21.5 50.5q0 27 25 56l44 43q13 13 21 19q19 14 43 14q30 0 51 -21t21 -50q0 -16 -6 -28.5t-28 -35.5q-50 -50 -56 -54q-22 -15 -42 -15zM278 782q0 -21 15 -35t35 -14q13 0 24 7.5t24 20l27 25.5q34 33 34 57q0 19 -15 34
t-34 15q-13 0 -20.5 -4t-27.5 -23q-6 -6 -28 -26q-34 -34 -34 -57zM328 756q-8 0 -15 5q-11 8 -11 21t36.5 49.5t49.5 36.5q11 0 18.5 -7.5t7.5 -17.5q0 -14 -36.5 -50.5t-49.5 -36.5z" />
    <glyph glyph-name="ucircumflex" unicode="&#xfb;" horiz-adv-x="502" 
d="M413 632q0 -34 -23 -51t-66 -17q-23 19 -40.5 35.5t-31.5 31.5l-3 3q-28 -29 -54 -49t-39 -20q-10 0 -21 2.5t-23 11.5q-25 23 -25 53q0 15 15 37.5t44 54.5l71 76h61l16 -15q6 -5 14 -13t11 -14q6 -5 11.5 -11l10.5 -11q2 -4 5.5 -6.5t5.5 -4.5v1q61 -62 61 -94z
M364 632q0 -20 -22 -20q-13 10 -26.5 23.5l-28.5 27.5l-16 18l-22 25q-34 -39 -60 -66t-33 -27q-9 0 -12 4h2q-10 4 -10 15t45 60l57 61h22q4 -5 10.5 -11.5t10.5 -11.5q16 -19 36 -37q47 -50 47 -61zM388 632q0 11 -14 29t-41 46l-16.5 18.5t-16.5 17.5l-1 2l-15 15.5
l-15 15.5h-41l-64 -70q-26 -28 -39 -45.5t-13 -28.5q0 -18 16 -34q8 -6 14.5 -7.5t13.5 -1.5q11 0 37.5 24.5t55.5 58.5q7 -9 10 -12l4 -4l2 -2l5 -5v-1q26 -27 63 -60q55 0 55 44zM472 245q0 -117 -51 -183q-57 -76 -173 -76q-115 0 -172 76q-51 67 -51 183v178q0 47 19 76
q23 34 69 34q55 0 76 -47q16 -36 16 -108q0 -23 -1.5 -56t-2.5 -72q0 -47 9.5 -70.5t37.5 -23.5q29 0 39 26t10 76q0 21 -2 73.5t-2 57.5q0 68 16 101q21 43 74 43q46 0 69 -33q20 -29 20 -77v-178zM248 130q-43 0 -61 38q-14 30 -14 91q0 28 2.5 76.5t2.5 57.5q0 56 -11 80
q-15 33 -54 33q-35 0 -48 -23t-13 -60v-174q0 -107 42 -166q49 -70 154 -70q106 0 155 70q42 58 42 166v174q0 39 -11 58q-15 25 -51 25q-35 0 -48 -23t-13 -60l1 -172q0 -54 -11 -80q-17 -41 -64 -41zM418 244q0 -93 -36 -143q-43 -61 -134 -61t-133 60q-36 50 -36 144v179
q0 28 5.5 42.5t28.5 14.5t30.5 -23t7.5 -66q0 -20 -2 -70.5t-2 -55.5q0 -76 17 -112q24 -49 84 -49q61 0 85 50q18 39 18 117q0 23 -1.5 56t-2.5 72q0 41 7 61t29 20q17 0 26 -11.5t9 -45.5v-179z" />
    <glyph glyph-name="ugrave" unicode="&#xf9;" horiz-adv-x="497" 
d="M472 245q0 -117 -51 -183q-57 -76 -173 -76q-115 0 -172 76q-51 67 -51 183v178q0 47 19 76q23 34 69 34q55 0 76 -47q16 -36 16 -108q0 -23 -1.5 -56t-2.5 -72q0 -47 9.5 -70.5t37.5 -23.5q29 0 39 26t10 76q0 21 -2 73.5t-2 57.5q0 68 16 101q21 43 74 43q46 0 69 -33
q20 -29 20 -77v-178zM248 130q-43 0 -61 38q-14 30 -14 91q0 28 2.5 76.5t2.5 57.5q0 56 -11 80q-15 33 -54 33q-35 0 -48 -23t-13 -60v-174q0 -107 42 -166q49 -70 154 -70q106 0 155 70q42 58 42 166v174q0 39 -11 58q-15 25 -51 25q-35 0 -48 -23t-13 -60l1 -172
q0 -54 -11 -80q-17 -41 -64 -41zM418 244q0 -93 -36 -143q-43 -61 -134 -61t-133 60q-36 50 -36 144v179q0 28 5.5 42.5t28.5 14.5t30.5 -23t7.5 -66q0 -20 -2 -70.5t-2 -55.5q0 -76 17 -112q24 -49 84 -49q61 0 85 50q18 39 18 117q0 23 -1.5 56t-2.5 72q0 41 7 61t29 20
q17 0 26 -11.5t9 -45.5v-179zM258 566q-20 0 -42 15q-6 4 -56 54q-22 23 -28 35.5t-6 28.5q0 29 21 50t51 21q24 0 43 -14q8 -6 21 -19l44 -43q25 -29 25 -56q0 -29 -21.5 -50.5t-51.5 -21.5zM308 638q0 23 -34 57q-22 20 -28 26q-20 19 -27.5 23t-20.5 4q-19 0 -34 -15
t-15 -34q0 -24 34 -57l27 -25.5t24 -20t24 -7.5q20 0 35 14t15 35zM258 612q-13 0 -49.5 36.5t-36.5 50.5q0 10 7.5 17.5t18.5 7.5q13 0 49.5 -36.5t36.5 -49.5t-11 -21q-7 -5 -15 -5z" />
    <glyph glyph-name="uacute" unicode="&#xfa;" 
d="M235 566q-30 0 -51.5 21.5t-21.5 50.5q0 27 25 56l44 43q13 13 21 19q19 14 43 14q30 0 51 -21t21 -50q0 -16 -6 -28.5t-28 -35.5q-50 -50 -56 -54q-22 -15 -42 -15zM185 638q0 -21 15 -35t35 -14q13 0 24 7.5t24 20l27 25.5q34 33 34 57q0 19 -15 34t-34 15
q-13 0 -20.5 -4t-27.5 -23q-6 -6 -28 -26q-34 -34 -34 -57zM235 612q-8 0 -15 5q-11 8 -11 21t36.5 49.5t49.5 36.5q11 0 18.5 -7.5t7.5 -17.5q0 -14 -36.5 -50.5t-49.5 -36.5zM472 245q0 -117 -51 -183q-57 -76 -173 -76q-115 0 -172 76q-51 67 -51 183v178q0 47 19 76
q23 34 69 34q55 0 76 -47q16 -36 16 -108q0 -23 -1.5 -56t-2.5 -72q0 -47 9.5 -70.5t37.5 -23.5q29 0 39 26t10 76q0 21 -2 73.5t-2 57.5q0 68 16 101q21 43 74 43q46 0 69 -33q20 -29 20 -77v-178zM248 130q-43 0 -61 38q-14 30 -14 91q0 28 2.5 76.5t2.5 57.5q0 56 -11 80
q-15 33 -54 33q-35 0 -48 -23t-13 -60v-174q0 -107 42 -166q49 -70 154 -70q106 0 155 70q42 58 42 166v174q0 39 -11 58q-15 25 -51 25q-35 0 -48 -23t-13 -60l1 -172q0 -54 -11 -80q-17 -41 -64 -41zM418 244q0 -93 -36 -143q-43 -61 -134 -61t-133 60q-36 50 -36 144v179
q0 28 5.5 42.5t28.5 14.5t30.5 -23t7.5 -66q0 -20 -2 -70.5t-2 -55.5q0 -76 17 -112q24 -49 84 -49q61 0 85 50q18 39 18 117q0 23 -1.5 56t-2.5 72q0 41 7 61t29 20q17 0 26 -11.5t9 -45.5v-179z" />
    <glyph glyph-name="udieresis" unicode="&#xfc;" horiz-adv-x="510" 
d="M249 625q0 -27 -20 -47t-47 -20t-46.5 19.5t-19.5 47.5q0 27 19.5 46.5t46.5 19.5q28 0 47.5 -19.5t19.5 -46.5zM136 625q0 -19 13 -33t33 -14t33.5 13.5t13.5 33.5q0 19 -13.5 32.5t-33.5 13.5q-19 0 -32.5 -13.5t-13.5 -32.5zM208 625q0 -11 -7.5 -18.5t-18.5 -7.5
q-10 0 -17.5 7.5t-7.5 18.5q0 10 7 17.5t18 7.5t18.5 -7.5t7.5 -17.5zM395 625q0 -27 -20 -47t-47 -20t-46.5 19.5t-19.5 47.5q0 27 19.5 46.5t46.5 19.5q28 0 47.5 -19.5t19.5 -46.5zM282 625q0 -19 13 -33t33 -14t33.5 13.5t13.5 33.5q0 19 -13.5 32.5t-33.5 13.5
q-19 0 -32.5 -13.5t-13.5 -32.5zM354 625q0 -11 -7.5 -18.5t-18.5 -7.5q-10 0 -17.5 7.5t-7.5 18.5q0 10 7 17.5t18 7.5t18.5 -7.5t7.5 -17.5zM472 245q0 -117 -51 -183q-57 -76 -173 -76q-115 0 -172 76q-51 67 -51 183v178q0 47 19 76q23 34 69 34q55 0 76 -47
q16 -36 16 -108q0 -23 -1.5 -56t-2.5 -72q0 -47 9.5 -70.5t37.5 -23.5q29 0 39 26t10 76q0 21 -2 73.5t-2 57.5q0 68 16 101q21 43 74 43q46 0 69 -33q20 -29 20 -77v-178zM248 130q-43 0 -61 38q-14 30 -14 91q0 28 2.5 76.5t2.5 57.5q0 56 -11 80q-15 33 -54 33
q-35 0 -48 -23t-13 -60v-174q0 -107 42 -166q49 -70 154 -70q106 0 155 70q42 58 42 166v174q0 39 -11 58q-15 25 -51 25q-35 0 -48 -23t-13 -60l1 -172q0 -54 -11 -80q-17 -41 -64 -41zM418 244q0 -93 -36 -143q-43 -61 -134 -61t-133 60q-36 50 -36 144v179q0 28 5.5 42.5
t28.5 14.5t30.5 -23t7.5 -66q0 -20 -2 -70.5t-2 -55.5q0 -76 17 -112q24 -49 84 -49q61 0 85 50q18 39 18 117q0 23 -1.5 56t-2.5 72q0 41 7 61t29 20q17 0 26 -11.5t9 -45.5v-179z" />
    <glyph glyph-name="ydieresis" unicode="&#xff;" 
d="M244 628q0 -27 -20 -47t-47 -20t-46.5 19.5t-19.5 47.5q0 27 19.5 46.5t46.5 19.5q28 0 47.5 -19.5t19.5 -46.5zM131 628q0 -19 13 -33t33 -14t33.5 13.5t13.5 33.5q0 19 -13.5 32.5t-33.5 13.5q-19 0 -32.5 -13.5t-13.5 -32.5zM203 628q0 -11 -7.5 -18.5t-18.5 -7.5
q-10 0 -17.5 7.5t-7.5 18.5q0 10 7 17.5t18 7.5t18.5 -7.5t7.5 -17.5zM390 628q0 -27 -20 -47t-47 -20t-46.5 19.5t-19.5 47.5q0 27 19.5 46.5t46.5 19.5q28 0 47.5 -19.5t19.5 -46.5zM277 628q0 -19 13 -33t33 -14t33.5 13.5t13.5 33.5q0 19 -13.5 32.5t-33.5 13.5
q-19 0 -32.5 -13.5t-13.5 -32.5zM349 628q0 -11 -7.5 -18.5t-18.5 -7.5q-10 0 -17.5 7.5t-7.5 18.5q0 10 7 17.5t18 7.5t18.5 -7.5t7.5 -17.5zM23 439q0 35 26.5 60.5t62.5 25.5q50 0 101 -75l40 -63l53 86q39 52 83 52q36 0 62 -25t26 -61q0 -38 -65.5 -128l-73.5 -101
q0 -16 1.5 -49t1.5 -36q0 -83 -26 -115q-21 -26 -65 -26q-53 0 -74 44q-16 33 -16 96q0 24 1 45l2 41l-100 135q-40 63 -40 94zM250 10q38 0 54 37q13 30 13 81q0 25 -2 48t-3 42l96 132q43 66 43 88q0 24 -19 42t-43 18q-37 0 -84 -69q-44 -76 -52 -88l-75 113
q-38 44 -66 44q-25 0 -43.5 -17.5t-18.5 -42.5q0 -27 68 -124l71 -96q0 -14 -1 -26q-4 -49 -4 -64q0 -52 12 -80q16 -38 54 -38zM77 438q0 14 10 24t25 10q23 0 84 -86q29 -41 59 -91l75 122q40 55 59 55q13 0 24 -10t11 -24q0 -13 -42 -76l-97 -136v-133q0 -27 -4 -37
q-8 -19 -31 -19q-25 0 -29.5 20t-4.5 36v133l-71 99q-68 97 -68 113z" />
    <glyph glyph-name="ccedilla" unicode="&#xe7;" horiz-adv-x="579" 
d="M454 361h-1h1zM294 -61q2 0 5.5 1t5.5 3q5 4 8 9t-1 14q-1 2 -4.5 4t-11.5 2q-20 0 -20 -17q0 -16 18 -16zM306 171q30 0 60 23l-1 -1q28 24 52.5 37.5t37.5 13.5q17 0 32.5 -8t28 -20t20 -28t7.5 -33q0 -80 -100 -130q-9 -5 -11 -6.5t-3 -2l-4 -2t-11 -3.5
q11 -23 11 -55q0 -28 -9 -52.5t-26 -42t-40.5 -27.5t-52.5 -10q-104 0 -141 168l21 1l9 24q-21 9 -38 21t-34 28q-81 80 -81 193q0 59 20 106t60 87q81 81 194 81q31 0 66 -9.5t70 -28.5q101 -56 101 -134q0 -40 -26 -64t-65 -24q-14 0 -37 12.5t-51 39.5h1q-29 24 -58 24
q-40 0 -65 -26q-26 -25 -26 -65t26 -62q24 -25 63 -25zM306 140q-51 0 -85 34v-1q-35 35 -35 85q0 53 35 87q35 35 87 35q20 0 39 -8t37 -24q53 -45 69 -45q26 0 43.5 16.5t17.5 41.5q0 61 -85 108q-66 33 -122 33q-101 0 -172 -71q-35 -35 -53.5 -77.5t-18.5 -94.5
q0 -102 73 -171q39 -37 91 -56l-23 -54l15 -10l-26 -2q24 -112 104 -112q44 0 71.5 30t27.5 72q0 44 -30 71q15 4 31 10t33 15q83 43 83 103q0 22 -17.5 40t-40.5 18q-8 0 -26.5 -10.5t-44.5 -32.5q-38 -30 -78 -30zM306 20q28 0 44.5 -17.5t16.5 -46.5q0 -30 -19 -51.5
t-51 -21.5q-58 0 -70 57l35 4q2 -11 13 -19t23 -8q34 0 34 38q0 16 -11 26.5t-26 10.5q-21 0 -32 -17l-25 14l27 62q-61 12 -109 58q-65 62 -65 150q0 90 63.5 152t152.5 62q50 0 108 -30q70 -37 70 -82q0 -13 -9.5 -22t-22.5 -9q-4 0 -49 39t-96 39q-64 0 -107.5 -42
t-43.5 -108q0 -61 44 -104t105 -43q52 0 97 37.5t52 37.5q10 0 19.5 -10t9.5 -21q0 -43 -67 -77q-58 -31 -108 -31h-16l-13 -32q11 5 26 5z" />
    <glyph glyph-name="eacute" unicode="&#xe9;" horiz-adv-x="435" 
d="M206 572q-30 0 -51.5 21.5t-21.5 50.5q0 27 25 56l44 43q13 13 21 19q19 14 43 14q30 0 51 -21t21 -50q0 -16 -6 -28.5t-28 -35.5q-50 -50 -56 -54q-22 -15 -42 -15zM156 644q0 -21 15 -35t35 -14q13 0 24 7.5t24 20l27 25.5q34 33 34 57q0 19 -15 34t-34 15
q-13 0 -20.5 -4t-27.5 -23q-6 -6 -28 -26q-34 -34 -34 -57zM206 618q-8 0 -15 5q-11 8 -11 21t36.5 49.5t49.5 36.5q11 0 18.5 -7.5t7.5 -17.5q0 -14 -36.5 -50.5t-49.5 -36.5zM415 73q0 -45 -31 -68q-28 -19 -73 -19h-168q-58 0 -85 26t-27 85v324q0 111 111 111h169
q45 0 74.5 -21t29.5 -66q0 -53 -43 -75q-30 -15 -91 -15q-14 0 -38.5 1t-33.5 1v-17h26t28 1q68 0 94 -23q22 -20 22 -60q0 -39 -24 -59q-27 -23 -101 -23h-23.5t-21.5 1v-17q12 0 41.5 1t30.5 1q78 0 109 -25q25 -22 25 -64zM182 204q12 0 41 -1.5t33 -1.5q42 0 65 10
q30 14 30 47t-27.5 46t-70.5 13q-22 0 -39 -1t-32 -2v70q14 0 45 -2.5t46 -2.5q52 0 78 12q37 15 37 54q0 34 -22 46.5t-58 12.5h-162q-50 0 -69 -18t-19 -69v-317q0 -50 19.5 -68.5t68.5 -18.5h166q33 0 52 12q24 15 24 48q0 37 -37 53q-28 13 -80 13q-24 0 -47.5 -2
t-41.5 -3v70zM308 106q24 0 38 -5.5t14 -27.5q0 -16 -10 -24.5t-39 -8.5h-168q-35 0 -46.5 11t-11.5 47v322q0 36 11.5 47t46.5 11h168q22 0 35.5 -6.5t13.5 -26.5q0 -22 -17 -29q-10 -4 -35 -4h-152v-126h121q23 0 35.5 -4.5t12.5 -23.5q0 -18 -13.5 -22.5t-34.5 -4.5h-121
v-125h152z" />
    <glyph glyph-name="ecircumflex" unicode="&#xea;" horiz-adv-x="448" 
d="M384 628q0 -34 -23 -51t-66 -17q-23 19 -40.5 35.5t-31.5 31.5l-3 3q-28 -29 -54 -49t-39 -20q-10 0 -21 2.5t-23 11.5q-25 23 -25 53q0 15 15 37.5t44 54.5l71 76h61l16 -15q6 -5 14 -13t11 -14q6 -5 11.5 -11l10.5 -11q2 -4 5.5 -6.5t5.5 -4.5v1q61 -62 61 -94z
M335 628q0 -20 -22 -20q-13 10 -26.5 23.5l-28.5 27.5l-16 18l-22 25q-34 -39 -60 -66t-33 -27q-9 0 -12 4h2q-10 4 -10 15t45 60l57 61h22q4 -5 10.5 -11.5t10.5 -11.5q16 -19 36 -37q47 -50 47 -61zM359 628q0 11 -14 29t-41 46l-16.5 18.5t-16.5 17.5l-1 2l-15 15.5
l-15 15.5h-41l-64 -70q-26 -28 -39 -45.5t-13 -28.5q0 -18 16 -34q8 -6 14.5 -7.5t13.5 -1.5q11 0 37.5 24.5t55.5 58.5q7 -9 10 -12l4 -4l2 -2l5 -5v-1q26 -27 63 -60q55 0 55 44zM415 73q0 -45 -31 -68q-28 -19 -73 -19h-168q-58 0 -85 26t-27 85v324q0 111 111 111h169
q45 0 74.5 -21t29.5 -66q0 -53 -43 -75q-30 -15 -91 -15q-14 0 -38.5 1t-33.5 1v-17h26t28 1q68 0 94 -23q22 -20 22 -60q0 -39 -24 -59q-27 -23 -101 -23h-23.5t-21.5 1v-17q12 0 41.5 1t30.5 1q78 0 109 -25q25 -22 25 -64zM182 204q12 0 41 -1.5t33 -1.5q42 0 65 10
q30 14 30 47t-27.5 46t-70.5 13q-22 0 -39 -1t-32 -2v70q14 0 45 -2.5t46 -2.5q52 0 78 12q37 15 37 54q0 34 -22 46.5t-58 12.5h-162q-50 0 -69 -18t-19 -69v-317q0 -50 19.5 -68.5t68.5 -18.5h166q33 0 52 12q24 15 24 48q0 37 -37 53q-28 13 -80 13q-24 0 -47.5 -2
t-41.5 -3v70zM308 106q24 0 38 -5.5t14 -27.5q0 -16 -10 -24.5t-39 -8.5h-168q-35 0 -46.5 11t-11.5 47v322q0 36 11.5 47t46.5 11h168q22 0 35.5 -6.5t13.5 -26.5q0 -22 -17 -29q-10 -4 -35 -4h-152v-126h121q23 0 35.5 -4.5t12.5 -23.5q0 -18 -13.5 -22.5t-34.5 -4.5h-121
v-125h152z" />
    <glyph glyph-name="periodcentered" unicode="&#xb7;" horiz-adv-x="295" 
d="M255 333q0 -45 -31 -76t-77 -31q-45 0 -76 31t-31 76t31.5 76.5t75.5 31.5q45 0 76.5 -31.5t31.5 -76.5zM73 333q0 -31 21.5 -52.5t52.5 -21.5t53 21t22 53t-21.5 53.5t-53.5 21.5q-31 0 -52.5 -21.5t-21.5 -53.5zM188 333q0 -17 -12 -29t-29 -12t-29 12t-12 29t12 29
t29 12q18 0 29.5 -11.5t11.5 -29.5z" />
    <glyph glyph-name="ordfeminine" unicode="&#xaa;" horiz-adv-x="403" 
d="M253 431q-6 -19 -15 -28q-20 -18 -67 -18q-34 0 -47 12h1q-8 10 -8 22q0 21 26 31q27 11 110 21v-40zM318 537q0 57 -36 86q-17 14 -40 20.5t-54 7.5q-60 0 -92 -23q-38 -29 -39 -78q0 -35 32 -35q33 0 33 35q0 19 13 26h-1q19 11 54 11q19 0 31.5 -3.5t20.5 -9.5
q13 -11 13 -37q-62 -5 -107 -18h1q-49 -12 -73 -41q-22 -22 -22 -59q0 -43 29 -72q28 -27 75 -27q72 0 111 30q16 -26 54 -26q36 0 36 31q0 32 -36 32l-1 1q-2 5 -2 15.5v27.5v106zM302 431q0 -35 4 -46q3 -13 15 -13q20 0 20 -17q0 -16 -20 -16q-35 0 -45 26q-2 6 -3 12
q-6 -7 -11 -12q-33 -30 -106 -30q-41 0 -65 24q-23 22 -23 60q0 30 17 50q22 26 65 35q50 13 118 19v14q0 33 -19 48q-20 16 -61 16q-39 0 -61 -12q-20 -13 -20 -39q0 -20 -18 -20q-17 0 -17 20q0 43 32 65q30 21 84 21q55 -1 85 -23q29 -25 29 -76v-106v0zM268 489
q-99 -13 -131 -25q-35 -14 -35 -45q0 -21 13 -33q18 -16 56 -16q55 0 77 22q15 14 20 39v58zM334 403q39 -6 39 -48q0 -48 -52 -48q-37 0 -58 20q-41 -23 -107 -23q-55 0 -87 33q-32 32 -32 82q0 43 24 70q2 3 5 5.5t5 4.5q-30 9 -30 51q2 60 46 91q36 27 101 27
q67 -1 105 -32q41 -33 41 -99v-106v-28zM236 452q-32 -5 -54 -9t-33 -9q-15 -4 -15 -15q0 -7 2 -11v2q5 -5 14 -7t21 -2q38 0 55 12l5.5 9t4.5 10v20zM137 550v-9t-1 -7q1 1 2.5 1t3.5 1q20 5 43.5 9.5t48.5 6.5q-1 5 -5 9q-11 9 -41 9q-32 0 -45 -8q-2 -2 -4 -4.5t-2 -7.5z
M204 355h-1h1z" />
    <glyph glyph-name="ordmasculine" unicode="&#xba;" horiz-adv-x="436" 
d="M425 514q0 -85 -61 -146t-148 -61q-85 0 -146 61t-61 146q0 86 61.5 147.5t145.5 61.5q86 0 147.5 -61.5t61.5 -147.5zM29 514q0 -77 55 -132t132 -55t133 55t56 132q0 79 -55 134t-134 55q-77 0 -132 -55t-55 -134zM385 514q0 -69 -49 -118t-120 -49q-69 0 -118 49
t-49 118q0 71 49 120t118 49q71 0 120 -49t49 -120zM100 514q0 -48 34 -82t82 -34q50 0 84 34t34 82q0 50 -34 84t-84 34q-48 0 -82 -34t-34 -84zM313 514q0 -39 -27.5 -67t-69.5 -28q-40 0 -67.5 27.5t-27.5 67.5q0 41 27.5 69t67.5 28q41 0 69 -27.5t28 -69.5zM141 514
q0 -31 22 -53t53 -22q33 0 55 21.5t22 53.5q0 33 -22 55t-55 22q-31 0 -53 -22t-22 -55z" />
    <glyph glyph-name="Odieresis" unicode="&#xd6;" horiz-adv-x="763" 
d="M730 334q0 -144 -102.5 -246.5t-245.5 -102.5q-144 0 -246.5 102.5t-102.5 246.5t102 246t247 102q144 0 246 -102t102 -246zM67 333q0 -130 92 -222t223 -92q129 0 222 92t93 222q0 131 -92 223t-223 92t-223 -92t-92 -223zM663 334q0 -117 -82.5 -199.5t-198.5 -82.5
t-199 83t-83 199t82.5 198.5t199.5 82.5t199 -82t82 -199zM187 333q0 -80 56.5 -137.5t138.5 -57.5q81 0 138 57t57 138t-57.5 138.5t-137.5 57.5q-81 0 -138 -57t-57 -139zM543 334q0 -67 -47 -115t-114 -48q-68 0 -115 47t-47 116q0 67 47 114t115 47q67 0 114 -47
t47 -114zM254 334q0 -53 37 -91t91 -38q52 0 90 38t38 91t-37.5 90.5t-90.5 37.5q-54 0 -91 -37t-37 -91zM373 787q0 -27 -20 -47t-47 -20t-46.5 19.5t-19.5 47.5q0 27 19.5 46.5t46.5 19.5q28 0 47.5 -19.5t19.5 -46.5zM260 787q0 -19 13 -33t33 -14t33.5 13.5t13.5 33.5
q0 19 -13.5 32.5t-33.5 13.5q-19 0 -32.5 -13.5t-13.5 -32.5zM332 787q0 -11 -7.5 -18.5t-18.5 -7.5q-10 0 -17.5 7.5t-7.5 18.5q0 10 7 17.5t18 7.5t18.5 -7.5t7.5 -17.5zM519 787q0 -27 -20 -47t-47 -20t-46.5 19.5t-19.5 47.5q0 27 19.5 46.5t46.5 19.5q28 0 47.5 -19.5
t19.5 -46.5zM406 787q0 -19 13 -33t33 -14t33.5 13.5t13.5 33.5q0 19 -13.5 32.5t-33.5 13.5q-19 0 -32.5 -13.5t-13.5 -32.5zM478 787q0 -11 -7.5 -18.5t-18.5 -7.5q-10 0 -17.5 7.5t-7.5 18.5q0 10 7 17.5t18 7.5t18.5 -7.5t7.5 -17.5z" />
    <glyph glyph-name="Oacute" unicode="&#xd3;" horiz-adv-x="763" 
d="M730 334q0 -144 -102.5 -246.5t-245.5 -102.5q-144 0 -246.5 102.5t-102.5 246.5t102 246t247 102q144 0 246 -102t102 -246zM67 333q0 -130 92 -222t223 -92q129 0 222 92t93 222q0 131 -92 223t-223 92t-223 -92t-92 -223zM663 334q0 -117 -82.5 -199.5t-198.5 -82.5
t-199 83t-83 199t82.5 198.5t199.5 82.5t199 -82t82 -199zM187 333q0 -80 56.5 -137.5t138.5 -57.5q81 0 138 57t57 138t-57.5 138.5t-137.5 57.5q-81 0 -138 -57t-57 -139zM543 334q0 -67 -47 -115t-114 -48q-68 0 -115 47t-47 116q0 67 47 114t115 47q67 0 114 -47
t47 -114zM254 334q0 -53 37 -91t91 -38q52 0 90 38t38 91t-37.5 90.5t-90.5 37.5q-54 0 -91 -37t-37 -91zM361 719q-30 0 -51.5 21.5t-21.5 50.5q0 27 25 56l44 43q13 13 21 19q19 14 43 14q30 0 51 -21t21 -50q0 -16 -6 -28.5t-28 -35.5q-50 -50 -56 -54q-22 -15 -42 -15z
M311 791q0 -21 15 -35t35 -14q13 0 24 7.5t24 20l27 25.5q34 33 34 57q0 19 -15 34t-34 15q-13 0 -20.5 -4t-27.5 -23q-6 -6 -28 -26q-34 -34 -34 -57zM361 765q-8 0 -15 5q-11 8 -11 21t36.5 49.5t49.5 36.5q11 0 18.5 -7.5t7.5 -17.5q0 -14 -36.5 -50.5t-49.5 -36.5z" />
    <glyph glyph-name="Ocircumflex" unicode="&#xd4;" horiz-adv-x="763" 
d="M730 334q0 -144 -102.5 -246.5t-245.5 -102.5q-144 0 -246.5 102.5t-102.5 246.5t102 246t247 102q144 0 246 -102t102 -246zM67 333q0 -130 92 -222t223 -92q129 0 222 92t93 222q0 131 -92 223t-223 92t-223 -92t-92 -223zM663 334q0 -117 -82.5 -199.5t-198.5 -82.5
t-199 83t-83 199t82.5 198.5t199.5 82.5t199 -82t82 -199zM187 333q0 -80 56.5 -137.5t138.5 -57.5q81 0 138 57t57 138t-57.5 138.5t-137.5 57.5q-81 0 -138 -57t-57 -139zM543 334q0 -67 -47 -115t-114 -48q-68 0 -115 47t-47 116q0 67 47 114t115 47q67 0 114 -47
t47 -114zM254 334q0 -53 37 -91t91 -38q52 0 90 38t38 91t-37.5 90.5t-90.5 37.5q-54 0 -91 -37t-37 -91zM540 760q0 -34 -23 -51t-66 -17q-23 19 -40.5 35.5t-31.5 31.5l-3 3q-28 -29 -54 -49t-39 -20q-10 0 -21 2.5t-23 11.5q-25 23 -25 53q0 15 15 37.5t44 54.5l71 76h61
l16 -15q6 -5 14 -13t11 -14q6 -5 11.5 -11l10.5 -11q2 -4 5.5 -6.5t5.5 -4.5v1q61 -62 61 -94zM491 760q0 -20 -22 -20q-13 10 -26.5 23.5l-28.5 27.5l-16 18l-22 25q-34 -39 -60 -66t-33 -27q-9 0 -12 4h2q-10 4 -10 15t45 60l57 61h22q4 -5 10.5 -11.5t10.5 -11.5
q16 -19 36 -37q47 -50 47 -61zM515 760q0 11 -14 29t-41 46l-16.5 18.5t-16.5 17.5l-1 2l-15 15.5l-15 15.5h-41l-64 -70q-26 -28 -39 -45.5t-13 -28.5q0 -18 16 -34q8 -6 14.5 -7.5t13.5 -1.5q11 0 37.5 24.5t55.5 58.5q7 -9 10 -12l4 -4l2 -2l5 -5v-1q26 -27 63 -60
q55 0 55 44z" />
    <glyph glyph-name="Ograve" unicode="&#xd2;" horiz-adv-x="763" 
d="M730 334q0 -144 -102.5 -246.5t-245.5 -102.5q-144 0 -246.5 102.5t-102.5 246.5t102 246t247 102q144 0 246 -102t102 -246zM67 333q0 -130 92 -222t223 -92q129 0 222 92t93 222q0 131 -92 223t-223 92t-223 -92t-92 -223zM663 334q0 -117 -82.5 -199.5t-198.5 -82.5
t-199 83t-83 199t82.5 198.5t199.5 82.5t199 -82t82 -199zM187 333q0 -80 56.5 -137.5t138.5 -57.5q81 0 138 57t57 138t-57.5 138.5t-137.5 57.5q-81 0 -138 -57t-57 -139zM543 334q0 -67 -47 -115t-114 -48q-68 0 -115 47t-47 116q0 67 47 114t115 47q67 0 114 -47
t47 -114zM254 334q0 -53 37 -91t91 -38q52 0 90 38t38 91t-37.5 90.5t-90.5 37.5q-54 0 -91 -37t-37 -91zM379 719q-31 0 -66 35q-23 25 -32 34q-18 18 -24 28q-10 16 -10 36q0 29 21 50t51 21q20 0 35 -9q10 -6 28 -24l44 -43q25 -29 25 -56q0 -30 -21 -51t-51 -21z
M428 791q0 23 -34 57q-22 20 -28 26q-14 14 -20 18q-13 9 -27 9q-19 0 -34 -15t-15 -34q0 -24 34 -57l27 -25.5t24 -20t24 -7.5q20 0 34.5 14.5t14.5 34.5zM379 765q-13 0 -49.5 36.5t-36.5 50.5q0 10 7.5 17.5t18.5 7.5q13 0 49.5 -36.5t36.5 -49.5q0 -8 -4 -14
q-8 -12 -22 -12z" />
    <glyph glyph-name="ntilde" unicode="&#xf1;" horiz-adv-x="536" 
d="M117 -11q-47 0 -68 29.5t-21 77.5v329q0 49 21.5 78.5t68.5 29.5q50 0 126 -95q73 -102 84 -116q0 12 -1 41.5t-1 31.5q0 82 25 112q22 26 65 26q47 0 70 -31q20 -27 20 -76v-331q0 -47 -19 -74q-23 -32 -69 -32q-48 0 -127 97l-87 116q0 -9 1 -35.5t1 -42.5
q0 -61 -15 -92q-21 -43 -74 -43zM361 52q15 -19 24 -26q14 -11 33 -11q36 0 50 25q11 20 11 59v323q0 39 -11 58q-15 26 -52 26q-35 0 -48 -23t-13 -61v-176l-177 220q-16 21 -25 28q-15 12 -35 12q-36 0 -50 -23t-14 -61v-323q0 -39 11 -58q15 -26 52 -26q34 0 49 25
q12 21 12 59v180zM151 99q0 -28 -4 -38q-7 -19 -30 -19q-22 0 -29 15t-7 39v329q0 24 7.5 39.5t28.5 15.5q17 0 82 -76q46 -54 115 -144l68 -90v252q0 29 5.5 43.5t28.5 14.5q22 0 29 -15t7 -39v-330q0 -26 -4 -36q-8 -18 -30 -18q-17 0 -81 75l-116 143l-70 94v-255z
M324 697l1.5 -3l1.5 -3q3 9 3 19q0 59 61 59q58 0 58 -59q0 -26 -7.5 -50t-18.5 -44q-18 -26 -43 -42t-57 -16q-55 0 -101 70q-5 -11 -10 -27t-13 -39q-51 -8 -73 7t-22 48q0 26 5 47.5t16 41.5q36 61 100 61q52 0 98 -70h1zM320 634q23 0 39 25q6 11 10 24.5t4 26.5
q0 17 18 17q16 0 16 -17q0 -40 -19 -72q-11 -17 -28 -27.5t-37 -10.5q-33 0 -65 50q-26 41 -32 41q-16 0 -29 -16q-2 -3 -9.5 -21t-18.5 -53q-24 -4 -24 16q0 38 17 69q12 20 27 29.5t36 9.5q28 0 63 -51q27 -40 32 -40zM305 685q-39 60 -80 60q-52 0 -80 -50
q-20 -34 -20 -78q0 -21 13.5 -30.5t44.5 -4.5q27 79 31 83l-1 -2q6 8 13 8q-4 -1 15 -32q38 -59 82 -59q26 0 46 13t35 35q23 35 23 82q0 17 -9 27.5t-27 10.5q-20 0 -29 -10.5t-9 -27.5q0 -21 -11 -41v1q-8 -15 -22 -15q4 0 -15 30z" />
    <glyph glyph-name="dieresis" unicode="&#xa8;" horiz-adv-x="302" 
d="M146 525q0 -27 -20 -47t-47 -20t-46.5 19.5t-19.5 47.5q0 27 19.5 46.5t46.5 19.5q28 0 47.5 -19.5t19.5 -46.5zM33 525q0 -19 13 -33t33 -14t33.5 13.5t13.5 33.5q0 19 -13.5 32.5t-33.5 13.5q-19 0 -32.5 -13.5t-13.5 -32.5zM105 525q0 -11 -7.5 -18.5t-18.5 -7.5
q-10 0 -17.5 7.5t-7.5 18.5q0 10 7 17.5t18 7.5t18.5 -7.5t7.5 -17.5zM292 525q0 -27 -20 -47t-47 -20t-46.5 19.5t-19.5 47.5q0 27 19.5 46.5t46.5 19.5q28 0 47.5 -19.5t19.5 -46.5zM179 525q0 -19 13 -33t33 -14t33.5 13.5t13.5 33.5q0 19 -13.5 32.5t-33.5 13.5
q-19 0 -32.5 -13.5t-13.5 -32.5zM251 525q0 -11 -7.5 -18.5t-18.5 -7.5q-10 0 -17.5 7.5t-7.5 18.5q0 10 7 17.5t18 7.5t18.5 -7.5t7.5 -17.5z" />
    <glyph glyph-name="Agrave" unicode="&#xc0;" horiz-adv-x="687" 
d="M265 137q-38 -80 -48 -94q-35 -48 -88 -48q-45 0 -77.5 31.5t-32.5 75.5q0 41 49 153q36 82 97 201l72 140q17 34 43.5 55t62.5 21q38 0 63.5 -20t42.5 -56q2 -5 72 -140q65 -126 98 -201q49 -111 49 -153q0 -44 -32.5 -75.5t-77.5 -31.5q-54 0 -88 47q-10 14 -48 95
h-157zM558 28q30 0 53.5 21.5t23.5 52.5q0 32 -50 143q-39 88 -98 203l-68 133q-13 29 -29 42q-19 16 -47 16q-27 0 -44.5 -15t-30.5 -43q-9 -19 -68 -134q-68 -132 -98 -200q-50 -112 -50 -145q0 -31 22.5 -52.5t54.5 -21.5t59 33q10 12 55 109h200l40 -88q32 -54 75 -54z
M222 203l-45 -100q-25 -41 -48 -41q-17 0 -30.5 11.5t-13.5 28.5q0 20 62 154l151 311q8 18 16 26q12 12 29 12t29 -11q9 -8 17 -27l63 -129q71 -144 99 -206q51 -111 51 -130q0 -17 -13.5 -28.5t-31.5 -11.5q-27 0 -60 65l-32 76h-243zM427 283l-84 178l-83 -178h167z
M343 382l31 -65h-61zM334 719q-20 0 -42 15q-9 6 -57 54q-17 18 -23 28q-10 17 -10 36q0 29 21 50t51 21q20 0 35 -9q10 -6 28 -24l44 -43q25 -29 25 -56q0 -30 -21 -51t-51 -21zM383 791q0 23 -34 57q-22 20 -28 26q-20 19 -27.5 23t-19.5 4q-20 0 -35 -15t-15 -34
q0 -24 34 -57l27 -25.5t24.5 -20t24.5 -7.5q20 0 34.5 14.5t14.5 34.5zM334 765q-13 0 -49.5 36.5t-36.5 50.5q0 10 7.5 17.5t18.5 7.5q13 0 49.5 -36.5t36.5 -49.5q0 -8 -4 -14q-8 -12 -22 -12z" />
    <glyph glyph-name="agrave" unicode="&#xe0;" horiz-adv-x="566" 
d="M221 102q-30 -63 -38 -75q-28 -39 -70 -39q-36 0 -62 25t-26 61q0 33 39 122q26 59 79.5 163l56.5 110q13 28 34 44.5t50 16.5q31 0 51 -15.5t34 -45.5l57 -112q59 -115 79 -160q39 -89 39 -123q0 -36 -26 -61t-62 -25q-42 0 -70 38q-9 13 -39 76h-126zM456 15
q25 0 43.5 17.5t18.5 41.5q0 25 -40 114q-30 67 -78 162l-55 108q-11 22 -23 32q-15 13 -38 13q-22 0 -36 -11t-24 -34l-124 -248q-49 -106 -49 -136q0 -24 18.5 -41.5t43.5 -17.5q39 0 68 61q17 40 23 53h160l32 -71q25 -43 60 -43zM187 155l-25 -61q-26 -52 -49 -52
q-14 0 -24.5 9.5t-10.5 22.5q0 15 40 103l78 165l52 104q6 14 14.5 22.5t21.5 8.5q14 0 23 -9q6 -6 14 -22l50 -103l79 -165q41 -90 41 -104q0 -13 -10.5 -22.5t-25.5 -9.5q-22 0 -48 52l-26 61h-194zM351 219l-67 142l-66 -142h133zM284 298l25 -52h-49zM271 593
q-31 0 -66 35q-23 25 -32 34q-22 24 -28 35.5t-6 27.5q0 30 21 51t51 21q19 0 35 -10q11 -7 29 -24q48 -48 53 -55q15 -22 15 -43q0 -30 -21 -51t-51 -21zM320 665q0 23 -34 57q-22 19 -28 25q-13 14 -20 19q-13 9 -27 9q-19 0 -34 -15t-15 -35q0 -22 34 -56l27 -25.5
t24 -20t24 -7.5q20 0 34.5 14.5t14.5 34.5zM271 639q-13 0 -49.5 36.5t-36.5 49.5q0 11 7.5 18.5t18.5 7.5q13 0 49.5 -36.5t36.5 -49.5q0 -8 -4 -14q-8 -12 -22 -12z" />
    <glyph glyph-name="acircumflex" unicode="&#xe2;" horiz-adv-x="571" 
d="M223 104q-30 -64 -38 -75q-27 -38 -70 -38q-35 0 -62 25t-27 61q0 34 39 122q27 62 78 160l58 112q14 29 34.5 45t50.5 16q31 0 51 -15.5t34 -45.5l57 -112q59 -114 79 -160q39 -89 39 -122q0 -36 -26 -61t-62 -25q-42 0 -70 38q-10 14 -39 75h-126zM458 18
q24 0 42.5 17.5t18.5 41.5q0 25 -40 114q-30 67 -78 162l-54 107q-11 23 -23 33q-15 13 -38 13q-22 0 -36 -12t-24 -34l-124 -248q-49 -106 -49 -136q0 -24 19 -41t43 -17q39 0 68 61l23 52h160l32 -70q25 -43 60 -43zM189 158q-20 -52 -25 -62q-26 -52 -49 -52
q-14 0 -24.5 9.5t-10.5 23.5q0 15 40 103l78 165l52 104q5 11 9 16q11 14 27 14q14 0 23 -9q6 -6 13 -20.5l51 -104.5q66 -135 79 -164q41 -90 41 -104t-10.5 -23.5t-25.5 -9.5q-22 0 -48 52q-23 56 -26 62h-194zM353 222l-67 141l-66 -141h133zM286 300l25 -52h-49z
M444 630q0 -34 -23 -51t-66 -17q-23 19 -40.5 35.5t-31.5 31.5l-3 3q-28 -29 -54 -49t-39 -20q-10 0 -21 2.5t-23 11.5q-25 23 -25 53q0 15 15 37.5t44 54.5l71 76h61l16 -15q6 -5 14 -13t11 -14q6 -5 11.5 -11l10.5 -11q2 -4 5.5 -6.5t5.5 -4.5v1q61 -62 61 -94zM395 630
q0 -20 -22 -20q-13 10 -26.5 23.5l-28.5 27.5l-16 18l-22 25q-34 -39 -60 -66t-33 -27q-9 0 -12 4h2q-10 4 -10 15t45 60l57 61h22q4 -5 10.5 -11.5t10.5 -11.5q16 -19 36 -37q47 -50 47 -61zM419 630q0 11 -14 29t-41 46l-16.5 18.5t-16.5 17.5l-1 2l-15 15.5l-15 15.5h-41
l-64 -70q-26 -28 -39 -45.5t-13 -28.5q0 -18 16 -34q8 -6 14.5 -7.5t13.5 -1.5q11 0 37.5 24.5t55.5 58.5q7 -9 10 -12l4 -4l2 -2l5 -5v-1q26 -27 63 -60q55 0 55 44z" />
    <glyph glyph-name="aacute" unicode="&#xe1;" horiz-adv-x="566" 
d="M220 103q-30 -64 -38 -75q-28 -39 -71 -39q-36 0 -62 25t-26 61q0 34 39 122q27 60 78 160l58 113q13 27 34.5 44t50.5 17t50 -16t35 -45q6 -13 57 -112.5t78 -159.5q40 -91 40 -123q0 -35 -26.5 -60.5t-62.5 -25.5q-43 0 -70 38q-7 9 -38 76h-126zM454 16
q25 0 43.5 17.5t18.5 41.5q0 25 -40 114q-31 70 -78 162l-55 107q-10 23 -22 33q-15 13 -38 13q-21 0 -35.5 -12t-25.5 -34l-123 -248q-49 -107 -49 -135q0 -25 18 -42t43 -17q27 0 48 26q7 8 44 87h160l32 -70q25 -43 59 -43zM186 156l-36 -80q-21 -33 -39 -33q-13 0 -24 9
t-11 23q0 17 49 123l121 249q7 14 15 22t22 8q12 0 21 -8.5t15 -21.5l51 -103q45 -91 78 -165q41 -90 41 -104t-10 -23t-25 -9q-23 0 -49 52q-23 55 -25 61h-194zM349 220l-66 142l-67 -142h133zM283 299l24 -52h-49zM270 582q-30 0 -51.5 21.5t-21.5 50.5q0 27 25 56l44 43
q13 13 21 19q19 14 43 14q30 0 51 -21t21 -50q0 -16 -6 -28.5t-28 -35.5q-50 -50 -56 -54q-22 -15 -42 -15zM220 654q0 -21 15 -35t35 -14q13 0 24 7.5t24 20l27 25.5q34 33 34 57q0 19 -15 34t-34 15q-13 0 -20.5 -4t-27.5 -23q-6 -6 -28 -26q-34 -34 -34 -57zM270 628
q-8 0 -15 5q-11 8 -11 21t36.5 49.5t49.5 36.5q11 0 18.5 -7.5t7.5 -17.5q0 -14 -36.5 -50.5t-49.5 -36.5z" />
    <glyph glyph-name="adieresis" unicode="&#xe4;" horiz-adv-x="564" 
d="M220 104q-30 -64 -38 -75q-28 -38 -71 -38q-36 0 -62 25t-26 60q0 33 39 122q29 66 78 161l58 112q13 28 34 44.5t51 16.5t50 -15.5t35 -45.5q6 -13 57 -112.5t78 -159.5q40 -91 40 -123q0 -34 -26.5 -59.5t-62.5 -25.5q-43 0 -70 38q-8 11 -38 75h-126zM454 17
q25 0 43.5 17.5t18.5 41.5q0 26 -40 115q-31 69 -78 162l-55 107q-10 22 -22 32q-15 13 -38 13q-22 0 -36 -11t-25 -34l-123 -248q-49 -107 -49 -136q0 -25 18 -42t43 -17q40 0 69 61q17 40 23 53h160q36 -78 43 -87q21 -27 48 -27zM186 157l-36 -80q-20 -33 -39 -33
q-13 0 -24 9t-11 23q0 17 49 123l121 249q6 12 9 16q11 15 28 15q13 0 21.5 -8t14.5 -23l51 -103l78 -165q41 -90 41 -104t-10 -23t-25 -9q-23 0 -49 52l-25 61h-194zM349 221l-66 142l-67 -142h133zM283 300l24 -52h-49zM274 623q0 -27 -20 -47t-47 -20t-46.5 19.5
t-19.5 47.5q0 27 19.5 46.5t46.5 19.5q28 0 47.5 -19.5t19.5 -46.5zM161 623q0 -19 13 -33t33 -14t33.5 13.5t13.5 33.5q0 19 -13.5 32.5t-33.5 13.5q-19 0 -32.5 -13.5t-13.5 -32.5zM233 623q0 -11 -7.5 -18.5t-18.5 -7.5q-10 0 -17.5 7.5t-7.5 18.5q0 10 7 17.5t18 7.5
t18.5 -7.5t7.5 -17.5zM420 623q0 -27 -20 -47t-47 -20t-46.5 19.5t-19.5 47.5q0 27 19.5 46.5t46.5 19.5q28 0 47.5 -19.5t19.5 -46.5zM307 623q0 -19 13 -33t33 -14t33.5 13.5t13.5 33.5q0 19 -13.5 32.5t-33.5 13.5q-19 0 -32.5 -13.5t-13.5 -32.5zM379 623
q0 -11 -7.5 -18.5t-18.5 -7.5q-10 0 -17.5 7.5t-7.5 18.5q0 10 7 17.5t18 7.5t18.5 -7.5t7.5 -17.5z" />
    <glyph glyph-name="atilde" unicode="&#xe3;" horiz-adv-x="571" 
d="M223 103q-30 -64 -38 -75q-28 -39 -71 -39q-36 0 -62 25t-26 61q0 33 39 122q26 59 79.5 163l56.5 110q13 28 34 44t51 16t50 -15.5t34 -44.5l57 -112q59 -115 79 -160q39 -89 39 -123q0 -36 -26 -61t-62 -25q-43 0 -70 38q-7 9 -38 76h-126zM457 16q25 0 43.5 17.5
t18.5 41.5q0 25 -40 114q-33 73 -78 162l-55 107q-10 23 -22 33q-15 13 -38 13q-21 0 -36 -12.5t-25 -33.5l-123 -248q-49 -107 -49 -135q0 -25 18 -42t43 -17q27 0 48 26q7 8 44 87h159l32 -70q25 -43 60 -43zM189 156l-36 -80q-21 -33 -39 -33q-13 0 -24 9t-11 23
q0 17 49 123l121 249q7 14 15 22t22 8q12 0 21 -8.5t15 -21.5l51 -103q45 -91 78 -165q41 -90 41 -104t-10 -23t-25 -9q-23 0 -49 52q-23 55 -25 61h-194zM352 220l-66 142l-67 -142h133zM286 299l24 -52h-49zM341 707l1.5 -3l1.5 -3q3 9 3 19q0 59 61 59q58 0 58 -59
q0 -26 -7.5 -50t-18.5 -44q-18 -26 -43 -42t-57 -16q-55 0 -101 70q-5 -11 -10 -27t-13 -39q-51 -8 -73 7t-22 48q0 26 5 47.5t16 41.5q36 61 100 61q52 0 98 -70h1zM337 644q23 0 39 25q6 11 10 24.5t4 26.5q0 17 18 17q16 0 16 -17q0 -40 -19 -72q-11 -17 -28 -27.5
t-37 -10.5q-33 0 -65 50q-26 41 -32 41q-16 0 -29 -16q-2 -3 -9.5 -21t-18.5 -53q-24 -4 -24 16q0 38 17 69q12 20 27 29.5t36 9.5q28 0 63 -51q27 -40 32 -40zM322 695q-39 60 -80 60q-52 0 -80 -50q-20 -34 -20 -78q0 -21 13.5 -30.5t44.5 -4.5q27 79 31 83l-1 -2
q6 8 13 8q-4 -1 15 -32q38 -59 82 -59q26 0 46 13t35 35q23 35 23 82q0 17 -9 27.5t-27 10.5q-20 0 -29 -10.5t-9 -27.5q0 -21 -11 -41v1q-8 -15 -22 -15q4 0 -15 30z" />
    <glyph glyph-name="aring" unicode="&#xe5;" horiz-adv-x="566" 
d="M223 101q-30 -64 -38 -75q-28 -39 -71 -39q-35 0 -61.5 25.5t-26.5 60.5q0 34 39 122q27 60 78 160l58 113q14 28 33 43q23 18 52 18q30 0 52 -17q18 -14 33 -44q6 -13 57 -112.5t78 -159.5q40 -91 40 -123q0 -35 -26.5 -60.5t-62.5 -25.5q-43 0 -70 38q-7 9 -38 76h-126
zM457 14q25 0 43.5 17.5t18.5 41.5q0 25 -40 114q-31 70 -78 162l-55 107q-10 23 -22 33q-15 13 -38 13q-21 0 -35.5 -12t-25.5 -34q-4 -9 -53.5 -106t-78.5 -162q-40 -89 -40 -115q0 -25 18 -42t43 -17q27 0 48 26q7 9 44 87h160l32 -70q25 -43 59 -43zM189 154l-36 -80
q-20 -33 -39 -33q-13 0 -24 9t-11 23q0 16 40 103l79 165l52 104q6 14 14 22t22 8q12 0 21 -8.5t15 -21.5l121 -248q50 -108 50 -124q0 -14 -11 -23t-25 -9q-22 0 -48 52q-24 56 -26 61h-194zM352 218l-66 142l-66 -142h132zM286 297l25 -52h-50zM302 673q-5 3 -9 -2t-1 -8
q2 -2 4 -1l4 2q4 6 2 9zM402 676q0 -47 -33 -80t-80 -33q-44 0 -70 26t-26 71q0 49 31 79q32 35 81 35q42 0 69.5 -27t27.5 -71zM289 628q18 0 34 14q14 16 14 35q0 14 -9.5 23t-23.5 9q-20 0 -33.5 -13.5t-13.5 -33.5q0 -34 32 -34zM365 676q0 -34 -21 -55q-22 -22 -55 -22
q-27 0 -44 16.5t-17 44.5q0 32 22 54q22 24 55 24q26 0 43 -17t17 -45zM383 676q0 35 -22 57t-56 22q-39 0 -68 -29q-26 -26 -26 -66q0 -36 21.5 -57.5t56.5 -21.5q39 0 67 28q27 27 27 67zM289 645q-15 0 -15 17q0 12 9 21t21 9q7 0 11.5 -4.5t4.5 -10.5q0 -12 -9 -23
q-9 -9 -22 -9z" />
    <glyph glyph-name="Ucircumflex" unicode="&#xdb;" horiz-adv-x="648" 
d="M603 310q0 -146 -63 -229q-72 -95 -216 -95q-143 0 -215 95q-64 85 -64 229v225q0 60 23 95q28 42 87 42q69 0 95 -58q20 -44 20 -136q0 -37 -1 -60q-4 -93 -4 -98q0 -61 11.5 -90.5t47.5 -29.5t50 36q11 28 11 91q0 32 -2.5 92t-2.5 72q0 86 20 127q26 54 93 54
q58 0 86 -41q24 -35 24 -96v-225zM324 167q-55 0 -77 47q-17 37 -17 115q0 27 3 84t3 83q0 68 -15 101q-19 42 -66 42q-44 0 -62 -32q-14 -25 -14 -72l-1 -219q0 -134 52 -208q62 -88 194 -88q131 0 193 87q53 75 53 209v219q0 47 -14 72q-18 32 -63 32q-43 0 -62 -32
q-15 -26 -15 -72l1 -217q0 -69 -13 -100q-21 -51 -80 -51zM536 316q0 -120 -43 -185q-52 -78 -169 -78q-116 0 -168 78q-44 66 -44 185v219q0 34 5 46q10 24 38 24t39 -32q8 -24 8 -81q0 -32 -1 -54q-4 -86 -4 -98q0 -97 22 -144q30 -63 105 -63q76 0 106 64q22 48 22 146
q0 38 -1 61q-4 93 -4 96q0 53 9.5 79t36.5 26q28 0 37 -23q6 -15 6 -47v-219zM479 760q0 -34 -23 -51t-66 -17q-23 19 -40.5 35.5t-31.5 31.5l-3 3q-28 -29 -54 -49t-39 -20q-10 0 -21 2.5t-23 11.5q-25 23 -25 53q0 15 15 37.5t44 54.5l71 76h61l16 -15q6 -5 14 -13t11 -14
q6 -5 11.5 -11l10.5 -11q2 -4 5.5 -6.5t5.5 -4.5v1q61 -62 61 -94zM430 760q0 -20 -22 -20q-13 10 -26.5 23.5l-28.5 27.5l-16 18l-22 25q-34 -39 -60 -66t-33 -27q-9 0 -12 4h2q-10 4 -10 15t45 60l57 61h22q4 -5 10.5 -11.5t10.5 -11.5q16 -19 36 -37q47 -50 47 -61z
M454 760q0 11 -14 29t-41 46l-16.5 18.5t-16.5 17.5l-1 2l-15 15.5l-15 15.5h-41l-64 -70q-26 -28 -39 -45.5t-13 -28.5q0 -18 16 -34q8 -6 14.5 -7.5t13.5 -1.5q11 0 37.5 24.5t55.5 58.5q7 -9 10 -12l4 -4l2 -2l5 -5v-1q26 -27 63 -60q55 0 55 44z" />
    <glyph glyph-name="Ugrave" unicode="&#xd9;" horiz-adv-x="648" 
d="M603 310q0 -146 -63 -229q-72 -95 -216 -95q-143 0 -215 95q-64 85 -64 229v225q0 60 23 95q28 42 87 42q69 0 95 -58q20 -44 20 -136q0 -37 -1 -60q-4 -93 -4 -98q0 -61 11.5 -90.5t47.5 -29.5t50 36q11 28 11 91q0 32 -2.5 92t-2.5 72q0 86 20 127q26 54 93 54
q58 0 86 -41q24 -35 24 -96v-225zM324 167q-55 0 -77 47q-17 37 -17 115q0 27 3 84t3 83q0 68 -15 101q-19 42 -66 42q-44 0 -62 -32q-14 -25 -14 -72l-1 -219q0 -134 52 -208q62 -88 194 -88q131 0 193 87q53 75 53 209v219q0 47 -14 72q-18 32 -63 32q-43 0 -62 -32
q-15 -26 -15 -72l1 -217q0 -69 -13 -100q-21 -51 -80 -51zM536 316q0 -120 -43 -185q-52 -78 -169 -78q-116 0 -168 78q-44 66 -44 185v219q0 34 5 46q10 24 38 24t39 -32q8 -24 8 -81q0 -32 -1 -54q-4 -86 -4 -98q0 -97 22 -144q30 -63 105 -63q76 0 106 64q22 48 22 146
q0 38 -1 61q-4 93 -4 96q0 53 9.5 79t36.5 26q28 0 37 -23q6 -15 6 -47v-219zM325 719q-20 0 -42 15q-6 4 -56 54q-22 23 -28 35.5t-6 28.5q0 29 21 50t51 21q24 0 43 -14q8 -6 21 -19l44 -43q25 -29 25 -56q0 -29 -21.5 -50.5t-51.5 -21.5zM375 791q0 23 -34 57
q-22 20 -28 26q-20 19 -27.5 23t-20.5 4q-19 0 -34 -15t-15 -34q0 -24 34 -57l27 -25.5t24 -20t24 -7.5q20 0 35 14t15 35zM325 765q-13 0 -49.5 36.5t-36.5 50.5q0 10 7.5 17.5t18.5 7.5q13 0 49.5 -36.5t36.5 -49.5t-11 -21q-7 -5 -15 -5z" />
    <glyph glyph-name="Uacute" unicode="&#xda;" horiz-adv-x="648" 
d="M603 310q0 -146 -63 -229q-72 -95 -216 -95q-143 0 -215 95q-64 85 -64 229v225q0 60 23 95q28 42 87 42q69 0 95 -58q20 -44 20 -136q0 -37 -1 -60q-4 -93 -4 -98q0 -61 11.5 -90.5t47.5 -29.5t50 36q11 28 11 91q0 32 -2.5 92t-2.5 72q0 86 20 127q26 54 93 54
q58 0 86 -41q24 -35 24 -96v-225zM324 167q-55 0 -77 47q-17 37 -17 115q0 27 3 84t3 83q0 68 -15 101q-19 42 -66 42q-44 0 -62 -32q-14 -25 -14 -72l-1 -219q0 -134 52 -208q62 -88 194 -88q131 0 193 87q53 75 53 209v219q0 47 -14 72q-18 32 -63 32q-43 0 -62 -32
q-15 -26 -15 -72l1 -217q0 -69 -13 -100q-21 -51 -80 -51zM536 316q0 -120 -43 -185q-52 -78 -169 -78q-116 0 -168 78q-44 66 -44 185v219q0 34 5 46q10 24 38 24t39 -32q8 -24 8 -81q0 -32 -1 -54q-4 -86 -4 -98q0 -97 22 -144q30 -63 105 -63q76 0 106 64q22 48 22 146
q0 38 -1 61q-4 93 -4 96q0 53 9.5 79t36.5 26q28 0 37 -23q6 -15 6 -47v-219zM290 719q-30 0 -51.5 21.5t-21.5 50.5q0 27 25 56l44 43q13 13 21 19q19 14 43 14q30 0 51 -21t21 -50q0 -16 -6 -28.5t-28 -35.5q-50 -50 -56 -54q-22 -15 -42 -15zM240 791q0 -21 15 -35
t35 -14q13 0 24 7.5t24 20l27 25.5q34 33 34 57q0 19 -15 34t-34 15q-13 0 -20.5 -4t-27.5 -23q-6 -6 -28 -26q-34 -34 -34 -57zM290 765q-8 0 -15 5q-11 8 -11 21t36.5 49.5t49.5 36.5q11 0 18.5 -7.5t7.5 -17.5q0 -14 -36.5 -50.5t-49.5 -36.5z" />
    <glyph glyph-name="Acircumflex" unicode="&#xc2;" horiz-adv-x="687" 
d="M265 137q-38 -80 -48 -94q-35 -48 -88 -48q-45 0 -77.5 31.5t-32.5 75.5q0 41 49 153q36 82 97 201l72 140q17 34 43.5 55t62.5 21q38 0 63.5 -20t42.5 -56q2 -5 72 -140q65 -126 98 -201q49 -111 49 -153q0 -44 -32.5 -75.5t-77.5 -31.5q-54 0 -88 47q-10 14 -48 95
h-157zM558 28q30 0 53.5 21.5t23.5 52.5q0 32 -50 143q-39 88 -98 203l-68 133q-13 29 -29 42q-19 16 -47 16q-27 0 -44.5 -15t-30.5 -43q-9 -19 -68 -134q-68 -132 -98 -200q-50 -112 -50 -145q0 -31 22.5 -52.5t54.5 -21.5t59 33q10 12 55 109h200l40 -88q32 -54 75 -54z
M222 203l-45 -100q-25 -41 -48 -41q-17 0 -30.5 11.5t-13.5 28.5q0 20 62 154l151 311q8 18 16 26q12 12 29 12t29 -11q9 -8 17 -27l63 -129q71 -144 99 -206q51 -111 51 -130q0 -17 -13.5 -28.5t-31.5 -11.5q-27 0 -60 65l-32 76h-243zM427 283l-84 178l-83 -178h167z
M343 382l31 -65h-61zM507 760q0 -34 -23 -51t-66 -17q-23 19 -40.5 35.5t-31.5 31.5l-3 3q-28 -29 -54 -49t-39 -20q-10 0 -21 2.5t-23 11.5q-25 23 -25 53q0 15 15 37.5t44 54.5l71 76h61l16 -15q6 -5 14 -13t11 -14q6 -5 11.5 -11l10.5 -11q2 -4 5.5 -6.5t5.5 -4.5v1
q61 -62 61 -94zM458 760q0 -20 -22 -20q-13 10 -26.5 23.5l-28.5 27.5l-16 18l-22 25q-34 -39 -60 -66t-33 -27q-9 0 -12 4h2q-10 4 -10 15t45 60l57 61h22q4 -5 10.5 -11.5t10.5 -11.5q16 -19 36 -37q47 -50 47 -61zM482 760q0 11 -14 29t-41 46l-16.5 18.5t-16.5 17.5
l-1 2l-15 15.5l-15 15.5h-41l-64 -70q-26 -28 -39 -45.5t-13 -28.5q0 -18 16 -34q8 -6 14.5 -7.5t13.5 -1.5q11 0 37.5 24.5t55.5 58.5q7 -9 10 -12l4 -4l2 -2l5 -5v-1q26 -27 63 -60q55 0 55 44z" />
    <glyph glyph-name="Edieresis" unicode="&#xcb;" horiz-adv-x="550" 
d="M525 107q0 -56 -38 -83q-33 -24 -90 -24h-207q-73 0 -105.5 32.5t-32.5 107.5v387q0 75 32.5 107.5t105.5 32.5h207q57 0 92.5 -25.5t35.5 -81.5q0 -65 -53 -91q-37 -18 -113 -18q-16 0 -46 1t-41 1v-20h32.5t33.5 1q65 0 98 -17q45 -23 45 -83q0 -48 -28 -72
q-34 -29 -124 -29h-29.5t-27.5 1v-21q29 0 50 1t40 2q74 0 111 -18q52 -25 52 -91zM238 267q8 0 39 -2t52 -2q52 0 81 13q38 17 38 58q0 40 -33.5 55.5t-85.5 15.5q-24 0 -47.5 -2t-43.5 -3v87q19 0 33 -1q68 -5 80 -5q63 0 96 14q45 19 45 65q0 42 -30 60q-24 14 -69 14
h-199q-62 0 -85.5 -22.5t-23.5 -84.5v-387q0 -61 24 -84t85 -23h199q45 0 68 13q31 18 31 61q0 45 -44 64q-35 15 -97 15q-35 0 -58.5 -2t-54.5 -4v87zM393 147q31 0 44 -5q22 -9 22 -35q0 -25 -20 -34q-13 -6 -42 -6h-206q-45 0 -59 12.5t-14 56.5v395q0 43 14.5 56
t58.5 13h205q28 0 45.5 -7.5t17.5 -32.5t-22 -34q-15 -6 -44 -6h-188v-153h151q35 0 46.5 -7.5t11.5 -25.5q0 -23 -19 -30q-10 -4 -39 -4h-151v-153h188zM284 774q0 -27 -20 -47t-47 -20t-46.5 19.5t-19.5 47.5q0 27 19.5 46.5t46.5 19.5q28 0 47.5 -19.5t19.5 -46.5z
M171 774q0 -19 13 -33t33 -14t33.5 13.5t13.5 33.5q0 19 -13.5 32.5t-33.5 13.5q-19 0 -32.5 -13.5t-13.5 -32.5zM243 774q0 -11 -7.5 -18.5t-18.5 -7.5q-10 0 -17.5 7.5t-7.5 18.5q0 10 7 17.5t18 7.5t18.5 -7.5t7.5 -17.5zM430 774q0 -27 -20 -47t-47 -20t-46.5 19.5
t-19.5 47.5q0 27 19.5 46.5t46.5 19.5q28 0 47.5 -19.5t19.5 -46.5zM317 774q0 -19 13 -33t33 -14t33.5 13.5t13.5 33.5q0 19 -13.5 32.5t-33.5 13.5q-19 0 -32.5 -13.5t-13.5 -32.5zM389 774q0 -11 -7.5 -18.5t-18.5 -7.5q-10 0 -17.5 7.5t-7.5 18.5q0 10 7 17.5t18 7.5
t18.5 -7.5t7.5 -17.5z" />
    <glyph glyph-name="Egrave" unicode="&#xc8;" horiz-adv-x="550" 
d="M525 107q0 -56 -38 -83q-33 -24 -90 -24h-207q-73 0 -105.5 32.5t-32.5 107.5v387q0 75 32.5 107.5t105.5 32.5h207q57 0 92.5 -25.5t35.5 -81.5q0 -65 -53 -91q-37 -18 -113 -18q-16 0 -46 1t-41 1v-20h32.5t33.5 1q65 0 98 -17q45 -23 45 -83q0 -48 -28 -72
q-34 -29 -124 -29h-29.5t-27.5 1v-21q29 0 50 1t40 2q74 0 111 -18q52 -25 52 -91zM238 267q8 0 39 -2t52 -2q52 0 81 13q38 17 38 58q0 40 -33.5 55.5t-85.5 15.5q-24 0 -47.5 -2t-43.5 -3v87q19 0 33 -1q68 -5 80 -5q63 0 96 14q45 19 45 65q0 42 -30 60q-24 14 -69 14
h-199q-62 0 -85.5 -22.5t-23.5 -84.5v-387q0 -61 24 -84t85 -23h199q45 0 68 13q31 18 31 61q0 45 -44 64q-35 15 -97 15q-35 0 -58.5 -2t-54.5 -4v87zM393 147q31 0 44 -5q22 -9 22 -35q0 -25 -20 -34q-13 -6 -42 -6h-206q-45 0 -59 12.5t-14 56.5v395q0 43 14.5 56
t58.5 13h205q28 0 45.5 -7.5t17.5 -32.5t-22 -34q-15 -6 -44 -6h-188v-153h151q35 0 46.5 -7.5t11.5 -25.5q0 -23 -19 -30q-10 -4 -39 -4h-151v-153h188zM281 719q-20 0 -42 15q-6 4 -56 54q-22 23 -28 35.5t-6 28.5q0 29 21 50t51 21q24 0 43 -14q8 -6 21 -19l44 -43
q25 -29 25 -56q0 -30 -21 -51t-52 -21zM331 791q0 23 -34 57q-22 20 -28 26q-20 19 -27.5 23t-20.5 4q-19 0 -34 -15t-15 -34q0 -24 34 -57l27 -25.5t24 -20t24 -7.5q20 0 35 14t15 35zM281 765q-13 0 -49.5 36.5t-36.5 50.5q0 7 4 13q9 12 22 12t49.5 -36.5t36.5 -49.5
t-11 -21q-7 -5 -15 -5z" />
    <glyph glyph-name="Ecircumflex" unicode="&#xca;" horiz-adv-x="550" 
d="M525 107q0 -56 -38 -83q-33 -24 -90 -24h-207q-73 0 -105.5 32.5t-32.5 107.5v387q0 75 32.5 107.5t105.5 32.5h207q57 0 92.5 -25.5t35.5 -81.5q0 -65 -53 -91q-37 -18 -113 -18q-16 0 -46 1t-41 1v-20h32.5t33.5 1q65 0 98 -17q45 -23 45 -83q0 -48 -28 -72
q-34 -29 -124 -29h-29.5t-27.5 1v-21q29 0 50 1t40 2q74 0 111 -18q52 -25 52 -91zM238 267q8 0 39 -2t52 -2q52 0 81 13q38 17 38 58q0 40 -33.5 55.5t-85.5 15.5q-24 0 -47.5 -2t-43.5 -3v87q19 0 33 -1q68 -5 80 -5q63 0 96 14q45 19 45 65q0 42 -30 60q-24 14 -69 14
h-199q-62 0 -85.5 -22.5t-23.5 -84.5v-387q0 -61 24 -84t85 -23h199q45 0 68 13q31 18 31 61q0 45 -44 64q-35 15 -97 15q-35 0 -58.5 -2t-54.5 -4v87zM393 147q31 0 44 -5q22 -9 22 -35q0 -25 -20 -34q-13 -6 -42 -6h-206q-45 0 -59 12.5t-14 56.5v395q0 43 14.5 56
t58.5 13h205q28 0 45.5 -7.5t17.5 -32.5t-22 -34q-15 -6 -44 -6h-188v-153h151q35 0 46.5 -7.5t11.5 -25.5q0 -23 -19 -30q-10 -4 -39 -4h-151v-153h188zM446 760q0 -34 -23 -51t-66 -17q-23 19 -40.5 35.5t-31.5 31.5l-3 3q-28 -29 -54 -49t-39 -20q-10 0 -21 2.5t-23 11.5
q-25 23 -25 53q0 15 15 37.5t44 54.5l71 76h61l16 -15q6 -5 14 -13t11 -14q6 -5 11.5 -11l10.5 -11q2 -4 5.5 -6.5t5.5 -4.5v1q61 -62 61 -94zM397 760q0 -20 -22 -20q-13 10 -26.5 23.5l-28.5 27.5l-16 18l-22 25q-34 -39 -60 -66t-33 -27q-9 0 -12 4h2q-10 4 -10 15t45 60
l57 61h22q4 -5 10.5 -11.5t10.5 -11.5q16 -19 36 -37q47 -50 47 -61zM421 760q0 11 -14 29t-41 46l-16.5 18.5t-16.5 17.5l-1 2l-15 15.5l-15 15.5h-41l-64 -70q-26 -28 -39 -45.5t-13 -28.5q0 -18 16 -34q8 -6 14.5 -7.5t13.5 -1.5q11 0 37.5 24.5t55.5 58.5q7 -9 10 -12
l4 -4l2 -2l5 -5v-1q26 -27 63 -60q55 0 55 44z" />
    <glyph glyph-name="Igrave" unicode="&#xcc;" horiz-adv-x="323" 
d="M162 -5q-56 0 -85 40q-25 35 -25 93v411q0 58 25 93q29 40 85 40t85 -40q25 -35 25 -93v-411q0 -58 -25 -93q-29 -40 -85 -40zM162 28q42 0 61 31q15 25 15 69v411q0 46 -14 69q-19 31 -62 31t-62 -31q-15 -24 -15 -69v-411q0 -45 15 -69q19 -31 62 -31zM162 62
q-27 0 -35.5 18t-8.5 48v411q0 38 11.5 52t32.5 14q26 0 36 -21q7 -15 7 -45v-411q0 -39 -11 -52.5t-32 -13.5zM166 719q-20 0 -42 15q-9 6 -57 54q-17 18 -23 28q-10 17 -10 36q0 29 21 50t51 21q20 0 35 -9q10 -6 28 -24l44 -43q25 -29 25 -56q0 -30 -21 -51t-51 -21z
M215 791q0 23 -34 57q-22 20 -28 26q-20 19 -27.5 23t-19.5 4q-20 0 -35 -15t-15 -34q0 -24 34 -57l27 -25.5t24.5 -20t24.5 -7.5q20 0 34.5 14.5t14.5 34.5zM166 765q-13 0 -49.5 36.5t-36.5 50.5q0 10 7.5 17.5t18.5 7.5q13 0 49.5 -36.5t36.5 -49.5q0 -8 -4 -14
q-8 -12 -22 -12z" />
    <glyph glyph-name="Iacute" unicode="&#xcd;" horiz-adv-x="323" 
d="M162 -5q-56 0 -85 40q-25 35 -25 93v411q0 58 25 93q29 40 85 40t85 -40q25 -35 25 -93v-411q0 -58 -25 -93q-29 -40 -85 -40zM162 28q42 0 61 31q15 25 15 69v411q0 46 -14 69q-19 31 -62 31t-62 -31q-15 -24 -15 -69v-411q0 -45 15 -69q19 -31 62 -31zM162 62
q-27 0 -35.5 18t-8.5 48v411q0 38 11.5 52t32.5 14q26 0 36 -21q7 -15 7 -45v-411q0 -39 -11 -52.5t-32 -13.5zM151 711q-30 0 -51.5 21.5t-21.5 50.5q0 27 25 56l44 43q13 13 21 19q19 14 43 14q30 0 51 -21t21 -50q0 -16 -6 -28.5t-28 -35.5q-50 -50 -56 -54
q-22 -15 -42 -15zM101 783q0 -21 15 -35t35 -14q13 0 24 7.5t24 20l27 25.5q34 33 34 57q0 19 -15 34t-34 15q-13 0 -20.5 -4t-27.5 -23q-6 -6 -28 -26q-34 -34 -34 -57zM151 757q-8 0 -15 5q-11 8 -11 21t36.5 49.5t49.5 36.5q11 0 18.5 -7.5t7.5 -17.5q0 -14 -36.5 -50.5
t-49.5 -36.5z" />
    <glyph glyph-name="Icircumflex" unicode="&#xce;" horiz-adv-x="326" 
d="M162 -5q-56 0 -85 40q-25 35 -25 93v411q0 58 25 93q29 40 85 40t85 -40q25 -35 25 -93v-411q0 -58 -25 -93q-29 -40 -85 -40zM162 28q42 0 61 31q15 25 15 69v411q0 46 -14 69q-19 31 -62 31t-62 -31q-15 -24 -15 -69v-411q0 -45 15 -69q19 -31 62 -31zM162 62
q-27 0 -35.5 18t-8.5 48v411q0 38 11.5 52t32.5 14q26 0 36 -21q7 -15 7 -45v-411q0 -39 -11 -52.5t-32 -13.5zM326 760q0 -34 -23 -51t-66 -17q-23 19 -40.5 35.5t-31.5 31.5l-3 3q-28 -29 -54 -49t-39 -20q-10 0 -21 2.5t-23 11.5q-25 23 -25 53q0 15 15 37.5t44 54.5
l71 76h61l16 -15q6 -5 14 -13t11 -14q6 -5 11.5 -11l10.5 -11q2 -4 5.5 -6.5t5.5 -4.5v1q61 -62 61 -94zM277 760q0 -20 -22 -20q-13 10 -26.5 23.5l-28.5 27.5l-16 18l-22 25q-34 -39 -60 -66t-33 -27q-9 0 -12 4h2q-10 4 -10 15t45 60l57 61h22q4 -5 10.5 -11.5
t10.5 -11.5q16 -19 36 -37q47 -50 47 -61zM301 760q0 11 -14 29t-41 46l-16.5 18.5t-16.5 17.5l-1 2l-15 15.5l-15 15.5h-41l-64 -70q-26 -28 -39 -45.5t-13 -28.5q0 -18 16 -34q8 -6 14.5 -7.5t13.5 -1.5q11 0 37.5 24.5t55.5 58.5q7 -9 10 -12l4 -4l2 -2l5 -5v-1
q26 -27 63 -60q55 0 55 44z" />
    <glyph glyph-name="Idieresis" unicode="&#xcf;" horiz-adv-x="323" 
d="M162 -5q-56 0 -85 40q-25 35 -25 93v411q0 58 25 93q29 40 85 40t85 -40q25 -35 25 -93v-411q0 -58 -25 -93q-29 -40 -85 -40zM162 28q42 0 61 31q15 25 15 69v411q0 46 -14 69q-19 31 -62 31t-62 -31q-15 -24 -15 -69v-411q0 -45 15 -69q19 -31 62 -31zM162 62
q-27 0 -35.5 18t-8.5 48v411q0 38 11.5 52t32.5 14q26 0 36 -21q7 -15 7 -45v-411q0 -39 -11 -52.5t-32 -13.5zM158 772q0 -27 -20 -47t-47 -20t-46.5 19.5t-19.5 47.5q0 27 19.5 46.5t46.5 19.5q28 0 47.5 -19.5t19.5 -46.5zM45 772q0 -19 13 -33t33 -14t33.5 13.5
t13.5 33.5q0 19 -13.5 32.5t-33.5 13.5q-19 0 -32.5 -13.5t-13.5 -32.5zM117 772q0 -11 -7.5 -18.5t-18.5 -7.5q-10 0 -17.5 7.5t-7.5 18.5q0 10 7 17.5t18 7.5t18.5 -7.5t7.5 -17.5zM304 772q0 -27 -20 -47t-47 -20t-46.5 19.5t-19.5 47.5q0 27 19.5 46.5t46.5 19.5
q28 0 47.5 -19.5t19.5 -46.5zM191 772q0 -19 13 -33t33 -14t33.5 13.5t13.5 33.5q0 19 -13.5 32.5t-33.5 13.5q-19 0 -32.5 -13.5t-13.5 -32.5zM263 772q0 -11 -7.5 -18.5t-18.5 -7.5q-10 0 -17.5 7.5t-7.5 18.5q0 10 7 17.5t18 7.5t18.5 -7.5t7.5 -17.5z" />
    <glyph glyph-name="otilde" unicode="&#xf5;" horiz-adv-x="615" 
d="M352 729l1.5 -3l1.5 -3q3 9 3 19q0 59 61 59q58 0 58 -59q0 -26 -7.5 -50t-18.5 -44q-18 -26 -43 -42t-57 -16q-55 0 -101 70q-5 -11 -10 -27t-13 -39q-51 -8 -73 7t-22 48q0 26 5 47.5t16 41.5q36 61 100 61q52 0 98 -70h1zM348 666q23 0 39 25q6 11 10 24.5t4 26.5
q0 17 18 17q16 0 16 -17q0 -40 -19 -72q-11 -17 -28 -27.5t-37 -10.5q-33 0 -65 50q-26 41 -32 41q-16 0 -29 -16q-2 -3 -9.5 -21t-18.5 -53q-24 -4 -24 16q0 38 17 69q12 20 27 29.5t36 9.5q28 0 63 -51q27 -40 32 -40zM333 717q-39 60 -80 60q-52 0 -80 -50
q-20 -34 -20 -78q0 -21 13.5 -30.5t44.5 -4.5q27 79 31 83l-1 -2q6 8 13 8q-4 -1 15 -32q38 -59 82 -59q26 0 46 13t35 35q23 35 23 82q0 17 -9 27.5t-27 10.5q-20 0 -29 -10.5t-9 -27.5q0 -21 -11 -41v1q-8 -15 -22 -15q4 0 -15 30zM583 260q0 -114 -81.5 -194t-197.5 -80
q-114 0 -196 80.5t-82 193.5t81.5 193t196.5 80t197 -79.5t82 -193.5zM53 260q0 -103 73.5 -175t177.5 -72t178 72.5t74 174.5q0 103 -73 174.5t-179 71.5q-104 0 -177.5 -72t-73.5 -174zM530 260q0 -91 -66 -156t-160 -65q-93 0 -159 65t-66 156t66 156t159 65
q92 0 159 -65t67 -156zM148 260q0 -63 46 -108t110 -45q65 0 111 44t46 109q0 63 -46 108t-111 45q-64 0 -110 -45t-46 -108zM434 260q0 -53 -38 -90.5t-92 -37.5q-53 0 -91 37.5t-38 90.5q0 52 38 89.5t91 37.5q54 0 92 -37.5t38 -89.5zM202 260q0 -40 30 -70.5t72 -30.5
q43 0 73 29.5t30 71.5q0 41 -30 70.5t-73 29.5q-42 0 -72 -29.5t-30 -70.5z" />
    <glyph glyph-name="oacute" unicode="&#xf3;" horiz-adv-x="612" 
d="M276 593q-30 0 -51.5 21.5t-21.5 50.5q0 27 25 56l44 43q13 13 21 19q19 14 43 14q30 0 51 -21t21 -50q0 -16 -6 -28.5t-28 -35.5q-50 -50 -56 -54q-22 -15 -42 -15zM226 665q0 -21 15 -35t35 -14q13 0 24 7.5t24 20l27 25.5q34 33 34 57q0 19 -15 34t-34 15
q-13 0 -20.5 -4t-27.5 -23q-6 -6 -28 -26q-34 -34 -34 -57zM276 639q-8 0 -15 5q-11 8 -11 21t36.5 49.5t49.5 36.5q11 0 18.5 -7.5t7.5 -17.5q0 -14 -36.5 -50.5t-49.5 -36.5zM583 260q0 -114 -81.5 -194t-197.5 -80q-114 0 -196 80.5t-82 193.5t81.5 193t196.5 80
t197 -79.5t82 -193.5zM53 260q0 -103 73.5 -175t177.5 -72t178 72.5t74 174.5q0 103 -73 174.5t-179 71.5q-104 0 -177.5 -72t-73.5 -174zM530 260q0 -91 -66 -156t-160 -65q-93 0 -159 65t-66 156t66 156t159 65q92 0 159 -65t67 -156zM148 260q0 -63 46 -108t110 -45
q65 0 111 44t46 109q0 63 -46 108t-111 45q-64 0 -110 -45t-46 -108zM434 260q0 -53 -38 -90.5t-92 -37.5q-53 0 -91 37.5t-38 90.5q0 52 38 89.5t91 37.5q54 0 92 -37.5t38 -89.5zM202 260q0 -40 30 -70.5t72 -30.5q43 0 73 29.5t30 71.5q0 41 -30 70.5t-73 29.5
q-42 0 -72 -29.5t-30 -70.5z" />
    <glyph glyph-name="ograve" unicode="&#xf2;" horiz-adv-x="612" 
d="M583 260q0 -114 -81.5 -194t-197.5 -80q-114 0 -196 80.5t-82 193.5t81.5 193t196.5 80t197 -79.5t82 -193.5zM53 260q0 -103 73.5 -175t177.5 -72t178 72.5t74 174.5q0 103 -73 174.5t-179 71.5q-104 0 -177.5 -72t-73.5 -174zM530 260q0 -91 -66 -156t-160 -65
q-93 0 -159 65t-66 156t66 156t159 65q92 0 159 -65t67 -156zM148 260q0 -63 46 -108t110 -45q65 0 111 44t46 109q0 63 -46 108t-111 45q-64 0 -110 -45t-46 -108zM434 260q0 -53 -38 -90.5t-92 -37.5q-53 0 -91 37.5t-38 90.5q0 52 38 89.5t91 37.5q54 0 92 -37.5
t38 -89.5zM202 260q0 -40 30 -70.5t72 -30.5q43 0 73 29.5t30 71.5q0 41 -30 70.5t-73 29.5q-42 0 -72 -29.5t-30 -70.5zM308 584q-20 0 -42 15q-9 6 -56 53q-18 18 -24 28q-10 16 -10 36q0 30 21 51t51 21q22 0 42 -15q8 -6 21 -19q48 -46 54 -55q15 -22 15 -44
q0 -29 -21 -50t-51 -21zM357 655q0 23 -34 57q-22 20 -28 26q-14 14 -20 18q-13 9 -27 9q-20 0 -34.5 -14.5t-14.5 -34.5q0 -23 34 -57q22 -20 28 -26q12 -11 23.5 -18.5t23.5 -7.5q19 0 34 14t15 34zM308 629q-13 0 -49.5 36.5t-36.5 50.5q0 11 7.5 18.5t18.5 7.5
q13 0 49.5 -36.5t36.5 -50.5q0 -8 -4 -14q-8 -12 -22 -12z" />
    <glyph glyph-name="ocircumflex" unicode="&#xf4;" horiz-adv-x="607" 
d="M464 649q0 -34 -23 -51t-66 -17q-23 19 -40.5 35.5t-31.5 31.5l-3 3q-28 -29 -54 -49t-39 -20q-10 0 -21 2.5t-23 11.5q-25 23 -25 53q0 15 15 37.5t44 54.5l71 76h61l16 -15q6 -5 14 -13t11 -14q6 -5 11.5 -11l10.5 -11q2 -4 5.5 -6.5t5.5 -4.5v1q61 -62 61 -94z
M415 649q0 -20 -22 -20q-13 10 -26.5 23.5l-28.5 27.5l-16 18l-22 25q-34 -39 -60 -66t-33 -27q-9 0 -12 4h2q-10 4 -10 15t45 60l57 61h22q4 -5 10.5 -11.5t10.5 -11.5q16 -19 36 -37q47 -50 47 -61zM439 649q0 11 -14 29t-41 46l-16.5 18.5t-16.5 17.5l-1 2l-15 15.5
l-15 15.5h-41l-64 -70q-26 -28 -39 -45.5t-13 -28.5q0 -18 16 -34q8 -6 14.5 -7.5t13.5 -1.5q11 0 37.5 24.5t55.5 58.5q7 -9 10 -12l4 -4l2 -2l5 -5v-1q26 -27 63 -60q55 0 55 44zM583 260q0 -114 -81.5 -194t-197.5 -80q-114 0 -196 80.5t-82 193.5t81.5 193t196.5 80
t197 -79.5t82 -193.5zM53 260q0 -103 73.5 -175t177.5 -72t178 72.5t74 174.5q0 103 -73 174.5t-179 71.5q-104 0 -177.5 -72t-73.5 -174zM530 260q0 -91 -66 -156t-160 -65q-93 0 -159 65t-66 156t66 156t159 65q92 0 159 -65t67 -156zM148 260q0 -63 46 -108t110 -45
q65 0 111 44t46 109q0 63 -46 108t-111 45q-64 0 -110 -45t-46 -108zM434 260q0 -53 -38 -90.5t-92 -37.5q-53 0 -91 37.5t-38 90.5q0 52 38 89.5t91 37.5q54 0 92 -37.5t38 -89.5zM202 260q0 -40 30 -70.5t72 -30.5q43 0 73 29.5t30 71.5q0 41 -30 70.5t-73 29.5
q-42 0 -72 -29.5t-30 -70.5z" />
    <glyph glyph-name="odieresis" unicode="&#xf6;" horiz-adv-x="622" 
d="M309 644q0 -27 -20 -47t-47 -20t-46.5 19.5t-19.5 47.5q0 27 19.5 46.5t46.5 19.5q28 0 47.5 -19.5t19.5 -46.5zM196 644q0 -19 13 -33t33 -14t33.5 13.5t13.5 33.5q0 19 -13.5 32.5t-33.5 13.5q-19 0 -32.5 -13.5t-13.5 -32.5zM268 644q0 -11 -7.5 -18.5t-18.5 -7.5
q-10 0 -17.5 7.5t-7.5 18.5q0 10 7 17.5t18 7.5t18.5 -7.5t7.5 -17.5zM455 644q0 -27 -20 -47t-47 -20t-46.5 19.5t-19.5 47.5q0 27 19.5 46.5t46.5 19.5q28 0 47.5 -19.5t19.5 -46.5zM342 644q0 -19 13 -33t33 -14t33.5 13.5t13.5 33.5q0 19 -13.5 32.5t-33.5 13.5
q-19 0 -32.5 -13.5t-13.5 -32.5zM414 644q0 -11 -7.5 -18.5t-18.5 -7.5q-10 0 -17.5 7.5t-7.5 18.5q0 10 7 17.5t18 7.5t18.5 -7.5t7.5 -17.5zM583 260q0 -114 -81.5 -194t-197.5 -80q-114 0 -196 80.5t-82 193.5t81.5 193t196.5 80t197 -79.5t82 -193.5zM53 260
q0 -103 73.5 -175t177.5 -72t178 72.5t74 174.5q0 103 -73 174.5t-179 71.5q-104 0 -177.5 -72t-73.5 -174zM530 260q0 -91 -66 -156t-160 -65q-93 0 -159 65t-66 156t66 156t159 65q92 0 159 -65t67 -156zM148 260q0 -63 46 -108t110 -45q65 0 111 44t46 109q0 63 -46 108
t-111 45q-64 0 -110 -45t-46 -108zM434 260q0 -53 -38 -90.5t-92 -37.5q-53 0 -91 37.5t-38 90.5q0 52 38 89.5t91 37.5q54 0 92 -37.5t38 -89.5zM202 260q0 -40 30 -70.5t72 -30.5q43 0 73 29.5t30 71.5q0 41 -30 70.5t-73 29.5q-42 0 -72 -29.5t-30 -70.5z" />
    <glyph glyph-name="Udieresis" unicode="&#xdc;" horiz-adv-x="648" 
d="M603 310q0 -146 -63 -229q-72 -95 -216 -95q-143 0 -215 95q-64 85 -64 229v225q0 60 23 95q28 42 87 42q69 0 95 -58q20 -44 20 -136q0 -37 -1 -60q-4 -93 -4 -98q0 -61 11.5 -90.5t47.5 -29.5t50 36q11 28 11 91q0 32 -2.5 92t-2.5 72q0 86 20 127q26 54 93 54
q58 0 86 -41q24 -35 24 -96v-225zM324 167q-55 0 -77 47q-17 37 -17 115q0 27 3 84t3 83q0 68 -15 101q-19 42 -66 42q-44 0 -62 -32q-14 -25 -14 -72l-1 -219q0 -134 52 -208q62 -88 194 -88q131 0 193 87q53 75 53 209v219q0 47 -14 72q-18 32 -63 32q-43 0 -62 -32
q-15 -26 -15 -72l1 -217q0 -69 -13 -100q-21 -51 -80 -51zM536 316q0 -120 -43 -185q-52 -78 -169 -78q-116 0 -168 78q-44 66 -44 185v219q0 34 5 46q10 24 38 24t39 -32q8 -24 8 -81q0 -32 -1 -54q-4 -86 -4 -98q0 -97 22 -144q30 -63 105 -63q76 0 106 64q22 48 22 146
q0 38 -1 61q-4 93 -4 96q0 53 9.5 79t36.5 26q28 0 37 -23q6 -15 6 -47v-219zM325 773q0 -27 -20 -47t-47 -20t-46.5 19.5t-19.5 47.5q0 27 19.5 46.5t46.5 19.5q28 0 47.5 -19.5t19.5 -46.5zM212 773q0 -19 13 -33t33 -14t33.5 13.5t13.5 33.5q0 19 -13.5 32.5t-33.5 13.5
q-19 0 -32.5 -13.5t-13.5 -32.5zM284 773q0 -11 -7.5 -18.5t-18.5 -7.5q-10 0 -17.5 7.5t-7.5 18.5q0 10 7 17.5t18 7.5t18.5 -7.5t7.5 -17.5zM471 773q0 -27 -20 -47t-47 -20t-46.5 19.5t-19.5 47.5q0 27 19.5 46.5t46.5 19.5q28 0 47.5 -19.5t19.5 -46.5zM358 773
q0 -19 13 -33t33 -14t33.5 13.5t13.5 33.5q0 19 -13.5 32.5t-33.5 13.5q-19 0 -32.5 -13.5t-13.5 -32.5zM430 773q0 -11 -7.5 -18.5t-18.5 -7.5q-10 0 -17.5 7.5t-7.5 18.5q0 10 7 17.5t18 7.5t18.5 -7.5t7.5 -17.5z" />
    <glyph glyph-name="macron" unicode="&#xaf;" horiz-adv-x="408" 
d="M259 652q56 0 87 -21q38 -26 38 -79q0 -51 -36 -77q-32 -23 -85 -23h-117q-52 0 -84 23q-36 26 -36 77q0 53 35.5 76.5t89.5 23.5h108zM259 486q40 0 62 12q29 16 29 54q0 39 -28 55q-21 12 -63 12h-108q-54 0 -75 -20q-16 -15 -16 -47q0 -38 28 -54q22 -12 63 -12h108z
M259 585q30 0 39 -3q19 -7 19 -30q0 -21 -14.5 -27t-39.5 -6h-116q-26 0 -36 4q-18 7 -18 29t15.5 27.5t42.5 5.5h108z" />
    <glyph glyph-name="uni00B2" unicode="&#xb2;" horiz-adv-x="367" 
d="M343 363q0 -37 -27 -55q-22 -15 -61 -15h-128q-44 0 -66 12q-33 15 -33 54q0 29 42 76l78 81q45 45 50 65l-6 13l-13 5q-12 -3 -34 -31q-20 -24 -52 -24q-30 0 -50 21t-20 52q0 53 52 92q47 35 104 35q69 0 116.5 -48t47.5 -118q0 -50 -37 -96q-12 -16 -42 -48
q52 -12 65.5 -26.5t13.5 -44.5zM321 578q0 61 -41 102.5t-101 41.5q-48 0 -89 -28q-45 -33 -45 -78q0 -21 13 -35t35 -14q24 0 45 27t41 27q16 0 28.5 -11t12.5 -29q0 -22 -45 -68l-81 -82q-44 -49 -44 -72q0 -28 27 -39q14 -5 50 -5h128q30 0 46 10q20 11 20 38
q0 24 -15 35q-17 15 -63 15h-16h-15l71 72q38 49 38 93zM299 363q0 -16 -14 -23q-9 -3 -30 -3h-132q-23 0 -32 2q-19 4 -19 20q0 17 45 61q70 71 79 82q45 51 45 79q0 26 -18 44t-44 18q-30 0 -51.5 -27.5t-34.5 -27.5q-12 0 -19.5 8t-7.5 20q0 34 40 61q35 23 73 23
q51 0 85.5 -35.5t34.5 -86.5q0 -48 -79 -130l-57 -58q5 0 29.5 1.5t34.5 1.5q33 0 52.5 -6.5t19.5 -23.5z" />
    <glyph glyph-name="uni00B3" unicode="&#xb3;" horiz-adv-x="372" 
d="M347 449q0 -67 -45.5 -114t-113.5 -47q-58 0 -105 36q-52 39 -52 95q0 29 21 50t50 21q32 0 52 -25q24 -32 34 -34l12 5l5 13q-4 15 -31 33q-23 17 -23 43q0 25 23 41q27 17 30 29l-4 11l-12 5q-13 -4 -34.5 -27.5t-48.5 -23.5q-30 0 -51 20t-21 49q0 52 51 88
q46 34 100 34q65 0 111 -44.5t46 -110.5q0 -35 -18 -69q12 -15 18 -35.5t6 -42.5zM320 596q0 57 -39.5 95t-96.5 38q-45 0 -85 -26q-44 -31 -44 -74q0 -20 14 -33.5t36 -13.5q17 0 32 15q34 34 51 34q15 0 26.5 -9.5t11.5 -26.5q0 -22 -26.5 -38.5t-26.5 -31.5
q0 -16 27 -34.5t27 -41.5q0 -16 -11.5 -28t-27.5 -12q-18 0 -51 40q-15 19 -35 19q-19 0 -34 -14.5t-15 -34.5q0 -47 45 -79q41 -29 90 -29q58 0 97.5 40t39.5 98q0 43 -28 76q23 35 23 71zM303 449q0 -49 -33 -82.5t-82 -33.5q-40 0 -74 22q-39 25 -39 62q0 11 7 20t19 9
q11 0 34 -29.5t53 -29.5q25 0 43 18t18 44q0 31 -25 51q-30 22 -30 24l3 5q31 21 36 26q15 14 15 40q0 25 -17.5 42t-42.5 17q-30 0 -52.5 -25t-32.5 -25q-12 0 -19 7t-7 18q0 33 37 57q33 21 70 21q47 0 80.5 -31t33.5 -79q0 -22 -8.5 -39.5t-23.5 -32.5q37 -27 37 -76z
" />
    <glyph glyph-name="acute" unicode="&#xb4;" horiz-adv-x="296" 
d="M198 662q74 0 74 -75q0 -14 -18 -41t-54 -62q-35 -36 -62 -53.5t-42 -17.5q-38 0 -55 18t-17 53q0 36 70 106q36 36 63 54t41 18zM198 609q21 0 21 -22q0 -9 -55 -67q-58 -55 -68 -55q-19 0 -19 19q0 14 54 70q55 55 67 55zM198 635q-9 0 -31 -16t-54 -48
q-62 -62 -62 -87q0 -44 45 -44q22 0 85 63q32 32 48 53.5t16 30.5q0 48 -47 48z" />
    <glyph glyph-name="plusminus" unicode="&#xb1;" horiz-adv-x="617" 
d="M19 22q0 50 29 65.5t79 15.5h115q0 2 -1 5t-2 5l2 -2q-8 12 -10.5 28t-2.5 34l-1 98h-98q-32 0 -53 5.5t-33 15.5t-17 25t-5 35q0 50 29.5 65.5t78.5 15.5h98q0 8 -0.5 16.5t-0.5 17.5v63q0 64 20 86t60 22q49 0 65.5 -29t16.5 -79l1 -97h97q61 0 84.5 -22t23.5 -59
q0 -25 -13.5 -44.5t-38.5 -28.5h1q-11 -4 -25 -6t-32 -2h-97v-34q0 -16 0.5 -32t0.5 -32q0 -23 -3.5 -40t-8.5 -30h105q62 0 85.5 -22t23.5 -59q0 -25 -14.5 -44t-38.5 -28q-12 -5 -24 -7t-32 -2h-356q-32 0 -53 5.5t-33 16t-17 25.5t-5 34zM306 585q17 0 23 -15t6 -40v-151
h151q31 0 43 -7t12 -20q0 -18 -18 -23q-12 -6 -37 -6h-151l1 -150q0 -31 -7 -42.5t-19 -11.5q-18 0 -23 17q-7 12 -7 37l-1 150h-150q-32 0 -43 7.5t-11 21.5q0 16 14.5 21.5t39.5 5.5h150v151q0 32 6.5 43.5t20.5 11.5zM72 22q0 18 15 23.5t40 5.5h356q32 0 43.5 -8
t11.5 -21q0 -16 -17 -22q-12 -6 -38 -6h-356q-32 0 -43.5 7.5t-11.5 20.5zM306 611q-26 0 -39.5 -16.5t-13.5 -64.5q0 -32 0.5 -62.5t0.5 -62.5h-125q-37 0 -58.5 -10t-21.5 -43q0 -26 16.5 -40t63.5 -14h125l1 -125q0 -15 2.5 -28t7.5 -22q6 -17 17 -23.5t28 -6.5
q25 0 38.5 17t13.5 63q0 32 -0.5 63t-0.5 62h125q31 0 46 7q35 13 35 47q0 24 -17.5 38.5t-63.5 14.5h-125l-1 125q0 37 -11 59t-43 22zM46 22q0 -25 17 -39t64 -14h356q31 0 46 7q35 13 35 46q0 24 -17 39t-64 15h-356q-37 0 -59 -10.5t-22 -43.5z" />
    <glyph glyph-name="degree" unicode="&#xb0;" horiz-adv-x="337" 
d="M162 520q0 -3 2.5 -6t6.5 -3q10 0 10 7q0 14 -6 14q-13 0 -13 -12zM32 520q0 28 10.5 53.5t29.5 45t44 30.5t55 11q29 0 54.5 -11t44.5 -29.5t30 -44t11 -55.5t-11 -55.5t-29.5 -43.5t-44 -28t-55.5 -10t-55 10t-44 28t-29.5 43.5t-10.5 55.5zM215 520q0 17 -13.5 31
t-30.5 14q-20 0 -31.5 -13.5t-11.5 -33.5q0 -17 13.5 -28t33.5 -11q17 0 28.5 12t11.5 29zM85 520q0 18 6.5 33.5t18 27.5t27.5 19t34 7q36 0 61.5 -25t25.5 -62q0 -36 -25 -59.5t-62 -23.5t-61.5 23.5t-24.5 59.5zM60 520q0 -48 31.5 -78.5t79.5 -30.5t80 30.5t32 78.5
q0 24 -8.5 44.5t-23.5 35.5t-35.5 24t-44.5 9t-44.5 -9t-35 -24.5t-23 -36t-8.5 -43.5zM189 520q0 -6 -4 -10.5t-10 -4.5q-9 0 -15.5 3.5t-6.5 9.5q0 9 5 15t13 6q7 0 12.5 -5.5t5.5 -13.5z" />
    <glyph glyph-name="exclam" unicode="!" horiz-adv-x="327" 
d="M273 374q0 -62 -23 -96q-28 -41 -87 -41q-58 0 -86 41q-24 35 -24 96v177q0 59 24 95q28 42 86 42t86 -41q24 -35 24 -96v-177zM271 103q0 -44 -32 -76t-76 -32t-75.5 31.5t-31.5 76.5q0 44 31.5 75.5t75.5 31.5q45 0 76.5 -31.5t31.5 -75.5zM86 370q0 -45 15 -69
q19 -31 62 -31t62 30q15 24 15 69v186q0 45 -15 69q-19 30 -62 30q-44 0 -60.5 -28t-16.5 -75v-181zM89 103q0 -32 21.5 -53.5t52.5 -21.5q32 0 53.5 21.5t21.5 53.5q0 31 -21.5 52.5t-53.5 21.5q-31 0 -52.5 -21.5t-21.5 -52.5zM207 374q0 -34 -6 -48q-10 -23 -38 -23
t-35.5 19t-7.5 52v177q0 35 5 47q9 23 38 23t38 -22q6 -14 6 -48v-177zM204 103q0 -17 -12 -29t-29 -12t-29 12t-12 29t12 29t29 12t29 -12t12 -29z" />
    <glyph glyph-name="ae" unicode="&#xe6;" horiz-adv-x="686" 
d="M226 102q-36 -65 -43 -74q-31 -39 -73 -39q-34 0 -60 26t-26 62t51 126q36 66 98 158l68 101q27 44 49 57.5t71 13.5l199 1q45 0 72 -19q31 -22 31 -68q0 -41 -24 -62q-30 -26 -108 -26q-13 0 -35.5 1t-30.5 1v-17h20.5t22.5 1q54 0 81 -12q40 -19 40 -69q0 -39 -23 -59
q-26 -24 -97 -24h-23t-21 1v-15q22 0 38.5 0.5t31.5 1.5q59 0 87 -15q41 -21 41 -74q0 -45 -30 -67q-28 -19 -73 -19h-156q-58 0 -84 23q-29 26 -29 85h-65zM404 20h156q34 0 52 12q25 14 25 48q0 36 -35 52q-28 13 -77 13q-26 0 -44.5 -2t-42.5 -4v71q6 0 30.5 -1.5
t40.5 -1.5q43 0 64 10q29 13 29 47q0 33 -29 47q-22 10 -65 10q-14 0 -32.5 -1.5t-37.5 -1.5v69h24q52 -4 63 -4q51 0 77 11q35 15 35 53q0 34 -21 46.5t-56 12.5h-199q-41 0 -58 -10.5t-40 -48.5l-66 -100q-67 -100 -98 -154q-49 -87 -49 -117q0 -24 18 -42t42 -18
q39 0 73 61q21 39 27 52h108q0 -65 11 -83q16 -26 75 -26zM109 43q-13 0 -22.5 9.5t-9.5 22.5q0 24 47 106q34 59 94 152l66 100q22 33 34 40t52 7h190q24 0 34 -4q17 -8 17 -29t-29 -29.5t-74 -8.5q-28 0 -51 1.5t-45 4.5v-124q20 0 41.5 1t43.5 1q20 0 37 -1.5t33 -5.5
q5 -7 7 -12.5t2 -9.5q0 -5 -2 -10t-7 -11q-15 -5 -31.5 -7.5t-38.5 -2.5q-14 0 -49 1.5t-36 1.5v-124q20 2 49 4t47 2q46 0 74.5 -8t28.5 -30q0 -15 -11 -23t-40 -8h-159q-37 0 -48 14.5t-11 46.5v22.5t1 23.5h-147l-44 -81q-23 -32 -43 -32zM231 212h112v200zM318 240h-42
l42 73v-73z" />
    <glyph glyph-name="egrave" unicode="&#xe8;" horiz-adv-x="435" 
d="M415 73q0 -45 -31 -68q-28 -19 -73 -19h-168q-58 0 -85 26t-27 85v324q0 111 111 111h169q45 0 74.5 -21t29.5 -66q0 -53 -43 -75q-30 -15 -91 -15q-14 0 -38.5 1t-33.5 1v-17h26t28 1q68 0 94 -23q22 -20 22 -60q0 -39 -24 -59q-27 -23 -101 -23h-23.5t-21.5 1v-17
q12 0 41.5 1t30.5 1q78 0 109 -25q25 -22 25 -64zM182 204q12 0 41 -1.5t33 -1.5q42 0 65 10q30 14 30 47t-27.5 46t-70.5 13q-22 0 -39 -1t-32 -2v70q14 0 45 -2.5t46 -2.5q52 0 78 12q37 15 37 54q0 34 -22 46.5t-58 12.5h-162q-50 0 -69 -18t-19 -69v-317
q0 -50 19.5 -68.5t68.5 -18.5h166q33 0 52 12q24 15 24 48q0 37 -37 53q-28 13 -80 13q-24 0 -47.5 -2t-41.5 -3v70zM308 106q24 0 38 -5.5t14 -27.5q0 -16 -10 -24.5t-39 -8.5h-168q-35 0 -46.5 11t-11.5 47v322q0 36 11.5 47t46.5 11h168q22 0 35.5 -6.5t13.5 -26.5
q0 -22 -17 -29q-10 -4 -35 -4h-152v-126h121q23 0 35.5 -4.5t12.5 -23.5q0 -18 -13.5 -22.5t-34.5 -4.5h-121v-125h152zM229 586q-31 0 -66 35q-23 25 -32 34q-22 24 -28 35.5t-6 27.5q0 30 21 51t51 21q19 0 35 -10q11 -7 29 -24q48 -48 53 -55q15 -22 15 -43
q0 -30 -21 -51t-51 -21zM278 658q0 23 -34 57q-22 19 -28 25q-13 14 -20 19q-13 9 -27 9q-19 0 -34 -15t-15 -35q0 -22 34 -56l27 -25.5t24 -20t24 -7.5q20 0 34.5 14.5t14.5 34.5zM229 632q-13 0 -49.5 36.5t-36.5 49.5q0 11 7.5 18.5t18.5 7.5q13 0 49.5 -36.5t36.5 -49.5
q0 -8 -4 -14q-8 -12 -22 -12z" />
    <glyph glyph-name="edieresis" unicode="&#xeb;" horiz-adv-x="435" 
d="M221 625q0 -27 -20 -47t-47 -20t-46.5 19.5t-19.5 47.5q0 27 19.5 46.5t46.5 19.5q28 0 47.5 -19.5t19.5 -46.5zM108 625q0 -19 13 -33t33 -14t33.5 13.5t13.5 33.5q0 19 -13.5 32.5t-33.5 13.5q-19 0 -32.5 -13.5t-13.5 -32.5zM180 625q0 -11 -7.5 -18.5t-18.5 -7.5
q-10 0 -17.5 7.5t-7.5 18.5q0 10 7 17.5t18 7.5t18.5 -7.5t7.5 -17.5zM367 625q0 -27 -20 -47t-47 -20t-46.5 19.5t-19.5 47.5q0 27 19.5 46.5t46.5 19.5q28 0 47.5 -19.5t19.5 -46.5zM254 625q0 -19 13 -33t33 -14t33.5 13.5t13.5 33.5q0 19 -13.5 32.5t-33.5 13.5
q-19 0 -32.5 -13.5t-13.5 -32.5zM326 625q0 -11 -7.5 -18.5t-18.5 -7.5q-10 0 -17.5 7.5t-7.5 18.5q0 10 7 17.5t18 7.5t18.5 -7.5t7.5 -17.5zM415 73q0 -45 -31 -68q-28 -19 -73 -19h-168q-58 0 -85 26t-27 85v324q0 111 111 111h169q45 0 74.5 -21t29.5 -66q0 -53 -43 -75
q-30 -15 -91 -15q-14 0 -38.5 1t-33.5 1v-17h26t28 1q68 0 94 -23q22 -20 22 -60q0 -39 -24 -59q-27 -23 -101 -23h-23.5t-21.5 1v-17q12 0 41.5 1t30.5 1q78 0 109 -25q25 -22 25 -64zM182 204q12 0 41 -1.5t33 -1.5q42 0 65 10q30 14 30 47t-27.5 46t-70.5 13
q-22 0 -39 -1t-32 -2v70q14 0 45 -2.5t46 -2.5q52 0 78 12q37 15 37 54q0 34 -22 46.5t-58 12.5h-162q-50 0 -69 -18t-19 -69v-317q0 -50 19.5 -68.5t68.5 -18.5h166q33 0 52 12q24 15 24 48q0 37 -37 53q-28 13 -80 13q-24 0 -47.5 -2t-41.5 -3v70zM308 106q24 0 38 -5.5
t14 -27.5q0 -16 -10 -24.5t-39 -8.5h-168q-35 0 -46.5 11t-11.5 47v322q0 36 11.5 47t46.5 11h168q22 0 35.5 -6.5t13.5 -26.5q0 -22 -17 -29q-10 -4 -35 -4h-152v-126h121q23 0 35.5 -4.5t12.5 -23.5q0 -18 -13.5 -22.5t-34.5 -4.5h-121v-125h152z" />
    <glyph glyph-name="igrave" unicode="&#xec;" horiz-adv-x="291" 
d="M147 -14q-45 0 -67 29.5t-22 76.5v333q0 46 22 76.5t67 30.5q46 0 70 -32q20 -29 20 -75l-1 -332q0 -47 -19 -75q-23 -32 -70 -32zM147 12q35 0 50 24q13 20 13 57v331q0 35 -13 56q-15 25 -50 25t-49 -22t-14 -59v-331q0 -35 14 -58t49 -23zM147 39q-22 0 -28.5 14.5
t-6.5 39.5v331q0 25 6.5 39t28.5 14t30 -17q5 -11 5 -36v-331q0 -25 -5 -36q-8 -18 -30 -18zM180 592q-31 0 -66 35q-23 25 -32 34q-22 24 -28 35.5t-6 27.5q0 30 21 51t51 21q19 0 35 -10q11 -7 29 -24q48 -48 53 -55q15 -22 15 -43q0 -30 -21 -51t-51 -21zM229 664
q0 23 -34 57q-22 19 -28 25q-13 14 -20 19q-13 9 -27 9q-19 0 -34 -15t-15 -35q0 -22 34 -56l27 -25.5t24 -20t24 -7.5q20 0 34.5 14.5t14.5 34.5zM180 638q-13 0 -49.5 36.5t-36.5 49.5q0 11 7.5 18.5t18.5 7.5q13 0 49.5 -36.5t36.5 -49.5q0 -8 -4 -14q-8 -12 -22 -12z
" />
    <glyph glyph-name="iacute" unicode="&#xed;" horiz-adv-x="291" 
d="M122 566q-30 0 -51.5 21.5t-21.5 50.5q0 27 25 56l44 43q13 13 21 19q19 14 43 14q30 0 51 -21t21 -50q0 -16 -6 -28.5t-28 -35.5q-50 -50 -56 -54q-22 -15 -42 -15zM72 638q0 -21 15 -35t35 -14q13 0 24 7.5t24 20l27 25.5q34 33 34 57q0 19 -15 34t-34 15
q-13 0 -20.5 -4t-27.5 -23q-6 -6 -28 -26q-34 -34 -34 -57zM122 612q-8 0 -15 5q-11 8 -11 21t36.5 49.5t49.5 36.5q11 0 18.5 -7.5t7.5 -17.5q0 -14 -36.5 -50.5t-49.5 -36.5zM147 -14q-45 0 -67 29.5t-22 76.5v333q0 46 22 76.5t67 30.5q46 0 70 -32q20 -29 20 -75
l-1 -332q0 -47 -19 -75q-23 -32 -70 -32zM147 12q35 0 50 24q13 20 13 57v331q0 35 -13 56q-15 25 -50 25t-49 -22t-14 -59v-331q0 -35 14 -58t49 -23zM147 39q-22 0 -28.5 14.5t-6.5 39.5v331q0 25 6.5 39t28.5 14t30 -17q5 -11 5 -36v-331q0 -25 -5 -36q-8 -18 -30 -18z
" />
    <glyph glyph-name="icircumflex" unicode="&#xee;" horiz-adv-x="367" 
d="M346 630q0 -34 -23 -51t-66 -17q-23 19 -40.5 35.5t-31.5 31.5l-3 3q-28 -29 -54 -49t-39 -20q-10 0 -21 2.5t-23 11.5q-25 23 -25 53q0 15 15 37.5t44 54.5l71 76h61l16 -15q6 -5 14 -13t11 -14q6 -5 11.5 -11l10.5 -11q2 -4 5.5 -6.5t5.5 -4.5v1q61 -62 61 -94z
M297 630q0 -20 -22 -20q-13 10 -26.5 23.5l-28.5 27.5l-16 18l-22 25q-34 -39 -60 -66t-33 -27q-9 0 -12 4h2q-10 4 -10 15t45 60l57 61h22q4 -5 10.5 -11.5t10.5 -11.5q16 -19 36 -37q47 -50 47 -61zM321 630q0 11 -14 29t-41 46l-16.5 18.5t-16.5 17.5l-1 2l-15 15.5
l-15 15.5h-41l-64 -70q-26 -28 -39 -45.5t-13 -28.5q0 -18 16 -34q8 -6 14.5 -7.5t13.5 -1.5q11 0 37.5 24.5t55.5 58.5q7 -9 10 -12l4 -4l2 -2l5 -5v-1q26 -27 63 -60q55 0 55 44zM182 -14q-45 0 -67 29.5t-22 76.5v333q0 46 22 76.5t67 30.5q46 0 70 -32q20 -29 20 -75
l-1 -332q0 -47 -19 -75q-23 -32 -70 -32zM182 12q35 0 50 24q13 20 13 57v331q0 35 -13 56q-15 25 -50 25t-49 -22t-14 -59v-331q0 -35 14 -58t49 -23zM182 39q-22 0 -28.5 14.5t-6.5 39.5v331q0 25 6.5 39t28.5 14t30 -17q5 -11 5 -36v-331q0 -25 -5 -36q-8 -18 -30 -18z
" />
    <glyph glyph-name="idieresis" unicode="&#xef;" horiz-adv-x="314" 
d="M151 617q0 -27 -20 -47t-47 -20t-46.5 19.5t-19.5 47.5q0 27 19.5 46.5t46.5 19.5q28 0 47.5 -19.5t19.5 -46.5zM38 617q0 -19 13 -33t33 -14t33.5 13.5t13.5 33.5q0 19 -13.5 32.5t-33.5 13.5q-19 0 -32.5 -13.5t-13.5 -32.5zM110 617q0 -11 -7.5 -18.5t-18.5 -7.5
q-10 0 -17.5 7.5t-7.5 18.5q0 10 7 17.5t18 7.5t18.5 -7.5t7.5 -17.5zM297 617q0 -27 -20 -47t-47 -20t-46.5 19.5t-19.5 47.5q0 27 19.5 46.5t46.5 19.5q28 0 47.5 -19.5t19.5 -46.5zM184 617q0 -19 13 -33t33 -14t33.5 13.5t13.5 33.5q0 19 -13.5 32.5t-33.5 13.5
q-19 0 -32.5 -13.5t-13.5 -32.5zM256 617q0 -11 -7.5 -18.5t-18.5 -7.5q-10 0 -17.5 7.5t-7.5 18.5q0 10 7 17.5t18 7.5t18.5 -7.5t7.5 -17.5zM155 -14q-45 0 -67 29.5t-22 76.5v333q0 46 22 76.5t67 30.5q46 0 70 -32q20 -29 20 -75l-1 -332q0 -47 -19 -75q-23 -32 -70 -32
zM155 12q35 0 50 24q13 20 13 57v331q0 35 -13 56q-15 25 -50 25t-49 -22t-14 -59v-331q0 -35 14 -58t49 -23zM155 39q-22 0 -28.5 14.5t-6.5 39.5v331q0 25 6.5 39t28.5 14t30 -17q5 -11 5 -36v-331q0 -25 -5 -36q-8 -18 -30 -18z" />
    <glyph glyph-name="quotedbl" unicode="&#x22;" horiz-adv-x="515" 
d="M143 682q40 0 69 -27t29 -66q0 -35 -35 -109.5t-62 -74.5q-28 0 -63 73.5t-35 110.5q0 41 28 67t69 26zM371 682q40 0 69 -27t29 -66q0 -35 -35 -109.5t-62 -74.5q-28 0 -63 73.5t-35 110.5q0 40 28.5 66.5t68.5 26.5zM208 589q0 27 -19 43t-46 16q-26 0 -45 -16t-19 -43
q0 -25 25.5 -81t39.5 -64q12 8 38 64.5t26 80.5zM436 589q0 27 -19 43t-46 16q-25 0 -44.5 -16.5t-19.5 -42.5q0 -25 26 -80.5t39 -64.5q12 8 38 64.5t26 80.5zM143 615q14 0 22.5 -7.5t8.5 -21.5q0 -13 -12 -41.5t-18 -28.5t-19 29t-13 42q0 12 9 20t22 8zM371 615
q14 0 22.5 -7.5t8.5 -21.5q0 -13 -12 -41.5t-18 -28.5t-19 29t-13 42q0 12 9 20t22 8z" />
    <glyph glyph-name="bullet" unicode="&#x2022;" horiz-adv-x="427" 
d="M407 335q0 -79 -57 -136q-56 -57 -137 -57q-80 0 -136 57q-58 58 -58 136q0 80 58 137q57 59 136 59t137 -58v1q57 -54 57 -139zM355 335q0 -57 -41.5 -99t-100.5 -42q-58 0 -99.5 42t-41.5 99q0 59 41.5 100.5t99.5 41.5q59 0 100.5 -41t41.5 -101zM380 335
q0 71 -49 119q-49 49 -118 49q-67 0 -117 -50t-50 -118q0 -67 50 -117q49 -49 117 -49q69 0 118 49t49 117z" />
    <glyph glyph-name="dagger" unicode="&#x2020;" horiz-adv-x="510" 
d="M22 400q0 29 7 46t20.5 26t32.5 11.5t44 2.5h42v11t1 10v71q2 16 3 30t6 25q-1 8 5.5 16.5t16.5 15t21.5 10.5t22.5 3q95 10 90 -106q0 -7 -0.5 -15.5t-0.5 -18.5v-43q-1 -4 -1 -9h59q59 0 81 -20t22 -66q0 -53 -47 -75l3 2q-25 -14 -59 -14h-57v-126q-1 -44 -1.5 -87
t-0.5 -96q-2 -92 -78 -95q-39 0 -63 22t-24 49v29l3 304h-45q-31 0 -51 6t-31.5 17t-16 27t-4.5 37zM76 400q0 23 13 28t36 5h95q0 37 1 72.5t1 71.5l4 34l20 13l23 -5q10 -14 11.5 -20.5t1.5 -23.5q3 -37 1.5 -70.5t1.5 -70.5l106 -1q29 0 39 -8t10 -25q0 -20 -18 -28h1
q-5 -4 -13 -5t-19 -1h-111q3 -89 2 -177.5t-1 -177.5q1 -49 -25 -47q-31 -1 -36 26v19v357h-95q-29 0 -39 9t-10 25zM50 400q0 -28 15 -43.5t60 -15.5h70l-1 -332v-26q2 -17 17.5 -29.5t42.5 -13.5q24 5 37 20t13 52q0 44 0.5 87.5t1.5 87.5v154h85q29 0 44 9l-1 -1
q32 16 32 51q0 31 -15.5 45t-59.5 14h-86v14v9t0.5 8.5t0.5 13.5q0 12 0.5 34t0.5 36v17.5t-2.5 15t-8 16.5t-14.5 21q-11 2 -21 2.5t-21 2.5q-23 -2 -34 -22.5t-10 -49.5v-71q-1 -12 -1 -23.5v-23.5h-70q-35 0 -55 -10t-20 -49z" />
    <glyph glyph-name="trademark" unicode="&#x2122;" horiz-adv-x="765" 
d="M23 605q0 33 19 47t49 14h160q29 0 48.5 -14t19.5 -47q0 -39 -29 -54q-19 -9 -61 -9v-186q0 -33 -12 -55q-14 -23 -46 -23t-45.5 22.5t-13.5 55.5v186q-43 0 -61 8q-28 15 -28 55zM130 356q0 -25 7 -40q11 -19 34 -19t32.5 17t9.5 42v207q5 0 12.5 -0.5t15.5 -0.5
q28 0 41 7q18 10 18 36q0 23 -14 32.5t-36 9.5h-159q-23 0 -36.5 -9t-13.5 -33q0 -26 19 -36q14 -7 41 -7h14t15 1v-207zM59 605q0 11 6.5 17t25.5 6h160q14 0 23.5 -4.5t9.5 -18.5q0 -15 -14 -20.5t-35 -5.5q-11 0 -25.5 1t-15.5 1v-225q0 -17 -4 -25q-4 -15 -19 -15
q-11 0 -17 8.5t-6 31.5v225q-4 0 -20 -0.5t-20 -0.5q-22 0 -33 4q-16 6 -16 21zM631 670q32 0 49 -25q12 -18 18 -57t16 -91q21 -105 21 -156q0 -27 -17 -44.5t-42 -17.5q-37 0 -54 44q-3 11 -14 79q-14 -40 -30 -77q-23 -46 -58 -46q-39 0 -66 65q-16 42 -21 58
q-12 -70 -15 -79q-15 -44 -54 -44q-24 0 -41 17.5t-17 45.5q0 48 14 122q10 62 22 125q7 38 19 56q16 25 49 25q39 0 73 -71l37 -100l37 99q35 72 74 72zM458 602q-11 26 -17 34q-11 14 -31 14q-24 0 -36 -20q-9 -14 -13 -44l-35 -219q-1 -11 -1.5 -14.5t-0.5 -10.5
q0 -19 11 -32t29 -13q35 0 51 76q8 83 11 94l43 -119q27 -50 51 -50q30 0 64 79q28 83 31 90q8 -61 17 -122q14 -48 44 -48q17 0 29 13t12 31l-2 26l-35 219q-5 31 -12 44q-13 20 -37 20q-19 0 -31 -14q-8 -12 -17 -34l-63 -150zM598 594q8 19 12 24q9 13 21 13q16 0 23 -16
q3 -8 8 -33l35 -218q0 -6 1 -11t1 -12q0 -10 -6.5 -16.5t-16.5 -6.5q-12 0 -17.5 10t-6.5 25l-29 180l-74 -179q-6 -18 -9 -23q-9 -15 -20 -15q-10 0 -19 15q-4 5 -11 23l-73 179l-28 -180q-3 -17 -6 -23q-6 -12 -19 -12q-9 0 -16 6.5t-7 17.5l2 22l36 218q3 24 7 32
q7 17 24 17q14 0 23 -18q2 -5 8 -19l79 -190z" />
    <glyph glyph-name="ellipsis" unicode="&#x2026;" horiz-adv-x="1000" 
d="M274 103q0 -45 -31.5 -76.5t-75.5 -31.5t-76 32t-32 76q0 45 31 76t77 31q45 0 76 -31t31 -76zM607 103q0 -44 -31 -76t-76 -32q-44 0 -76 32t-32 76t31.5 75.5t76.5 31.5t76 -31t31 -76zM941 103q0 -44 -32 -76t-76 -32t-75.5 31.5t-31.5 76.5t31 76t76 31q44 0 76 -31
t32 -76zM92 103q0 -32 21.5 -53.5t53.5 -21.5q31 0 52.5 21.5t21.5 53.5q0 30 -22 52t-52 22q-32 0 -53.5 -21.5t-21.5 -52.5zM426 103q0 -32 21.5 -53.5t52.5 -21.5t52.5 21.5t21.5 53.5q0 31 -21.5 52.5t-52.5 21.5t-52.5 -21.5t-21.5 -52.5zM759 103q0 -32 21.5 -53.5
t52.5 -21.5t52.5 21.5t21.5 53.5q0 31 -21.5 52.5t-52.5 21.5t-52.5 -21.5t-21.5 -52.5zM208 103q0 -17 -12 -29t-29 -12t-29.5 11.5t-12.5 29.5q0 17 12 29t30 12q17 0 29 -12t12 -29zM541 103q0 -17 -12 -29t-29 -12t-29 12t-12 29t12 29t29 12t29 -12t12 -29zM874 103
q0 -17 -12 -29t-29 -12t-29 12t-12 29t12 29t29 12t29 -12t12 -29z" />
    <glyph glyph-name="florin" unicode="&#x192;" horiz-adv-x="598" 
d="M508 316q0 -49 -37 -71q-30 -18 -83 -18q-22 -129 -31 -164q-25 -94 -70 -142q-57 -61 -154 -61q-52 0 -86 21q-42 26 -42 75t35 70l99 37q7 8 17 59l20 107q-33 7 -53.5 30.5t-20.5 57.5q0 49 32 68q16 10 73 22q21 116 32 151q26 84 70 128q55 54 144 54q58 0 96 -25
q45 -29 45 -85q0 -35 -24.5 -61.5t-58.5 -26.5q-9 0 -22.5 3.5t-25.5 7.5l-15 -10q-10 -26 -16.5 -64t-11.5 -73q36 0 62 -26t26 -64zM461 586q8 0 19 -3q25 -7 32 -7q4 0 13 3l12 4q10 7 17 21t7 27q0 39 -36 60q-30 17 -72 17q-117 0 -168 -118q-18 -43 -50 -217
q-48 0 -66 -6q-34 -12 -34 -51q0 -32 22.5 -44t57.5 -12l-16 -108q-16 -90 -35 -111q-12 -13 -75 -30q-51 -14 -51 -53q0 -35 31 -52q26 -14 64 -14q125 0 177 132q16 42 50 236h25q41 0 60 8q30 13 30 48q0 37 -31 49q-20 8 -64 8l25 152q20 61 56 61zM433 335l8 -19
l-8 -18q-10 -3 -27 -4t-32 -1h-42q-38 -221 -41 -229q-46 -139 -161 -139q-25 0 -37 4q-22 7 -22 27q0 17 30 24q78 17 101 58.5t35 124.5l18 130h-21q-14 0 -28.5 1t-28.5 4l-9 18l9 19q23 5 54 5h32l21 136q18 89 51 136q43 62 118 62q28 0 51.5 -8.5t23.5 -32.5l-5 -16
l-14 -6q-10 0 -27 4.5t-23 4.5q-68 0 -97 -122q-18 -135 -22 -158h42q12 0 25.5 -1t25.5 -4z" />
    <glyph glyph-name="OE" unicode="&#x152;" horiz-adv-x="1002" 
d="M651 637h190q59 0 91 -22q40 -26 40 -81q0 -63 -51 -87q-37 -17 -112 -17q-16 0 -43.5 1t-37.5 1v-19h22t25 1q70 0 103 -14q50 -22 50 -83q0 -59 -48 -81q-34 -15 -103 -15h-25.5t-23.5 1v-19q10 0 37.5 1t43.5 1q73 0 111 -17q52 -24 52 -87q0 -52 -40 -79
q-34 -23 -91 -23h-190q-32 0 -57 5.5t-45 22.5q-80 -42 -168 -42q-141 0 -242 97.5t-101 234.5t101 235.5t242 98.5q47 0 88 -10t80 -32q18 16 44 22t58 6zM381 618q-127 0 -218 -88.5t-91 -212.5q0 -122 91 -211t218 -89q97 0 175 53q14 -25 41 -33q18 -6 54 -6h190
q42 0 67 13q31 17 31 57q0 43 -43 61q-35 14 -94 14q-30 0 -57.5 -2t-49.5 -3v83q8 0 37.5 -1.5t49.5 -1.5q51 0 77 11q36 16 36 55q0 6 -3 15t-5 18q-19 20 -45 27t-60 7q-23 0 -44.5 -1t-42.5 -1v82q13 0 51.5 -2.5t52.5 -2.5q63 0 96 13q44 18 44 62q0 41 -26.5 55.5
t-71.5 14.5h-190q-36 0 -58.5 -7t-36.5 -32q-76 53 -175 53zM583 552q19 14 30 17.5t38 3.5h190q31 0 44 -5q22 -9 22 -34q0 -24 -36 -34.5t-89 -10.5q-32 0 -60.5 2t-59.5 5v-146q24 0 50 1l51 2q25 0 47 -2t40 -8l12 -26l-12 -24q-18 -6 -39.5 -8t-46.5 -2q-26 0 -51.5 1
l-50.5 2v-147q31 3 60 5t60 2q58 0 91.5 -9.5t33.5 -35.5q0 -24 -22 -33q-13 -5 -44 -5h-190q-29 0 -38 2.5t-30 18.5q-2 6 -3 15q-4 24 -4 25q-37 -36 -87.5 -55.5t-106.5 -19.5q-115 0 -196.5 78.5t-81.5 189.5t82.5 190.5t196.5 79.5q112 0 193 -76q3 21 7 41zM190 317
q0 -76 56 -131t136 -55t137 55t57 131q0 78 -56.5 132.5t-137.5 54.5q-79 0 -135.5 -54.5t-56.5 -132.5zM543 317q0 -63 -46.5 -108.5t-114.5 -45.5q-66 0 -112.5 45t-46.5 109t46.5 109.5t112.5 45.5t113.5 -45t47.5 -110zM256 317q0 -50 37 -86t89 -36q53 0 90.5 35.5
t37.5 86.5t-37 87t-91 36q-52 0 -89 -36t-37 -87z" />
    <glyph glyph-name="endash" unicode="&#x2013;" horiz-adv-x="780" 
d="M622 367q56 0 87 -21q38 -26 38 -79q0 -51 -36 -77q-32 -23 -85 -23h-473q-52 0 -84 23q-36 26 -36 77q0 53 35.5 76.5t89.5 23.5h464zM622 201q40 0 62 12q29 16 29 54q0 39 -28 55q-21 12 -63 12h-464q-54 0 -75 -20q-16 -15 -16 -47q0 -38 28 -54q22 -12 63 -12h464z
M622 300q29 0 38 -3q20 -7 20 -30q0 -21 -15 -27t-39 -6h-472q-26 0 -36 4q-18 7 -18 29t15 27.5t43 5.5h464z" />
    <glyph glyph-name="emdash" unicode="&#x2014;" horiz-adv-x="1066" 
d="M909 367q55 0 89.5 -23.5t34.5 -76.5q0 -51 -37 -77q-33 -23 -87 -23h-751q-56 0 -87 21q-38 25 -38 79q0 53 35.5 76.5t89.5 23.5h751zM909 201q41 0 62 11q29 15 29 55q0 38 -25.5 52.5t-65.5 14.5h-751q-42 0 -63 -12q-28 -16 -28 -55q0 -38 28 -54q21 -12 63 -12h751
zM909 300q23 0 44 -6q13 -13 13 -27q0 -5 -2.5 -11.5t-9.5 -14.5q-25 -7 -45 -7h-751q-10 0 -21.5 2t-24.5 5q-7 8 -9.5 14t-2.5 12q0 22 15 27.5t43 5.5h751z" />
    <glyph glyph-name="quotedblleft" unicode="&#x201c;" horiz-adv-x="504" 
d="M240 513q0 -41 -27.5 -68.5t-68.5 -27.5t-69.5 26.5t-28.5 67.5q0 47 32 100q36 60 81 60q30 0 52.5 -19.5t22.5 -49.5q0 -19 -9 -36q15 -24 15 -53zM458 513q0 -41 -27.5 -68.5t-68.5 -27.5t-69.5 26.5t-28.5 67.5q0 47 32 100q36 60 80 60q31 0 53.5 -19.5t22.5 -49.5
q0 -19 -9 -36q15 -24 15 -53zM205 602q0 18 -14 29t-33 11q-29 0 -55.5 -49.5t-26.5 -81.5q0 -28 20 -46t48 -18q30 0 48 18t18 48q0 28 -20 51q5 7 10 18t5 20zM422 602q0 17 -13.5 28.5t-32.5 11.5q-29 0 -55.5 -49.5t-26.5 -81.5q0 -28 20 -46t48 -18q30 0 48 18t18 48
q0 13 -6 26.5t-14 24.5q14 19 14 38zM181 513q0 -16 -10.5 -26t-26.5 -10q-15 0 -26.5 9.5t-11.5 24.5q0 19 20 60t34 41q16 0 16 -15q0 -6 -9 -26l-12 -25q26 -10 26 -33zM398 513q0 -16 -10 -26t-27 -10q-15 0 -26 9t-11 25q0 19 20 60t34 41q16 0 16 -15q0 -7 -10 -27
l-12 -24q26 -10 26 -33z" />
    <glyph glyph-name="quotedblright" unicode="&#x201d;" horiz-adv-x="504" 
d="M46 575q0 40 28 68t69 28t69.5 -26.5t28.5 -67.5q0 -47 -32 -100q-36 -60 -81 -60q-31 0 -53.5 19.5t-22.5 50.5q0 11 1.5 17t8.5 18q-16 26 -16 53zM264 575q0 41 27.5 68.5t68.5 27.5t69.5 -26.5t28.5 -67.5q0 -47 -32 -100q-36 -60 -80 -60q-31 0 -53.5 19.5
t-22.5 50.5q0 8 1 14.5t8 20.5q-15 27 -15 53zM82 487q0 -18 14 -29t32 -11q29 0 57 52q25 47 25 79q0 28 -19.5 45.5t-47.5 17.5q-29 0 -48 -18t-19 -48q0 -13 5.5 -26t14.5 -25q-8 -13 -11 -19.5t-3 -17.5zM300 487q0 -18 14 -29t32 -11q29 0 57 52q25 47 25 79
q0 28 -19.5 45.5t-48.5 17.5t-47.5 -18.5t-18.5 -47.5q0 -13 5.5 -26t14.5 -25q-14 -19 -14 -37zM106 575q0 16 10.5 26.5t26.5 10.5q15 0 26.5 -9.5t11.5 -24.5q0 -18 -20.5 -60t-34.5 -42q-16 0 -16 15q0 7 10 27l12 24q-26 10 -26 33zM324 575q0 37 36 37q16 0 27 -9
t11 -25q0 -20 -20 -61t-34 -41q-16 0 -16 15q0 7 10 27l12 24q-26 10 -26 33z" />
    <glyph glyph-name="quoteleft" unicode="&#x2018;" horiz-adv-x="287" 
d="M240 513q0 -41 -27.5 -68.5t-68.5 -27.5t-69.5 26.5t-28.5 67.5q0 47 32 100q36 60 81 60q30 0 52.5 -19.5t22.5 -49.5q0 -19 -9 -36q15 -24 15 -53zM205 602q0 18 -14 29t-33 11q-29 0 -55.5 -49.5t-26.5 -81.5q0 -28 20 -46t48 -18q30 0 48 18t18 48q0 28 -20 51
q5 7 10 18t5 20zM181 513q0 -16 -10.5 -26t-26.5 -10q-15 0 -26.5 9.5t-11.5 24.5q0 19 20 60t34 41q16 0 16 -15q0 -6 -9 -26l-12 -25q26 -10 26 -33z" />
    <glyph glyph-name="quoteright" unicode="&#x2019;" horiz-adv-x="287" 
d="M46 575q0 40 28 68t69 28t69.5 -26.5t28.5 -67.5q0 -47 -32 -100q-36 -60 -81 -60q-31 0 -53.5 19.5t-22.5 50.5q0 11 1.5 17t8.5 18q-16 26 -16 53zM82 487q0 -18 14 -29t32 -11q29 0 57 52q25 47 25 79q0 28 -19.5 45.5t-47.5 17.5q-29 0 -48 -18t-19 -48
q0 -13 5.5 -26t14.5 -25q-8 -13 -11 -19.5t-3 -17.5zM106 575q0 16 10.5 26.5t26.5 10.5q15 0 26.5 -9.5t11.5 -24.5q0 -18 -20.5 -60t-34.5 -42q-16 0 -16 15q0 7 10 27l12 24q-26 10 -26 33z" />
    <glyph glyph-name="Ydieresis" unicode="&#x178;" horiz-adv-x="632" 
d="M30 564q0 44 33 76t78 32q62 0 125 -93l51 -79l66 108q48 64 104 64q45 0 78 -32t33 -76q0 -48 -79 -160l-95 -126q0 -14 2 -55.5t2 -51.5q0 -80 -19 -120q-27 -56 -95 -56t-94 56q-19 40 -19 121q0 30 1 55.5l2 50.5l-123 169q-51 81 -51 117zM314 28q48 0 68 46
q15 35 15 100q0 35 -2 58.5t-4 55.5l121 165q53 81 53 110q0 31 -23.5 53.5t-54.5 22.5q-45 0 -104 -87q-56 -95 -66 -110l-94 141q-47 56 -82 56q-31 0 -54.5 -22.5t-23.5 -53.5q0 -25 44 -94q35 -55 82 -118l48 -63q0 -18 -1 -32q-5 -68 -5 -82q0 -65 15 -100
q20 -46 68 -46zM97 563q0 18 13 30t31 12q28 0 105 -108l74 -113l94 153q49 68 73 68q18 0 31 -12t13 -30q0 -22 -84 -141l-90 -123v-167q0 -32 -6 -47q-9 -23 -37 -23t-38 23q-6 14 -6 47v167l-89 123q-84 120 -84 141zM312 764q0 -27 -20 -47t-47 -20t-46.5 19.5
t-19.5 47.5q0 27 19.5 46.5t46.5 19.5q28 0 47.5 -19.5t19.5 -46.5zM199 764q0 -19 13 -33t33 -14t33.5 13.5t13.5 33.5q0 19 -13.5 32.5t-33.5 13.5q-19 0 -32.5 -13.5t-13.5 -32.5zM271 764q0 -11 -7.5 -18.5t-18.5 -7.5q-10 0 -17.5 7.5t-7.5 18.5q0 10 7 17.5t18 7.5
t18.5 -7.5t7.5 -17.5zM458 764q0 -27 -20 -47t-47 -20t-46.5 19.5t-19.5 47.5q0 27 19.5 46.5t46.5 19.5q28 0 47.5 -19.5t19.5 -46.5zM345 764q0 -19 13 -33t33 -14t33.5 13.5t13.5 33.5q0 19 -13.5 32.5t-33.5 13.5q-19 0 -32.5 -13.5t-13.5 -32.5zM417 764
q0 -11 -7.5 -18.5t-18.5 -7.5q-10 0 -17.5 7.5t-7.5 18.5q0 10 7 17.5t18 7.5t18.5 -7.5t7.5 -17.5z" />
    <glyph glyph-name="guilsinglleft" unicode="&#x2039;" horiz-adv-x="333" 
d="M292 164q0 -36 -28.5 -61.5t-64.5 -25.5q-48 0 -103.5 74t-55.5 117q0 42 53 113q57 77 106 77q36 0 64.5 -25.5t28.5 -61.5q0 -19 -10 -40q-2 -4 -39 -63l32 -53.5t17 -50.5zM259 371q0 22 -18.5 38t-41.5 16q-33 0 -79.5 -65t-46.5 -93t44 -90q48 -68 82 -68
q22 0 41 16t19 39q0 15 -25.5 55l-30.5 48l32 48q24 39 24 56zM224 164q0 -9 -7.5 -15.5t-17.5 -6.5q-15 0 -47 48q-8 11 -32 52q-5 7 -9 14t-4 11q0 5 5 12l8 12q20 40 43.5 70.5t36.5 30.5q9 0 16.5 -6.5t7.5 -15.5q0 -10 -30 -57l-30 -46l30 -47q30 -47 30 -56z" />
    <glyph glyph-name="guilsinglright" unicode="&#x203a;" horiz-adv-x="346" 
d="M53 279q0 36 28.5 61.5t65.5 25.5q48 0 105 -76q53 -71 53 -114q0 -45 -53 -115q-57 -76 -105 -76q-38 0 -66 24.5t-28 62.5q0 26 26 67l24 37q-16 24 -31 49q-19 33 -19 54zM87 73q0 -23 18 -39t42 -16q32 0 80 68q45 64 45 91q0 26 -44 88q-48 68 -81 68
q-23 0 -41.5 -15.5t-18.5 -38.5q0 -19 33 -70l22 -33l-31 -49q-24 -40 -24 -54zM121 279q0 9 7.5 15.5t17.5 6.5q19 0 60 -66q19 -34 20 -35q5 -7 8.5 -13t3.5 -11q0 -6 -4 -12l-8 -12l-45 -70q-23 -31 -35 -31q-10 0 -17.5 6.5t-7.5 15.5q0 11 29 56q26 41 32 47
q-6 6 -41 64q-20 33 -20 39z" />
    <glyph glyph-name="perthousand" unicode="&#x2030;" horiz-adv-x="1024" 
d="M845 392q67 0 115.5 -60t48.5 -143q0 -82 -48.5 -142t-115.5 -60q-50 0 -90.5 33t-59.5 90q-20 -55 -61 -89t-90 -34q-74 0 -119 65.5t-45 160.5l-75 -122q-67 -96 -107 -96q-30 0 -52.5 27t-22.5 65q0 43 65 136l44 61q-26 -10 -48 -10q-66 0 -115 60.5t-49 142.5
q0 83 48.5 143t115.5 60q74 0 120 -67q42 -63 42 -159l76 121q68 97 108 97q29 0 52 -28.5t23 -64.5t-46 -107q-52 -73 -62 -89q23 9 47 9q49 0 90 -33t61 -90q19 56 59.5 89.5t90.5 33.5zM198 28q15 0 28 12q8 7 21 27l307 455q14 19 19 32.5t5 24.5q0 23 -14.5 41
t-33.5 18q-15 0 -27 -10.5t-23 -28.5l-97 -140l-151 -223q-83 -121 -83 -149q0 -23 15 -41t34 -18zM407 189q0 -70 40 -119.5t97 -49.5q56 0 96.5 49.5t40.5 119.5t-40.5 119.5t-96.5 49.5q-57 0 -97 -49t-40 -120zM47 477q0 -70 40 -119.5t97 -49.5t97 49.5t40 119.5
t-40 119.5t-97 49.5t-97 -49.5t-40 -119.5zM708 189q0 -70 40 -119.5t97 -49.5t97 49.5t40 119.5q0 69 -40 119t-97 50t-97 -49.5t-40 -119.5zM184 70l-7 17q10 32 85 135l136 209q94 133 103 147t13 18t16 9l15 -8l7 -18q-10 -33 -83 -142l-138 -202l-104 -146
q-7 -10 -13 -16.5t-16 -10.5zM653 189q0 -56 -31.5 -96t-77.5 -40t-78.5 39.5t-32.5 96.5q0 56 32.5 96t78.5 40q44 0 76.5 -40t32.5 -96zM294 477q0 -56 -32.5 -96t-77.5 -40t-77.5 40t-32.5 96t32.5 96t77.5 40t77.5 -40t32.5 -96zM955 189q0 -56 -32.5 -96t-77.5 -40
q-46 0 -78 40t-32 96t32 96t78 40q45 0 77.5 -40t32.5 -96zM493 189q0 -26 15 -44.5t36 -18.5t35.5 18.5t14.5 44.5t-14.5 44.5t-35.5 18.5t-36 -17.5t-15 -45.5zM134 477q0 -26 14 -44t36 -18q21 0 36 17.5t15 44.5t-14.5 45t-36.5 18t-36 -18t-14 -45zM795 189
q0 -25 14.5 -44t35.5 -19q22 0 36 18t14 45t-14 45t-36 18q-21 0 -35.5 -18t-14.5 -45zM567 189q0 -12 -7 -20.5t-16 -8.5q-10 0 -17 9t-7 20q0 13 6.5 21.5t17.5 8.5q9 0 16 -8.5t7 -21.5zM208 477q0 -12 -7 -20.5t-17 -8.5t-17 8.5t-7 20.5t7 20.5t17 8.5t17 -8.5t7 -20.5
zM869 189q0 -12 -7 -20.5t-17 -8.5q-9 0 -16.5 9t-7.5 20q0 12 6.5 21t17.5 9q10 0 17 -8.5t7 -21.5z" />
    <glyph glyph-name="quotedblbase" unicode="&#x201e;" horiz-adv-x="504" 
d="M46 114q0 42 28 69t69 27t69.5 -26.5t28.5 -67.5q0 -47 -32 -100q-36 -60 -81 -60q-31 0 -53.5 19.5t-22.5 50.5q0 18 10 36q-16 24 -16 52zM264 114q0 42 27 69t69 27q41 0 69.5 -26.5t28.5 -67.5q0 -47 -32 -100q-36 -60 -80 -60q-31 0 -53.5 19.5t-22.5 50.5
q0 16 9 36q-15 23 -15 52zM82 26q0 -18 14 -29t32 -11q29 0 57 52q25 47 25 79q0 28 -19.5 45.5t-47.5 17.5q-29 0 -48 -18t-19 -48q0 -26 20 -51q-8 -13 -11 -19.5t-3 -17.5zM300 26q0 -18 14 -29t32 -11q29 0 57 52q25 47 25 79q0 28 -19.5 45.5t-48.5 17.5t-47.5 -18.5
t-18.5 -47.5q0 -26 20 -51q-14 -19 -14 -37zM106 114q0 17 10 27t27 10q15 0 26.5 -9.5t11.5 -24.5q0 -18 -20.5 -60t-34.5 -42q-16 0 -16 15q0 7 10 27l12 24q-26 10 -26 33zM324 114q0 37 36 37q16 0 27 -9t11 -25q0 -20 -20 -61t-34 -41q-16 0 -16 15q0 7 10 27l12 24
q-26 10 -26 33z" />
    <glyph glyph-name="circumflex" unicode="&#x2c6;" horiz-adv-x="411" 
d="M386 480q0 -43 -27 -60.5t-72 -12.5q-30 23 -46.5 39.5t-30.5 32.5l-5 4q-2 -2 -3 -3.5t-2 -2.5q-63 -72 -97 -72q-38 0 -57 20t-19 55q0 17 16.5 41t48.5 59l78 86h74l15.5 -21.5t3.5 -4.5q5 -4 10.5 -10t8.5 -9q4 -5 7 -8t6 -8q0 -1 2 -3l20 -20q35 -35 52 -60t17 -42z
M332 480q0 -24 -26 -21q-14 11 -28 25.5l-31 31.5q-9 8 -17 18t-24 27q-7 -8 -13.5 -14.5t-13.5 -14.5l-17 -19q-48 -54 -59 -54q-22 0 -22 21q0 10 49 65l63 68h24q5 -6 12 -13l12 -12l19.5 -21.5t20.5 -20.5q51 -56 51 -66zM358 480q0 20 -60 83l-20 21q-5 5 -9 9.5
t-9 9.5q-2 4 -7 8.5t-9 9.5l-4 4t-10 13h-48l-70 -76q-29 -32 -43 -51.5t-14 -30.5q0 -47 48 -47q21 0 77 63q5 5 9.5 10t9.5 10l-2 -1l8 8q7 -8 13 -13.5t12 -12.5h-1q14 -15 29.5 -29.5t38.5 -33.5q28 -3 44.5 8t16.5 38z" />
    <glyph glyph-name="tilde" unicode="&#x2dc;" horiz-adv-x="470" 
d="M98 481q0 2 1 2h-1v-2zM444 527q-12 -34 -22 -50q-45 -74 -128 -74q-37 0 -67.5 21.5t-59.5 65.5l-12 -39.5t-37 -43.5q-36 -7 -68 13t-32 58q0 31 7.5 59.5t20.5 52.5q45 77 125 77q33 0 63.5 -22.5t58.5 -65.5h1q2 -2 2.5 -3.5t2.5 -3.5q3 6 4 12t1 11q0 35 18 55
t58 20q37 0 55 -20t18 -55q0 -11 -1 -21.5t-3 -21.5zM291 498q28 0 48 33q8 14 13.5 30.5t5.5 33.5q0 21 22 21q20 0 20 -21q0 -26 -6.5 -48t-17.5 -41q-28 -49 -82 -49q-40 0 -81 62q-31 52 -39 52q-23 0 -38 -19q-2 -4 -11 -27t-24 -68q-31 0 -31 21q0 25 6 46.5t17 41.5
v-1q28 48 78 48q37 0 79 -63q17 -25 27 -38.5t14 -13.5zM271 564q-49 75 -100 75q-65 0 -101 -62q-11 -21 -17.5 -46.5t-6.5 -52.5q10 -53 67 -42q21 33 31 64l12 37q4 3 8 5.5t9 3.5q-5 -2 18 -40q48 -75 103 -75q67 0 104 61q27 43 27 103q0 22 -11 34.5t-34 12.5
q-25 0 -36.5 -12.5t-11.5 -34.5q0 -13 -4 -25.5t-10 -24.5q-13 -21 -26 -21q4 1 -21 40z" />
    <glyph glyph-name="cedilla" unicode="&#xb8;" horiz-adv-x="324" 
d="M159 -72q7 0 10 3l4 25q0 -2 -10 -2q-16 0 -16 -13t12 -13zM222 52q32 -13 49.5 -42t17.5 -68q0 -57 -35 -94t-92 -37q-106 0 -139 162l17 2l58 131h146zM170 10q30 0 48 -19t18 -49q0 -33 -20.5 -55.5t-53.5 -22.5q-62 0 -75 61l37 4q2 -12 14 -20t25 -8q36 0 36 40
q0 17 -11.5 28.5t-28.5 11.5q-22 0 -34 -19l-26 15l33 76h32l-21 -49q12 6 27 6zM203 78h-88l-49 -113l25 -13l-34 -4q21 -109 105 -109q44 0 71.5 29t27.5 74q0 38 -20.5 63t-55.5 29z" />
    <glyph glyph-name="Scaron" unicode="&#x160;" horiz-adv-x="530" 
d="M397 411q-25 0 -52 12q-79 39 -81 39l-14 -11l6 -10l171 -80q85 -52 85 -158q0 -98 -74 -160q-70 -58 -173 -58q-87 0 -157 39q-84 47 -84 126q0 39 29 66.5t71 27.5q29 0 57 -18q79 -52 87 -54l20 6l8 13l-7 14l-166 77q-82 53 -82 156q0 95 66 153.5t165 58.5
q76 0 142 -34q80 -41 80 -108q0 -40 -28.5 -68.5t-68.5 -28.5zM272 621q-86 0 -142 -49.5t-56 -133.5q0 -83 65 -130q26 -18 123 -56q67 -27 67 -58q0 -23 -18.5 -36t-42.5 -13q-36 0 -78 34t-65 34q-28 0 -48.5 -18t-20.5 -46q0 -62 74 -100q64 -32 134 -32q89 0 150 48
q65 53 65 138q0 83 -68 131q-26 18 -126 58q-68 27 -68 58q0 18 14 29.5t33 11.5t83 -33q30 -15 50 -15q26 0 45 19t19 46q0 53 -69 85q-58 28 -120 28zM272 590q47 0 95 -19q61 -24 61 -63q0 -13 -9 -22.5t-22 -9.5q-9 0 -75 33q-31 16 -56 16q-34 0 -58 -20.5t-24 -53.5
q0 -50 68 -80l126 -54q68 -41 68 -114t-53 -114t-129 -41q-57 0 -109 23q-67 30 -67 77q0 16 10.5 25t25.5 9q8 0 49.5 -33.5t92.5 -33.5q38 0 66 22t28 59q0 49 -63 76l-124 53q-66 40 -66 112q0 71 46 112t119 41zM382 899q32 0 48.5 -16.5t16.5 -47.5q0 -15 -16 -38
t-41 -51l-14 -14l-19.5 -19l-20.5 -20.5t-18 -17.5h-59l-17 14l-39 40l-31 33q-17 19 -30 39t-13 31q0 38 22 54t69 10q17 -13 33.5 -29l33.5 -34l-2 1l3 -3q2 1 3 3t3 4q24 26 49 43.5t39 17.5zM382 853q18 0 18 -18q0 -9 -45 -58q-10 -11 -24.5 -25.5t-31.5 -29.5h-21
l-40.5 39l-31.5 31l-21.5 25.5t-8.5 14.5q0 23 25 20q22 -19 51 -48q6 -8 11 -13t11 -12q2 -2 4 -5.5t10 -9.5l20 21l21 22q19 21 33.5 33.5t19.5 12.5zM382 875q-9 0 -28.5 -15t-40.5 -38q-6 -7 -12.5 -13.5t-12.5 -13.5q-5 7 -10 12.5l-10 10.5q-16 18 -30.5 31.5
t-27.5 23.5q-30 4 -43.5 -6.5t-13.5 -34.5q0 -7 11 -22.5t27 -32.5q11 -13 33.5 -34.5l43.5 -43.5h40l35 34.5l29 29.5q23 24 36.5 43t13.5 29q0 40 -40 40z" />
    <glyph glyph-name="scaron" unicode="&#x161;" horiz-adv-x="468" 
d="M334 338q-20 0 -42 11l-65 32l-12 -9l5 -9l139 -66q69 -44 69 -133q0 -83 -60 -134q-56 -48 -141 -48q-71 0 -127 32q-68 39 -68 105q0 33 24 56t57 23q24 0 46 -15q64 -43 71 -45l16 5l6 11l-5 11l-136 65q-66 43 -66 130q0 80 54 129t134 49q62 0 115 -28
q65 -34 65 -91q0 -33 -23 -57t-56 -24zM233 514q-70 0 -115.5 -41.5t-45.5 -111.5q0 -91 103.5 -136.5t103.5 -68.5q0 -19 -14 -29.5t-35 -10.5q-29 0 -63 28t-53 28q-23 0 -39.5 -15.5t-16.5 -37.5q0 -52 61 -84q51 -27 108 -27q72 0 123.5 42.5t51.5 113.5q0 91 -107 137
t-107 70q0 15 11.5 24.5t27.5 9.5q18 0 41 -12q53 -28 66 -28q22 0 37 16t15 38q0 45 -56 72q-47 23 -97 23zM233 488q37 0 77 -16q50 -20 50 -52q0 -28 -25 -28q-8 0 -61 28q-24 13 -46 13q-26 0 -46.5 -17.5t-20.5 -43.5q0 -45 107 -88t107 -120q0 -60 -44 -95t-105 -35
q-46 0 -88 19q-54 24 -54 65q0 12 8 20t21 8q7 0 41 -28t74 -28q31 0 54 18.5t23 49.5q0 43 -103 84t-103 118q0 59 37.5 93.5t96.5 34.5zM344 801q33 0 49.5 -17.5t16.5 -49.5q0 -16 -16 -40t-42 -53q-5 -6 -14 -15l-19.5 -19.5l-21 -21.5l-18.5 -19h-60l-17 15l-39.5 42
l-31.5 34q-17 20 -30.5 41t-13.5 33q0 39 22.5 56t70.5 11q17 -14 34 -30.5t34 -35.5l-2 1l3 -3q2 1 3 3t3 4q24 27 49.5 45.5t39.5 18.5zM344 753q18 0 18 -19q0 -10 -45 -61l-25 -26.5l-32 -31.5h-21l-41.5 41l-31.5 33l-22.5 26.5t-8.5 15.5q0 24 26 21q22 -20 51 -51
q6 -8 11.5 -13.5t11.5 -12.5q2 -2 4 -5.5t10 -10.5l20 22.5l21 23.5q20 22 34.5 35t19.5 13zM344 776q-9 0 -29 -16t-41 -40l-12.5 -14l-12.5 -14q-5 7 -10 13t-10 11q-17 19 -31.5 33t-27.5 25q-31 4 -44.5 -7t-13.5 -36q0 -8 11 -24t27 -34q12 -14 34.5 -36.5l44.5 -45.5
h40l35.5 36.5l29.5 30.5q23 26 37 45.5t14 30.5q0 42 -41 42z" />
    <glyph glyph-name="Zcaron" unicode="&#x17d;" horiz-adv-x="599" 
d="M23 545q0 55 36 80.5t92 25.5h288q55 0 88 -20q41 -25 41 -78q0 -33 -56 -123q-40 -64 -106 -154l-59 -78q13 0 44.5 1t32.5 1q72 0 108 -18q50 -25 50 -91q0 -55 -38 -82q-34 -24 -90 -24h-308q-54 0 -85 22q-36 25 -36 78q0 37 54 124q37 59 104 148l62 81
q-15 0 -30 -0.5t-30 -0.5q-95 0 -131 30q-31 26 -31 78zM58 85q0 -39 28 -55q21 -12 64 -12h304q42 0 66 15q29 18 29 58q0 46 -47 66q-35 15 -101 15q-32 0 -62.5 -2.5l-54.5 -4.5q1 0 65 88q76 104 121 175q65 101 65 126q0 38 -34 53q-24 11 -66 11h-279q-45 0 -68 -13
q-31 -18 -31 -60q0 -46 44 -65q34 -15 97 -15q34 0 57 1.5t54 4.5l-67 -88q-74 -99 -120 -170q-64 -99 -64 -128zM156 505q-31 0 -44 5q-22 9 -22 35q0 25 18 32.5t48 7.5h283q27 0 38 -3q24 -7 24 -27q0 -18 -69 -122l-132 -191l-79 -111h229q31 0 48.5 -6.5t17.5 -33.5
q0 -24 -20 -33q-14 -6 -42 -6h-307q-27 0 -37 4q-19 7 -19 29q0 19 71 125l134 191l76 104h-216zM393 908q33 0 49.5 -17.5t16.5 -49.5q0 -16 -16 -40t-42 -53q-5 -6 -14 -15l-19.5 -19.5l-21 -21.5l-18.5 -19h-60l-17 15l-39.5 42l-31.5 34q-17 20 -30.5 41t-13.5 33
q0 39 22.5 56t70.5 11q17 -14 34 -30.5t34 -35.5l-2 1l3 -3q2 1 3 3t3 4q24 27 49.5 45.5t39.5 18.5zM393 860q18 0 18 -19q0 -10 -45 -61l-25 -26.5l-32 -31.5h-21l-41.5 41l-31.5 33l-22.5 26.5t-8.5 15.5q0 24 26 21q22 -20 51 -51q6 -8 11.5 -13.5t11.5 -12.5
q2 -2 4 -5.5t10 -10.5l20 22.5l21 23.5q20 22 34.5 35t19.5 13zM393 883q-9 0 -29 -16t-41 -40l-12.5 -14l-12.5 -14q-5 7 -10 13t-10 11q-17 19 -31.5 33t-27.5 25q-31 4 -44.5 -7t-13.5 -36q0 -8 11 -24t27 -34q12 -14 34.5 -36.5l44.5 -45.5h40l35.5 36.5l29.5 30.5
q23 26 37 45.5t14 30.5q0 42 -41 42z" />
    <glyph glyph-name="zcaron" unicode="&#x17e;" horiz-adv-x="513" 
d="M38 433q0 44 28 64.5t74 20.5h230q45 0 71 -16q32 -20 32 -62q0 -27 -45 -99q-32 -52 -85 -123l-47 -62h29t31 1q76 0 105 -25q24 -20 24 -62q0 -43 -29.5 -64t-73.5 -21h-246q-44 0 -68 17q-29 20 -29 63q0 30 43 100q27 44 83 118l50 65q-14 0 -28 -0.5t-29 -0.5
q-71 0 -98 25q-22 20 -22 61zM65 65q0 -30 23 -43q18 -10 51 -10h243q35 0 53 11q23 14 23 47q0 37 -33 50.5t-85 13.5q-28 0 -51.5 -2t-42.5 -3q1 0 51 69t97 141q53 82 53 101q0 29 -22.5 40.5t-54.5 11.5h-230q-35 0 -55.5 -12.5t-20.5 -46.5q0 -36 36 -52q28 -12 79 -12
q25 0 47 1.5t40 3.5l-53 -70q-58 -77 -96 -136q-52 -80 -52 -103zM144 401q-25 0 -35 4q-18 7 -18 28q0 16 10 24t39 8h230q20 0 35 -4t15 -20q0 -14 -55 -97q-38 -58 -106 -153l-64 -89h184q24 0 38 -5.5t14 -26.5q0 -20 -16 -27q-9 -4 -33 -4h-246q-21 0 -29 3
q-15 6 -15 23q0 14 57 100l107 153q55 77 61 83h-173zM361 784q33 0 49.5 -17.5t16.5 -49.5q0 -16 -16 -40t-42 -53q-5 -6 -14 -15l-19.5 -19.5l-21 -21.5l-18.5 -19h-60l-17 15l-39.5 42l-31.5 34q-17 20 -30.5 41t-13.5 33q0 39 22.5 56t70.5 11q17 -14 34 -30.5t34 -35.5
l-2 1l3 -3q2 1 3 3t3 4q24 27 49.5 45.5t39.5 18.5zM361 736q18 0 18 -19q0 -10 -45 -61l-25 -26.5l-32 -31.5h-21l-41.5 41l-31.5 33l-22.5 26.5t-8.5 15.5q0 24 26 21q22 -20 51 -51q6 -8 11.5 -13.5t11.5 -12.5q2 -2 4 -5.5t10 -10.5l20 22.5l21 23.5q20 22 34.5 35
t19.5 13zM361 759q-9 0 -29 -16t-41 -40l-12.5 -14l-12.5 -14q-5 7 -10 13t-10 11q-17 19 -31.5 33t-27.5 25q-31 4 -44.5 -7t-13.5 -36q0 -8 11 -24t27 -34q12 -14 34.5 -36.5l44.5 -45.5h40l35.5 36.5l29.5 30.5q23 26 37 45.5t14 30.5q0 42 -41 42z" />
    <glyph glyph-name="uni00AD" unicode="&#xad;" horiz-adv-x="424" 
d="M266 367q56 0 87 -21q38 -26 38 -79q0 -51 -36 -77q-32 -23 -85 -23h-117q-52 0 -84 23q-36 26 -36 77q0 53 35.5 76.5t89.5 23.5h108zM266 201q40 0 62 12q29 16 29 54q0 39 -28 55q-21 12 -63 12h-108q-54 0 -75 -20q-16 -15 -16 -47q0 -38 28 -54q22 -12 63 -12h108z
M266 300q30 0 39 -3q19 -7 19 -30q0 -21 -14.5 -27t-39.5 -6h-116q-26 0 -36 4q-18 7 -18 29t15.5 27.5t42.5 5.5h108z" />
    <glyph glyph-name="dollar" unicode="$" horiz-adv-x="552" 
d="M273 733q32 0 57 -17t36 -48q57 -18 91 -46q44 -37 44 -89q0 -42 -28 -72t-71 -30q-25 0 -51 13l-82 40l-15 -11l6 -11l174 -83q87 -56 87 -166q0 -70 -41 -128t-108 -84q0 -43 -28 -72t-71 -29t-71.5 27.5t-28.5 70.5q-63 21 -101 57q-47 44 -47 103q0 42 29 70t71 28
q29 0 58 -19q81 -54 89 -56l20 6l8 14l-7 14l-169 81q-82 54 -82 163q0 68 36.5 124t99.5 81q10 31 36 50t59 19zM76 459q0 -86 66 -135q28 -21 124 -60q68 -28 68 -60q0 -24 -18.5 -37.5t-42.5 -13.5q-32 0 -62 22q-67 49 -83 49q-28 0 -49 -19t-21 -48q0 -50 51 -89
q42 -33 98 -44q0 -40 12 -62q16 -29 54 -29q39 0 55 28l12 66l110 69q37 41 37 117q0 87 -69 137q-27 19 -128 61q-69 28 -69 61q0 19 14 31t34 12q19 0 83 -35q29 -16 51 -16q27 0 46.5 20.5t19.5 48.5q0 43 -46 75q-35 24 -85 37q-4 24 -22 39.5t-43 15.5
q-26 0 -43.5 -15.5t-21.5 -42.5q-60 -13 -96 -66.5t-36 -116.5zM273 667q8 0 12 -2t14 -9q8 -21 8 -40q38 -4 79 -25q50 -26 50 -58l-9 -24l-23 -10q-4 1 -81 37q-30 14 -52 14q-34 0 -58.5 -21.5t-24.5 -55.5q0 -52 69 -84l128 -56q70 -43 70 -120q0 -74 -43 -108
q-15 -12 -105 -51q1 -17 1 -27q0 -35 -9 -47.5t-26 -12.5q-20 0 -27 15.5t-7 40.5v15.5t1 14.5q-51 6 -93 29q-56 31 -56 74l10 25q6 4 12.5 7t13.5 3q9 0 52 -35t92 -35q39 0 67.5 23t28.5 62q0 50 -64 78.5l-126 55.5q-68 42 -68 119q0 61 35 103t96 53q0 23 6.5 37.5
t26.5 14.5z" />
    <glyph glyph-name="equal" unicode="=" horiz-adv-x="531" 
d="M22 204q0 41 29 61q25 19 67 19h297q40 0 66 -19q29 -20 29 -61q0 -40 -28 -61q-26 -17 -67 -17h-297q-43 0 -67 17q-29 20 -29 61zM46 204q0 -30 22 -44q19 -10 50 -10h296q33 0 49 9q23 14 23 45q0 32 -19.5 44t-52.5 12h-296q-32 0 -50 -11q-22 -14 -22 -45zM71 204
q0 20 12.5 26t34.5 6h297q27 0 37 -8.5t10 -23.5q0 -18 -15 -26q-11 -5 -32 -5h-297q-28 0 -37.5 8t-9.5 23zM22 398q0 41 29 62q25 18 67 18h297q40 0 66 -18q29 -21 29 -62q0 -40 -28 -60q-26 -18 -67 -18h-297q-43 0 -67 17q-29 21 -29 61zM46 398q0 -30 22 -44
q19 -10 50 -10h296q33 0 49 10q23 13 23 44q0 32 -19.5 44t-52.5 12h-296q-32 0 -50 -10q-22 -15 -22 -46zM71 398q0 20 12.5 26t34.5 6h297q27 0 37 -8.5t10 -23.5q0 -18 -15 -25q-11 -6 -32 -6h-297q-28 0 -37.5 8t-9.5 23z" />
    <glyph glyph-name="less" unicode="&#x3c;" 
d="M415 229q25 -12 36 -28q14 -20 12 -44q0 -29 -21.5 -51t-50.5 -21q-26 2 -98 36q-45 22 -130.5 70t-93.5 52q-23 11 -35 28t-11 43t13 41.5t38 27.5l164 74q132 60 170 58q29 -1 49 -24t17 -52q0 -24 -14.5 -41.5t-39.5 -27.5l-167 -65zM411 389q18 8 29 20.5t12 29.5
q1 22 -12 38t-34 17q-19 0 -93 -29l-136 -60l-95 -42q-17 -9 -27 -20t-10 -30q-1 -18 8 -30.5t26 -19.5l157 -86q130 -69 156 -70q19 -1 34 14t16 36q2 17 -8 30t-29 22l-209 98zM396 189q9 -4 14 -9q11 -8 9 -21q-1 -31 -27 -31q-15 2 -149 71l-156 84q-10 6 -16 12t-6 17
q0 10 6.5 17.5t16.5 11.5t92 40l139 60q76 31 86 31q12 -1 19 -10t6 -22q-1 -10 -8 -17t-18 -12l-264 -102z" />
    <glyph glyph-name="greater" unicode="&#x3e;" 
d="M245 304l-167 65q-25 10 -39.5 27.5t-14.5 41.5q-3 29 17 52t49 24q38 2 170 -58l164 -74q26 -12 38 -27.5t13 -41.5t-11 -43t-35 -28q-8 -4 -93.5 -52t-130.5 -70q-72 -34 -98 -36q-29 -1 -50.5 21t-21.5 51q-2 24 12 44q11 16 36 28zM302 306l-209 -98q-19 -9 -29 -22
t-8 -30q1 -21 16 -36t34 -14q26 1 156 70l157 86q17 7 26 19.5t8 30.5q0 19 -10 30t-27 20l-95 42l-136 60q-74 29 -93 29q-21 -1 -34 -17t-12 -38q1 -17 12 -29.5t29 -20.5zM358 308l-264 102q-11 5 -18 12t-8 17q-1 13 6 22t19 10q10 0 86 -31l139 -60q82 -36 92 -40
t16.5 -11.5t6.5 -17.5q0 -11 -6 -17t-16 -12l-156 -84q-134 -69 -149 -71q-26 0 -27 31q-2 13 9 21q5 5 14 9z" />
    <glyph glyph-name="asciicircum" unicode="^" 
d="M182 486q-11 -18 -26 -26q-18 -10 -43 -10q-29 0 -50.5 14t-21.5 34q0 18 31 69q20 30 63.5 90.5t47.5 66.5q10 16 26 24.5t41 8.5q26 0 41.5 -8t26.5 -25l80 -110q62 -90 62 -116q0 -20 -21.5 -34t-50.5 -14q-24 0 -41 9.5t-28 26.5l-69 113zM339 491q7 -11 19.5 -18.5
t29.5 -7.5q21 0 36 9.5t15 23.5t-31 63l-63 92l-46 64q-8 12 -19 18.5t-30 6.5q-18 0 -29.5 -6.5t-18.5 -18.5l-77 -110q-63 -92 -63 -109q0 -14 15 -23.5t36 -9.5q16 0 28.5 7t20.5 19l88 147zM142 497q-4 -6 -7 -8q-9 -9 -22 -9q-29 0 -29 18q0 11 63 105q16 25 75 109
q6 8 12 11.5t16 3.5t17 -3.5t11.5 -10.5t42.5 -62l63 -95q33 -50 33 -58q0 -7 -8.5 -12.5t-20.5 -5.5q-10 0 -17.5 5t-11.5 12l-109 179z" />
    <glyph glyph-name="bar" unicode="|" horiz-adv-x="467" 
d="M317 12q0 -46 -20 -75.5t-66 -29.5q-44 0 -65 32q-21 28 -21 73v639q0 47 19 73q20 33 67 33q46 0 66 -30.5t20 -75.5v-639zM174 12q0 -34 9 -52q13 -25 48 -25q33 0 45 22t12 55v639q0 35 -10 53q-13 24 -47 24q-33 0 -47 -24q-10 -18 -10 -53v-639zM260 12
q0 -19 -6 -37q-11 -11 -23 -11q-4 0 -10 2t-12 8q-7 21 -7 38v639q0 9 2 18t5 20q6 7 11.5 9t10.5 2q19 0 24 -13t5 -36v-639z" />
    <glyph glyph-name="plus" unicode="+" horiz-adv-x="600" 
d="M299 638q25 0 41 -7.5t25 -21.5t12.5 -34t3.5 -45l1 -97h97q62 0 85 -22t23 -59q0 -25 -13.5 -44.5t-38.5 -28.5h1q-11 -4 -24 -6t-33 -2h-97v-34q0 -16 0.5 -32t0.5 -32q0 -62 -21 -85t-59 -23q-24 0 -42.5 11t-28.5 36q-11 25 -11 61l-1 98h-97q-32 0 -53 5.5t-33 15.5
t-17 25t-5 35q0 50 29 65.5t79 15.5h97q0 8 -0.5 16.5t-0.5 17.5v63q0 64 20 86t60 22zM299 585q18 0 23.5 -15t5.5 -40l1 -151h150q31 0 43 -7t12 -20q0 -18 -17 -23q-12 -6 -38 -6h-150l1 -150q0 -31 -7 -42.5t-20 -11.5q-18 0 -23 17q-6 12 -6 37l-1 150h-150
q-32 0 -43.5 7.5t-11.5 21.5q0 16 14.5 21.5t40.5 5.5h150l-1 151q0 32 6.5 43.5t20.5 11.5zM299 611q-26 0 -39 -16.5t-13 -64.5q0 -32 0.5 -62.5t0.5 -62.5h-125q-38 0 -59.5 -10t-21.5 -43q0 -26 16.5 -40t64.5 -14h125v-125q0 -30 10 -50q6 -17 17.5 -23.5t27.5 -6.5
q25 0 38.5 17t13.5 63q0 32 -0.5 63t-0.5 62h125q31 0 46 7q35 13 35 47q0 24 -17.5 38.5t-63.5 14.5h-125l-1 125q0 37 -11 59t-43 22z" />
    <glyph glyph-name="numbersign" unicode="#" horiz-adv-x="663" 
d="M532 306l-4 -2q1 1 2 1t2 1zM560 444q-2 -1 -3 -1t-2 -1q1 0 5 2zM61 439q0 25 7.5 41t22 25t34.5 12t44 3h46l4 16.5l4 17.5t5 17.5t5 16.5q16 61 45.5 81.5t67.5 11.5q36 -13 51 -42q17 32 41.5 40.5t53.5 1.5q32 -10 46.5 -32.5t14.5 -52.5q0 -27 -7 -52l-4 -12
t-4 -13q54 -2 75 -23.5t21 -56.5q0 -25 -13.5 -44t-38.5 -28h1q-4 -2 -6 -2q30 -21 30 -64q0 -25 -14.5 -44.5t-38.5 -28.5q-12 -5 -25 -6.5t-30 -1.5h-40l-10.5 -43t-11.5 -43q-8 -33 -20 -53.5t-26.5 -31t-31 -12.5t-34.5 4h1q-40 11 -54 44q-17 -34 -42 -43.5t-52 -0.5h1
q-56 16 -61 75q-1 14 0.5 30.5t6.5 33.5v-1l6.5 22.5t4.5 17.5v1q-60 1 -81 22t-21 59q0 33 13.5 50.5t39.5 25.5q-14 11 -20 26.5t-6 35.5zM114 439q0 17 15 22.5t40 5.5h87l28 108q9 37 20.5 48t26.5 6q20 -5 22 -23.5t-5 -47.5l-25 -91h80l28 108q8 37 20 48t28 6
q19 -5 21 -23.5t-6 -47.5l-25 -91h57q31 0 43 -7.5t12 -20.5q0 -17 -18 -23q-12 -5 -37 -5h-70l-23 -82h66q31 0 43 -8t12 -20q0 -17 -18 -23q-12 -5 -37 -5h-80l-33 -126q-9 -36 -21.5 -47.5t-24.5 -6.5q-22 5 -23 27q-2 15 6 44l28 109h-79l-33 -126q-8 -36 -20.5 -47.5
t-26.5 -6.5q-20 5 -21 27q-4 15 5 44l28 109h-62q-32 0 -43.5 7t-11.5 21q0 17 15 22.5t40 5.5h78l21 82h-72q-32 0 -43.5 7.5t-11.5 20.5zM286 329h80l21 82h-79zM89 439q0 -26 16.5 -39.5t63.5 -13.5h40l-5.5 -19l-3.5 -12h-58q-37 0 -59 -11t-22 -43q0 -26 17 -39.5
t64 -13.5h29q-3 -14 -5.5 -22.5t-4 -16.5t-4 -16.5t-5.5 -21.5v1q-11 -32 -6 -54q3 -38 41 -50l-2 1q25 -8 46 7t33 65v-1l28 108h25q-3 -14 -5.5 -22.5t-4 -16.5t-4 -16.5t-5.5 -21.5v1q-9 -33 -5 -54q3 -39 40 -50l-2 1q25 -8 46.5 7t32.5 65v-1l28 108h61q15 0 26 1t19 5
q35 13 35 47q0 24 -17 39t-63 15h-32q2 13 4 18.5t4 12.5h51q29 0 46 6q35 14 35 47q0 25 -18 39.5t-63 14.5h-23q3 11 4.5 17.5t3 12t3.5 12t5 17.5v-1q7 22 7 45q0 21 -10 36.5t-31 21.5q-26 6 -47 -8.5t-32 -64.5q-6 -21 -11.5 -43.5t-11.5 -44.5h-27q3 11 4.5 17.5t3 12
t3.5 12t5 17.5v-1q7 22 7 45q0 21 -10 36.5t-30 21.5q-26 6 -47 -8.5t-33 -64.5q-5 -21 -11 -43.5l-12 -44.5h-67q-37 0 -58.5 -10t-21.5 -44zM328 386h27q-3 -14 -4.5 -19l-3.5 -12h-28z" />
    <glyph glyph-name="daggerdbl" unicode="&#x2021;" horiz-adv-x="513" 
d="M22 190q0 29 7 46t20 25.5t32.5 11t43.5 2.5h43q0 6 0.5 11.5t0.5 10.5v16h-44q-31 0 -51 6t-31.5 17t-16 27t-4.5 37q0 29 7 46t20 26t32.5 11.5t43.5 2.5h45v11t1 10v71q0 52 20 74t57 26q93 -3 89 -106q0 -7 -0.5 -15.5t-0.5 -18.5v-43q-1 -4 -1 -9h55q59 0 81 -20
t22 -66q0 -53 -47 -75l3 2q-25 -14 -59 -14h-57v-38h57q59 0 81 -22t22 -67q0 -26 -12.5 -43t-29.5 -27t-34.5 -13t-26.5 0h-58v-22q-1 -19 -1 -36v-35q1 -105 -82 -105q-68 2 -83 75v29l1 94h-42q-31 0 -51 5.5t-31.5 17t-16 27.5t-4.5 37zM75 190q0 22 13 27.5t37 5.5h95
q0 38 1 71.5t1 71.5h-97q-30 0 -40 9t-10 25q0 23 13 28t37 5h97q0 37 1 72.5t1 71.5l4 34l20 13l23 -5q10 -14 11.5 -20.5t1.5 -23.5q0 -37 -1 -70.5t-1 -71.5h108q29 0 39.5 -8t10.5 -25q0 -19 -19 -28h1q-7 -6 -32 -6h-109q0 -37 -1 -71t-1 -72h111q29 0 39.5 -8
t10.5 -25q0 -19 -19 -28h1q-5 -4 -13 -4.5t-19 -0.5h-111q0 -37 -0.5 -73.5t-0.5 -73.5q1 -15 -6 -37l-17 -12l-23 6q-9 11 -12 23v19v148h-95q-30 0 -40 8.5t-10 24.5zM49 190q0 -29 15.5 -44t60.5 -15h70l-1 -122v-24q4 -46 61 -50q48 3 48 75v35.5t1 36.5q0 12 0.5 24
t0.5 25h85q14 0 25.5 2t20.5 8l-3 -2q32 16 32 51q0 30 -15.5 44t-59.5 14h-85v47q0 11 0.5 22.5t0.5 23.5h84q29 0 44 9l-1 -1q32 16 32 51q0 31 -15.5 45t-59.5 14h-83v14v9t0.5 8.5t0.5 13.5q0 12 0.5 34t0.5 36q1 76 -59 74q-26 -2 -39.5 -17.5t-12.5 -53.5v-71
q-1 -12 -1 -23.5v-23.5h-72q-35 0 -55.5 -10t-20.5 -49q0 -28 15.5 -43.5t60.5 -15.5h72v-46q-1 -11 -1 -23.5v-23.5h-71q-35 0 -55.5 -9.5t-20.5 -48.5z" />
    <glyph glyph-name="quotesinglbase" unicode="&#x201a;" horiz-adv-x="300" 
d="M49 104q0 46 30 76t77 30q45 0 76.5 -29.5t31.5 -74.5q0 -52 -35 -111q-40 -67 -89 -67q-35 0 -60 21.5t-25 55.5q0 21 11 40q-17 28 -17 59zM89 5q0 -20 15 -32t36 -12q32 0 63 58q28 52 28 87q0 31 -22 51t-53 20q-32 0 -53 -20t-21 -53q0 -16 5 -28.5t17 -29.5
q-6 -8 -10.5 -19.5t-4.5 -21.5zM116 104q0 17 11 29t29 12t30 -10t12 -29q0 -22 -22 -67.5t-38 -45.5q-18 0 -18 17q0 8 10 29l14 28q-28 10 -28 37z" />
    </font>
</defs>
</svg>
